<svg xmlns="http://www.w3.org/2000/svg" width="27.156" height="27.163" viewBox="0 0 27.156 27.163">
  <defs>
    <style>
      .cls-1 {
        fill: none;
        stroke: #7fc4fd;
        stroke-linecap: round;
        stroke-linejoin: round;
        stroke-width: 2px;
      }

      .cls-2 {
        fill: #7fc4fd;
      }
    </style>
  </defs>
  <g id="pricetag-outline" transform="translate(-2.216 -2.375)">
    <path id="Path_13291" data-name="Path 13291" class="cls-1" d="M26.648,3.375H19.262a.869.869,0,0,0-.613.252L3.883,18.393a1.734,1.734,0,0,0,0,2.446l7.031,7.031a1.734,1.734,0,0,0,2.446,0L28.119,13.111a.869.869,0,0,0,.252-.613V5.107a1.722,1.722,0,0,0-1.725-1.731Z"/>
    <path id="Path_13292" data-name="Path 13292" class="cls-2" d="M26.673,10.6A1.923,1.923,0,1,1,28.6,8.673,1.923,1.923,0,0,1,26.673,10.6Z" transform="translate(-3.106 -0.49)"/>
  </g>
</svg>
