<svg xmlns="http://www.w3.org/2000/svg" width="35.999" height="27" viewBox="0 0 35.999 27">
  <defs>
    <style>
      .cls-1 {
        fill: #7fc4fd;
        fill-rule: evenodd;
      }
    </style>
  </defs>
  <g id="truck" transform="translate(0 -4.5)">
    <path id="Path_13293" data-name="Path 13293" class="cls-1" d="M0,7.875A3.375,3.375,0,0,1,3.375,4.5h20.25A3.375,3.375,0,0,1,27,7.875v15.75H24.75V7.875A1.125,1.125,0,0,0,23.625,6.75H3.375A1.125,1.125,0,0,0,2.25,7.875v15.75A1.125,1.125,0,0,0,3.375,24.75V27A3.375,3.375,0,0,1,0,23.625ZM10.125,24.75h13.5V27h-13.5Z"/>
    <path id="Path_13294" data-name="Path 13294" class="cls-1" d="M24.75,11.25H29.3a3.375,3.375,0,0,1,2.632,1.267l3.332,4.163A3.375,3.375,0,0,1,36,18.791v4.834A3.375,3.375,0,0,1,32.624,27h-2.25V24.75h2.25a1.125,1.125,0,0,0,1.125-1.125V18.787a1.125,1.125,0,0,0-.247-.7l-3.33-4.163A1.125,1.125,0,0,0,29.3,13.5H27V23.625H24.75Zm-18,18A2.25,2.25,0,1,0,4.5,27,2.25,2.25,0,0,0,6.75,29.25Zm0,2.25A4.5,4.5,0,1,0,2.25,27,4.5,4.5,0,0,0,6.75,31.5Z"/>
    <path id="Path_13295" data-name="Path 13295" class="cls-1" d="M27,29.25A2.25,2.25,0,1,0,24.75,27,2.25,2.25,0,0,0,27,29.25Zm0,2.25A4.5,4.5,0,1,0,22.5,27,4.5,4.5,0,0,0,27,31.5Z"/>
  </g>
</svg>
