<svg xmlns="http://www.w3.org/2000/svg" width="13.284" height="12.773" viewBox="0 0 13.284 12.773">
  <defs>
    <style>
      .cls-1 {
        fill: #606060;
      }
    </style>
  </defs>
  <path id="Icon_ionic-ios-heart-empty" data-name="Icon ionic-ios-heart-empty" class="cls-1" d="M13.082,3.937h-.032A3.633,3.633,0,0,0,10.017,5.6a3.633,3.633,0,0,0-3.034-1.66H6.951A3.61,3.61,0,0,0,3.375,7.546,7.773,7.773,0,0,0,4.9,11.783a26.749,26.749,0,0,0,5.116,4.927,26.749,26.749,0,0,0,5.116-4.927,7.773,7.773,0,0,0,1.526-4.237A3.61,3.61,0,0,0,13.082,3.937Zm1.328,7.319a24.492,24.492,0,0,1-4.394,4.33,24.528,24.528,0,0,1-4.394-4.333A6.889,6.889,0,0,1,4.269,7.546,2.709,2.709,0,0,1,6.958,4.835h.029A2.677,2.677,0,0,1,8.3,5.18a2.79,2.79,0,0,1,.971.91.9.9,0,0,0,1.5,0,2.818,2.818,0,0,1,.971-.91,2.677,2.677,0,0,1,1.312-.345h.029a2.709,2.709,0,0,1,2.689,2.711A6.976,6.976,0,0,1,14.411,11.256Z" transform="translate(-3.375 -3.938)"/>
</svg>
