<svg xmlns="http://www.w3.org/2000/svg" xmlns:xlink="http://www.w3.org/1999/xlink" width="13.279" height="13.279" viewBox="0 0 13.279 13.279">
  <defs>
    <style>
      .cls-1 {
        fill: none;
        stroke: #606060;
        stroke-linecap: round;
        stroke-linejoin: round;
      }

      .cls-2 {
        clip-path: url(#clip-path);
      }

      .cls-3 {
        fill: #606060;
      }
    </style>
    <clipPath id="clip-path">
      <path id="Path_13276" data-name="Path 13276" class="cls-1" d="M26.779,20.14a6.64,6.64,0,1,1-6.64-6.64A6.64,6.64,0,0,1,26.779,20.14Z" transform="translate(-1.288 -1.288)"/>
    </clipPath>
  </defs>
  <g id="Mask_Group_72" data-name="Mask Group 72" class="cls-2" transform="translate(-12.212 -12.212)">
    <g id="__TEMP__SVG__" transform="translate(12.554 12.212)">
      <path id="Path_13274" data-name="Path 13274" class="cls-3" d="M3.621,1.268A2.435,2.435,0,1,0,6.056,3.7,2.435,2.435,0,0,0,3.621,1.268Zm0,3.984A1.549,1.549,0,1,1,5.17,3.7,1.549,1.549,0,0,1,3.621,5.252Z" transform="translate(2.655 2.937)"/>
      <path id="Path_13275" data-name="Path 13275" class="cls-3" d="M12.488,8.6l-.879-.724a5.342,5.342,0,0,0,0-2.222l.879-.724a.552.552,0,0,0,.127-.7l-.9-1.562a.552.552,0,0,0-.673-.242l-1.067.4A5.313,5.313,0,0,0,8.049,1.706L7.862.583A.552.552,0,0,0,7.316.121h-1.8a.552.552,0,0,0-.546.462L4.779,1.706A5.312,5.312,0,0,0,2.855,2.818l-1.067-.4a.552.552,0,0,0-.673.242l-.9,1.562a.552.552,0,0,0,.127.7l.879.724a5.342,5.342,0,0,0,0,2.222L.34,8.6a.552.552,0,0,0-.127.7l.9,1.562a.552.552,0,0,0,.673.242l1.067-.4a5.313,5.313,0,0,0,1.924,1.112l.187,1.123a.552.552,0,0,0,.546.462h1.8a.552.552,0,0,0,.546-.462l.187-1.123A5.313,5.313,0,0,0,9.973,10.7l1.067.4a.552.552,0,0,0,.673-.242l.9-1.563a.552.552,0,0,0-.127-.7Zm-1.4,1.58-1.331-.5-.2.2a4.425,4.425,0,0,1-2.009,1.161l-.277.073-.234,1.4H5.793l-.234-1.4-.277-.073A4.425,4.425,0,0,1,3.274,9.88l-.2-.2-1.331.5L1.12,9.1l1.1-.9-.075-.276a4.451,4.451,0,0,1,0-2.322l.075-.276-1.1-.9.621-1.076,1.331.5.2-.2A4.425,4.425,0,0,1,5.283,2.48l.277-.073.234-1.4H7.035l.234,1.4.277.073A4.425,4.425,0,0,1,9.554,3.641l.2.2,1.331-.5.621,1.076-1.1.9.075.276a4.451,4.451,0,0,1,0,2.322l-.075.276,1.1.9Z" transform="translate(-0.138 -0.121)"/>
    </g>
  </g>
</svg>
