<svg xmlns="http://www.w3.org/2000/svg" xmlns:xlink="http://www.w3.org/1999/xlink" width="200" height="57" viewBox="0 0 200 57">
  <defs>
    <style>
      .cls-1 {
        fill: #3bc0cb;
      }

      .cls-2, .cls-4 {
        fill: #fff;
      }

      .cls-2 {
        font-size: 16px;
        font-family: Raleway-SemiBold, Raleway;
        font-weight: 600;
      }

      .cls-3 {
        fill: #002f33;
      }

      .cls-5 {
        filter: url(#Rectangle_3356);
      }
    </style>
    <filter id="Rectangle_3356" x="0" y="0" width="200" height="57" filterUnits="userSpaceOnUse">
      <feOffset input="SourceAlpha"/>
      <feGaussianBlur stdDeviation="3" result="blur"/>
      <feFlood flood-opacity="0.161"/>
      <feComposite operator="in" in2="blur"/>
      <feComposite in="SourceGraphic"/>
    </filter>
  </defs>
  <g id="Group_12823" data-name="Group 12823" transform="translate(9 9)">
    <g class="cls-5" transform="matrix(1, 0, 0, 1, -9, -9)">
      <rect id="Rectangle_3356-2" data-name="Rectangle 3356" class="cls-1" width="182" height="39" rx="10" transform="translate(9 9)"/>
    </g>
    <text id="Selected" class="cls-2" transform="translate(57 25)"><tspan x="0" y="0">Selected</tspan></text>
    <g id="Verified_Icon" data-name="Verified Icon" transform="translate(20 11.928)">
      <g id="Group_12775" data-name="Group 12775">
        <g id="Group_12776" data-name="Group 12776">
          <path id="Path_13270" data-name="Path 13270" class="cls-3" d="M7.6,15.145a7.6,7.6,0,0,0,7.6-7.572,7.477,7.477,0,0,0-.3-2.111.633.633,0,0,0-1.216.354,6.242,6.242,0,0,1,.25,1.757,6.321,6.321,0,1,1-2.8-5.241.632.632,0,1,0,.709-1.046A7.585,7.585,0,1,0,7.6,15.145Zm0,0" transform="translate(0 -0.001)"/>
          <path id="Path_13271" data-name="Path 13271" class="cls-4" d="M121.694,32.188l-6.522,6.495-2.087-2.078a.636.636,0,0,0-.9,0,.629.629,0,0,0,0,.892l2.535,2.524a.635.635,0,0,0,.9,0l6.97-6.941a.629.629,0,0,0,0-.892.636.636,0,0,0-.9,0Zm0,0" transform="translate(-107.566 -30.742)"/>
        </g>
      </g>
    </g>
  </g>
</svg>
