<svg xmlns="http://www.w3.org/2000/svg" width="31.758" height="31.759" viewBox="0 0 31.758 31.759">
  <defs>
    <style>
      .cls-1 {
        fill: #3bc0cb;
      }
    </style>
  </defs>
  <g id="Group_12709" data-name="Group 12709" transform="translate(20943 11246.495)">
    <path id="Path_13315" data-name="Path 13315" class="cls-1" d="M35.058,13.274l-.192-4.2L31.323,6.8,29.055,3.259l-4.2-.193L21.115,1.132,17.379,3.068l-4.2.193L10.908,6.8,7.363,9.072l-.192,4.2L5.236,17.011l1.936,3.736.193,4.2,3.543,2.268,2.268,3.544,4.2.192,3.736,1.936,3.736-1.936,4.2-.192,2.268-3.544,3.544-2.268.192-4.2,1.936-3.736ZM32.29,20l-.154,3.37L29.3,25.192l-1.818,2.84-3.369.154-2.994,1.551-2.994-1.551-3.369-.154-1.818-2.84-2.84-1.818L9.94,20.006,8.388,17.011,9.94,14.017l.154-3.369,2.84-1.818,1.818-2.84,3.369-.154,2.994-1.551,2.994,1.551,3.369.154L29.3,8.83l2.84,1.818.154,3.369,1.551,2.994Z" transform="translate(-20948.236 -11247.627)"/>
    <g id="Layer_3" data-name="Layer 3" transform="translate(-20937.592 -11241.95)">
      <path id="Path_13316" data-name="Path 13316" class="cls-1" d="M2.733,12.7a.756.756,0,1,0-.223.537A.756.756,0,0,0,2.733,12.7Z" transform="translate(0 -3.797)"/>
      <path id="Path_13317" data-name="Path 13317" class="cls-1" d="M18.851,12.33a11.073,11.073,0,0,0-2.492.778,12.353,12.353,0,0,0-1.894,1.143,9.626,9.626,0,0,1-.952-1.524,25.93,25.93,0,0,1-1.524-4.185.569.569,0,0,0-1.088,0,25.417,25.417,0,0,1-1.524,4.185,9.251,9.251,0,0,1-.958,1.524,12.353,12.353,0,0,0-1.894-1.143,11.242,11.242,0,0,0-2.492-.778.548.548,0,0,0-.593.784A27.279,27.279,0,0,1,5.8,20.672a.544.544,0,0,0,.544.452h10.23a.544.544,0,0,0,.544-.452,27.29,27.29,0,0,1,2.318-7.558.546.546,0,0,0-.582-.784ZM16.12,20.035H6.787a30.288,30.288,0,0,0-1.85-6.372,8.57,8.57,0,0,1,1.137.424,10.883,10.883,0,0,1,2.1,1.333.544.544,0,0,0,.756-.049,10.491,10.491,0,0,0,1.453-2.177,23.649,23.649,0,0,0,1.088-2.661,22.713,22.713,0,0,0,1.088,2.661A10.84,10.84,0,0,0,14,15.372a.544.544,0,0,0,.762.049,10.453,10.453,0,0,1,2.1-1.333A8.037,8.037,0,0,1,18,13.663a29.967,29.967,0,0,0-1.877,6.372Z" transform="translate(-0.985 -2.065)"/>
      <path id="Path_13318" data-name="Path 13318" class="cls-1" d="M33.953,12.7a.756.756,0,1,1-.756-.756A.756.756,0,0,1,33.953,12.7Z" transform="translate(-14.231 -3.797)"/>
      <path id="Path_13319" data-name="Path 13319" class="cls-1" d="M17.591,5.123a.756.756,0,1,0-.751-.756.756.756,0,0,0,.751.756Z" transform="translate(-7.12 0)"/>
      <path id="Path_13320" data-name="Path 13320" class="cls-1" d="M17.719,26.34a.6.6,0,1,0,.6.6A.6.6,0,0,0,17.719,26.34Z" transform="translate(-7.243 -10.361)"/>
      <path id="Path_13321" data-name="Path 13321" class="cls-1" d="M12.069,26.34a.6.6,0,1,0,.6.6A.6.6,0,0,0,12.069,26.34Z" transform="translate(-4.668 -10.361)"/>
      <path id="Path_13322" data-name="Path 13322" class="cls-1" d="M23.379,26.34a.6.6,0,1,0,.6.6A.6.6,0,0,0,23.379,26.34Z" transform="translate(-9.823 -10.361)"/>
    </g>
  </g>
</svg>
