<svg xmlns="http://www.w3.org/2000/svg" width="13.482" height="13.482" viewBox="0 0 13.482 13.482">
  <g id="Icon_ionic-ios-add-circle-outline" data-name="Icon ionic-ios-add-circle-outline" transform="translate(-3.375 -3.375)">
    <path id="Path_13516" data-name="Path 13516" d="M16.9,13.445H14.482V11.03a.519.519,0,0,0-1.037,0v2.415H11.03a.5.5,0,0,0-.519.519.5.5,0,0,0,.519.519h2.415V16.9a.5.5,0,0,0,.519.519.516.516,0,0,0,.519-.519V14.482H16.9a.519.519,0,0,0,0-1.037Z" transform="translate(-3.847 -3.847)" fill="#002f33"/>
    <path id="Path_13517" data-name="Path 13517" d="M10.116,4.282A5.831,5.831,0,1,1,5.99,5.99a5.8,5.8,0,0,1,4.126-1.708m0-.907a6.741,6.741,0,1,0,6.741,6.741,6.74,6.74,0,0,0-6.741-6.741Z" fill="#002f33"/>
  </g>
</svg>
