<svg xmlns="http://www.w3.org/2000/svg" width="80.263" height="50" viewBox="0 0 80.263 50">
  <defs>
    <style>
      .cls-1, .cls-2 {
        fill: #002f33;
      }

      .cls-1 {
        font-size: 20px;
        font-family: Raleway-SemiBold, Raleway;
        font-weight: 600;
      }

      .cls-3, .cls-5 {
        fill: none;
      }

      .cls-3 {
        stroke: #002f33;
      }

      .cls-4 {
        stroke: none;
      }
    </style>
  </defs>
  <g id="Group_12756" data-name="Group 12756" transform="translate(0 -0.24)">
    <text id="Request_More_Time" data-name="Request More Time" class="cls-1" transform="translate(32.895 32.334)"><tspan x="0" y="0">Pay</tspan></text>
    <path id="Icon_awesome-apple" data-name="Icon awesome-apple" class="cls-2" d="M13.056,11.859a3.79,3.79,0,0,1,2.03-3.442,4.362,4.362,0,0,0-3.438-1.81c-1.441-.114-3.016.84-3.593.84-.609,0-2.005-.8-3.1-.8C2.688,6.683.281,8.453.281,12.053a10.118,10.118,0,0,0,.585,3.3c.52,1.49,2.4,5.143,4.352,5.082,1.023-.024,1.746-.727,3.077-.727,1.291,0,1.961.727,3.1.727,1.973-.028,3.67-3.349,4.165-4.843a4.024,4.024,0,0,1-2.5-3.731Zm-2.3-6.666a3.823,3.823,0,0,0,.974-2.943A4.3,4.3,0,0,0,8.976,3.667,3.883,3.883,0,0,0,7.937,6.585,3.409,3.409,0,0,0,10.759,5.193Z" transform="translate(11.448 13.993)"/>
    <g id="Rectangle_1994" data-name="Rectangle 1994" class="cls-3" transform="translate(0 0.24)">
      <rect class="cls-4" width="80.263" height="50" rx="5"/>
      <rect class="cls-5" x="0.5" y="0.5" width="79.263" height="49" rx="4.5"/>
    </g>
  </g>
</svg>
