<svg xmlns="http://www.w3.org/2000/svg" width="149.559" height="182.731" viewBox="0 0 149.559 182.731">
  <defs>
    <style>
      .cls-1 {
        fill: #3bc0cb;
      }

      .cls-2 {
        fill: #002f33;
      }

      .cls-3 {
        fill: #0a5c63;
      }

      .cls-4 {
        fill: #0b5c63;
      }

      .cls-5 {
        fill: #ffb332;
      }

      .cls-6 {
        fill: #ff9100;
      }

      .cls-7 {
        fill: #06494e;
      }

      .cls-8 {
        fill: #054348;
      }

      .cls-9 {
        fill: #075a61;
      }

      .cls-10 {
        fill: #10656d;
      }

      .cls-11 {
        fill: #ffdd40;
      }

      .cls-12 {
        fill: #08555b;
      }

      .cls-13 {
        fill: #054a50;
      }

      .cls-14 {
        fill: #074e54;
      }

      .cls-15 {
        fill: #fdaa8e;
      }

      .cls-16 {
        fill: #ffc6a1;
      }

      .cls-17 {
        fill: #005b63;
      }

      .cls-18 {
        fill: #ff7272;
      }

      .cls-19 {
        fill: #c83f3f;
      }

      .cls-20 {
        fill: #f3f3f3;
      }
    </style>
  </defs>
  <g id="legal" transform="translate(-10.998 0)">
    <path id="Path_13452" data-name="Path 13452" class="cls-1" d="M133.88,154.025a74.764,74.764,0,1,0-113.014-20.1Z" transform="translate(0 -15.282)"/>
    <path id="Path_13453" data-name="Path 13453" class="cls-2" d="M115.1,467.439a74.8,74.8,0,0,0,86.013,0H115.1Z" transform="translate(-72.325 -324.768)"/>
    <g id="Group_12738" data-name="Group 12738" transform="translate(42.771 142.672)">
      <path id="Path_13454" data-name="Path 13454" class="cls-3" d="M151.443,467.44H115.1a74.366,74.366,0,0,0,35.362,13.213C144.486,478.386,144.971,468.907,151.443,467.44Z" transform="translate(-115.096 -467.44)"/>
    </g>
    <path id="Path_13455" data-name="Path 13455" class="cls-4" d="M164.8,308.523H90.359a4.608,4.608,0,0,0-4.594,4.594v3.314h83.624v-3.314A4.608,4.608,0,0,0,164.8,308.523Z" transform="translate(-51.947 -214.356)"/>
    <path id="Path_13456" data-name="Path 13456" class="cls-2" d="M118,308.523H90.36a4.608,4.608,0,0,0-4.594,4.594v3.314h31.382a6.569,6.569,0,0,1,.856-.292C113.349,312.526,118,308.523,118,308.523Z" transform="translate(-51.947 -214.356)"/>
    <path id="Path_13457" data-name="Path 13457" class="cls-5" d="M0,0H39.563V45.6H0Z" transform="matrix(0.642, -0.766, 0.766, 0.642, 56.63, 47.758)"/>
    <path id="Path_13458" data-name="Path 13458" class="cls-6" d="M200.062,69.657a1.1,1.1,0,0,0,.875-.064l-14.912-12.5-25.416,30.32L175.088,99.55a1.109,1.109,0,0,0,.078-1.1,5.783,5.783,0,0,1,.573-6.5s12.933-14.752,16.8-19.941a6.214,6.214,0,0,1,7.524-2.357Z" transform="translate(-103.947 -39.667)"/>
    <path id="Path_13459" data-name="Path 13459" class="cls-7" d="M259.395,32.575l35.027,29.361a8.12,8.12,0,0,1,1.053-8.524L267.6,30.05A8.12,8.12,0,0,1,259.395,32.575Z" transform="translate(-172.581 -20.878)"/>
    <path id="Path_13460" data-name="Path 13460" class="cls-2" d="M275.278,44.925a3.931,3.931,0,0,1,3.316-4.333,1.085,1.085,0,0,0,.774-.682L267.6,30.05a8.121,8.121,0,0,1-8.209,2.525l15.63,13.1A1.1,1.1,0,0,0,275.278,44.925Z" transform="translate(-172.581 -20.878)"/>
    <path id="Path_13461" data-name="Path 13461" class="cls-8" d="M142.723,174.65l35.027,29.361a8.12,8.12,0,0,0-8.209,2.525L141.67,183.174A8.121,8.121,0,0,0,142.723,174.65Z" transform="translate(-90.788 -121.344)"/>
    <path id="Path_13462" data-name="Path 13462" class="cls-2" d="M142.723,174.65a8.121,8.121,0,0,1-1.053,8.524l11.226,9.41a1.093,1.093,0,0,0,.386-.978c-.384-2.961,1.859-3.752,3.29-3.957a1.1,1.1,0,0,0,.855-.673Z" transform="translate(-90.788 -121.344)"/>
    <path id="Path_13463" data-name="Path 13463" class="cls-9" d="M334.5,203.8l-3.924-.253-7.536,8.99.935,3.819a16.311,16.311,0,0,0,10.693,11.579,53.092,53.092,0,0,1,13.433,7.411,4.529,4.529,0,0,1,.834-1.5l7.14-8.518a4.521,4.521,0,0,1,1.336-1.084,53.09,53.09,0,0,1-9.643-11.933A16.312,16.312,0,0,0,334.5,203.8Z" transform="translate(-216.8 -141.42)"/>
    <path id="Path_13464" data-name="Path 13464" class="cls-2" d="M340.224,220.263a9.037,9.037,0,0,1-3.226-2,6.3,6.3,0,0,1-.5-8.348l3.631-4.708a16.2,16.2,0,0,0-5.626-1.41l-3.923-.253-7.536,8.99.935,3.819a16.312,16.312,0,0,0,10.693,11.579,53.09,53.09,0,0,1,13.433,7.411,4.531,4.531,0,0,1,.834-1.5l3.939-4.7C350.105,226.678,344.248,221.733,340.224,220.263Z" transform="translate(-216.8 -141.421)"/>
    <path id="Path_13465" data-name="Path 13465" class="cls-2" d="M445.657,297.4l-12.318-10.326a4.53,4.53,0,0,1-.852,1.555l-7.14,8.518a4.526,4.526,0,0,1-1.383,1.11l16.669,13.973A74.206,74.206,0,0,0,445.657,297.4Z" transform="translate(-286.921 -199.455)"/>
    <path id="Path_13466" data-name="Path 13466" class="cls-10" d="M436.008,299.079a4.507,4.507,0,0,1-.632-6.276l.048-.059,2.027-2.221-4.112-3.447a4.532,4.532,0,0,1-.852,1.555l-7.14,8.518a4.526,4.526,0,0,1-1.383,1.11l16.669,13.973a74.362,74.362,0,0,0,2.785-6.943Z" transform="translate(-286.921 -199.455)"/>
    <g id="Group_12739" data-name="Group 12739" transform="translate(80.528 10.552)">
      <path id="Path_13467" data-name="Path 13467" class="cls-11" d="M280.789,70.408a3.941,3.941,0,0,1-5.552.489L240.21,41.536a3.941,3.941,0,1,1,5.064-6.041L280.3,64.856a3.941,3.941,0,0,1,.489,5.552Z" transform="translate(-238.801 -34.574)"/>
    </g>
    <path id="Path_13468" data-name="Path 13468" class="cls-5" d="M245.274,35.495a3.941,3.941,0,0,0-5.064,6.041L255.1,54.017a1.1,1.1,0,0,0,.772-.992c.157-2.829,2.661-3.6,4.144-3.812a1.107,1.107,0,0,0,.854-.646Z" transform="translate(-158.273 -24.022)"/>
    <g id="Group_12740" data-name="Group 12740" transform="translate(92.933 -0.001)">
      <path id="Path_13469" data-name="Path 13469" class="cls-12" d="M316.709,32.1a5.319,5.319,0,0,1-7.493.659L281.345,9.4a5.319,5.319,0,0,1,6.834-8.153L316.05,24.605a5.319,5.319,0,0,1,.66,7.493Z" transform="translate(-279.443 0)"/>
    </g>
    <path id="Path_13470" data-name="Path 13470" class="cls-2" d="M288.179,1.243A5.319,5.319,0,0,0,281.345,9.4l11.811,9.9a1.142,1.142,0,0,0,.216-.764c-.465-5.92,4.169-6.9,6.139-7.047a1.086,1.086,0,0,0,.6-.241Z" transform="translate(-186.51 0)"/>
    <g id="Group_12741" data-name="Group 12741" transform="translate(50.338 46.568)">
      <path id="Path_13471" data-name="Path 13471" class="cls-11" d="M181.876,188.408a3.941,3.941,0,0,0-.489-5.552l-35.027-29.361a3.941,3.941,0,1,0-5.064,6.041L176.324,188.9A3.941,3.941,0,0,0,181.876,188.408Z" transform="translate(-139.888 -152.574)"/>
    </g>
    <path id="Path_13472" data-name="Path 13472" class="cls-5" d="M146.361,153.495a3.941,3.941,0,0,0-5.064,6.041L156.044,171.9a1.108,1.108,0,0,0,.229-.791c-.35-3.557,1.918-4.51,3.635-4.729a1.106,1.106,0,0,0,.915-.76Z" transform="translate(-89.55 -106.006)"/>
    <g id="Group_12742" data-name="Group 12742" transform="translate(42.333 60.364)">
      <path id="Path_13473" data-name="Path 13473" class="cls-13" d="M150.927,229.871a5.319,5.319,0,0,0-.659-7.493L122.4,199.015a5.319,5.319,0,0,0-6.834,8.153l27.871,23.362A5.319,5.319,0,0,0,150.927,229.871Z" transform="translate(-113.661 -197.772)"/>
    </g>
    <path id="Path_13474" data-name="Path 13474" class="cls-2" d="M122.4,199.015a5.319,5.319,0,0,0-6.834,8.153l11.363,9.525a1.085,1.085,0,0,0,.113-.6c-.593-5.525,3.686-6.863,5.841-7.187a1.117,1.117,0,0,0,.751-.47Z" transform="translate(-71.329 -137.408)"/>
    <path id="Path_13475" data-name="Path 13475" class="cls-14" d="M139.333,333.477H56.857A13.566,13.566,0,0,0,43.331,347v3.335A75.1,75.1,0,0,0,57.171,367.8h95.688V347A13.566,13.566,0,0,0,139.333,333.477Z" transform="translate(-22.464 -231.694)"/>
    <path id="Path_13476" data-name="Path 13476" class="cls-2" d="M85.087,367.22c-3.434-1.384-3.434-5.33-3.434-5.33V343.347c0-8.241,6.867-9.87,6.867-9.87H56.857A13.566,13.566,0,0,0,43.331,347v3.335A75.1,75.1,0,0,0,57.171,367.8H84.549A6.883,6.883,0,0,1,85.087,367.22Z" transform="translate(-22.464 -231.694)"/>
    <path id="Path_13477" data-name="Path 13477" class="cls-11" d="M187.189,446.607a3.939,3.939,0,0,0-3.694-2.578H86.637a75.124,75.124,0,0,0,9.75,7.883h83.887a75.115,75.115,0,0,0,6.916-5.305Z" transform="translate(-52.552 -308.503)"/>
    <path id="Path_13478" data-name="Path 13478" class="cls-5" d="M115.175,444.029H86.637a75.124,75.124,0,0,0,9.75,7.883h18.789C110.444,448.414,115.175,444.029,115.175,444.029Z" transform="translate(-52.552 -308.503)"/>
    <path id="Path_13479" data-name="Path 13479" class="cls-11" d="M295.479,192.511l3.656,3.065a3.369,3.369,0,0,0,4.732-.416l8.248-9.839a3.369,3.369,0,0,0-.416-4.732l-3.656-3.065Z" transform="translate(-197.652 -123.34)"/>
    <path id="Path_13480" data-name="Path 13480" class="cls-11" d="M417.535,269.4a4.544,4.544,0,0,0-6.4.563l-7.14,8.518a4.543,4.543,0,1,0,6.964,5.838l7.14-8.518A4.544,4.544,0,0,0,417.535,269.4Z" transform="translate(-272.308 -186.435)"/>
    <path id="Path_13481" data-name="Path 13481" class="cls-5" d="M410.434,287.869a5.016,5.016,0,0,1-1.672-4.94l-4.769,5.689a4.544,4.544,0,1,0,6.964,5.838l5.008-5.974A5.021,5.021,0,0,1,410.434,287.869Z" transform="translate(-272.308 -196.574)"/>
    <path id="Path_13482" data-name="Path 13482" class="cls-11" d="M308.776,178.136a15.705,15.705,0,0,0-12.564,14.988l6.715-7.1Z" transform="translate(-198.161 -123.766)"/>
    <g id="bid" transform="translate(35.383 122.594)">
      <path id="Path_13437" data-name="Path 13437" class="cls-15" d="M198.188,419.256h12.826v8.476H198.188Z" transform="translate(-186.773 -370.013)"/>
      <path id="Path_13438" data-name="Path 13438" class="cls-16" d="M182.495,244.831v8.738a5.3,5.3,0,0,1-5.3,5.3h-5.386a6.982,6.982,0,0,1-6.982-6.982v-16.25a2.3,2.3,0,1,1,4.6,0v5.723a3.473,3.473,0,0,0,3.473,3.473h9.595Z" transform="translate(-157.332 -205.93)"/>
      <path id="Path_13439" data-name="Path 13439" class="cls-17" d="M231.884,195.16h-6.32a.47.47,0,0,1-.47-.47V169.308h7.26V194.69A.47.47,0,0,1,231.884,195.16Z" transform="translate(-210.519 -149.422)"/>
      <path id="Path_13440" data-name="Path 13440" class="cls-2" d="M256,169.308V195.16h3.16a.47.47,0,0,0,.47-.47V169.308Z" transform="translate(-237.795 -149.422)"/>
      <path id="Path_13441" data-name="Path 13441" class="cls-16" d="M273.463,231.708a2.288,2.288,0,0,0-3.112-.876l-4.21,2.357a2.284,2.284,0,1,0,2.238,3.982l4.21-2.357A2.28,2.28,0,0,0,273.463,231.708Z" transform="translate(-245.715 -203.463)"/>
      <path id="Path_13442" data-name="Path 13442" class="cls-15" d="M273.463,276.243a2.288,2.288,0,0,0-3.112-.875l-4.21,2.357a2.284,2.284,0,1,0,2.238,3.982l4.21-2.357A2.28,2.28,0,0,0,273.463,276.243Z" transform="translate(-245.715 -242.767)"/>
      <path id="Path_13443" data-name="Path 13443" class="cls-16" d="M273.463,320.779a2.288,2.288,0,0,0-3.112-.875l-4.21,2.357a2.284,2.284,0,1,0,2.238,3.982l4.21-2.357A2.28,2.28,0,0,0,273.463,320.779Z" transform="translate(-245.715 -282.072)"/>
      <path id="Path_13444" data-name="Path 13444" class="cls-15" d="M273.463,365.315a2.288,2.288,0,0,0-3.112-.875l-4.21,2.357a2.284,2.284,0,1,0,2.238,3.982l4.21-2.357A2.28,2.28,0,0,0,273.463,365.315Z" transform="translate(-245.715 -321.377)"/>
      <path id="Path_13445" data-name="Path 13445" class="cls-1" d="M203.51,472.874H188.478a.47.47,0,0,1-.47-.47v-4.267a.47.47,0,0,1,.47-.47H203.51a.47.47,0,0,1,.47.47V472.4A.47.47,0,0,1,203.51,472.874Z" transform="translate(-177.789 -412.737)"/>
      <path id="Path_13446" data-name="Path 13446" class="cls-2" d="M293.087,467.667v5.207h3.16a.47.47,0,0,0,.47-.47v-4.267a.47.47,0,0,0-.47-.47Z" transform="translate(-270.526 -412.737)"/>
      <path id="Path_13447" data-name="Path 13447" class="cls-18" d="M134.987,22.264H103.424A2.424,2.424,0,0,1,101,19.84V2.424A2.424,2.424,0,0,1,103.424,0h31.564a2.424,2.424,0,0,1,2.424,2.424V19.84A2.424,2.424,0,0,1,134.987,22.264Z" transform="translate(-101 0)"/>
      <path id="Path_13448" data-name="Path 13448" class="cls-19" d="M380,0V22.264h1.214a2.424,2.424,0,0,0,2.427-2.42V2.42A2.424,2.424,0,0,0,381.214,0Z" transform="translate(-347.23 0)"/>
      <g id="Group_12737" data-name="Group 12737" transform="translate(6.824 4.806)">
        <path id="Path_13449" data-name="Path 13449" class="cls-20" d="M247.218,40.918a.881.881,0,0,0-.881.881V52.825a.881.881,0,1,0,1.762,0V41.8A.881.881,0,0,0,247.218,40.918Z" transform="translate(-236.091 -40.918)"/>
        <path id="Path_13450" data-name="Path 13450" class="cls-20" d="M279.219,43.695h-3.031a.881.881,0,0,0-.881.883s.008,4.117.008,5.337c0,1.471.014,5.326.014,5.365a.881.881,0,0,0,.881.878h0c.091,0,2.249-.009,3.11-.024a4.781,4.781,0,0,0,3.774-1.92,7.062,7.062,0,0,0,1.324-4.288c0-3.727-2.09-6.231-5.2-6.231Zm.073,10.677c-.5.009-1.483.015-2.2.019,0-1.236-.011-3.445-.011-4.477,0-.864,0-3.177-.006-4.458h2.148c2.537,0,3.44,2.309,3.44,4.469C282.66,52.509,281.275,54.337,279.293,54.372Z" transform="translate(-261.659 -43.369)"/>
        <path id="Path_13451" data-name="Path 13451" class="cls-20" d="M165.766,46.572a3.415,3.415,0,0,0-2.582-5.654h-3.2a.881.881,0,0,0-.881.881V52.825a.881.881,0,0,0,.881.881h0c.03,0,2.957-.013,3.758-.013a3.848,3.848,0,0,0,2.023-7.121Zm-2.582-3.892a1.656,1.656,0,1,1,0,3.313l-1.161,0h-1.161V42.68Zm.559,9.252c-.523,0-1.942.006-2.881.009V47.762l1.165,0h1.717a2.087,2.087,0,1,1,0,4.174Z" transform="translate(-159.1 -40.918)"/>
      </g>
    </g>
    <g id="bid-2" data-name="bid" transform="translate(68.444 103.494)">
      <path id="Path_13437-2" data-name="Path 13437" class="cls-15" d="M198.188,419.256h12.826v8.476H198.188Z" transform="translate(-186.773 -370.013)"/>
      <path id="Path_13438-2" data-name="Path 13438" class="cls-16" d="M182.495,244.831v8.738a5.3,5.3,0,0,1-5.3,5.3h-5.386a6.982,6.982,0,0,1-6.982-6.982v-16.25a2.3,2.3,0,1,1,4.6,0v5.723a3.473,3.473,0,0,0,3.473,3.473h9.595Z" transform="translate(-157.332 -205.93)"/>
      <path id="Path_13439-2" data-name="Path 13439" class="cls-17" d="M231.884,195.16h-6.32a.47.47,0,0,1-.47-.47V169.308h7.26V194.69A.47.47,0,0,1,231.884,195.16Z" transform="translate(-210.519 -149.422)"/>
      <path id="Path_13440-2" data-name="Path 13440" class="cls-2" d="M256,169.308V195.16h3.16a.47.47,0,0,0,.47-.47V169.308Z" transform="translate(-237.795 -149.422)"/>
      <path id="Path_13441-2" data-name="Path 13441" class="cls-16" d="M273.463,231.708a2.288,2.288,0,0,0-3.112-.876l-4.21,2.357a2.284,2.284,0,1,0,2.238,3.982l4.21-2.357A2.28,2.28,0,0,0,273.463,231.708Z" transform="translate(-245.715 -203.463)"/>
      <path id="Path_13442-2" data-name="Path 13442" class="cls-15" d="M273.463,276.243a2.288,2.288,0,0,0-3.112-.875l-4.21,2.357a2.284,2.284,0,1,0,2.238,3.982l4.21-2.357A2.28,2.28,0,0,0,273.463,276.243Z" transform="translate(-245.715 -242.767)"/>
      <path id="Path_13443-2" data-name="Path 13443" class="cls-16" d="M273.463,320.779a2.288,2.288,0,0,0-3.112-.875l-4.21,2.357a2.284,2.284,0,1,0,2.238,3.982l4.21-2.357A2.28,2.28,0,0,0,273.463,320.779Z" transform="translate(-245.715 -282.072)"/>
      <path id="Path_13444-2" data-name="Path 13444" class="cls-15" d="M273.463,365.315a2.288,2.288,0,0,0-3.112-.875l-4.21,2.357a2.284,2.284,0,1,0,2.238,3.982l4.21-2.357A2.28,2.28,0,0,0,273.463,365.315Z" transform="translate(-245.715 -321.377)"/>
      <path id="Path_13445-2" data-name="Path 13445" class="cls-1" d="M203.51,472.874H188.478a.47.47,0,0,1-.47-.47v-4.267a.47.47,0,0,1,.47-.47H203.51a.47.47,0,0,1,.47.47V472.4A.47.47,0,0,1,203.51,472.874Z" transform="translate(-177.789 -412.737)"/>
      <path id="Path_13446-2" data-name="Path 13446" class="cls-2" d="M293.087,467.667v5.207h3.16a.47.47,0,0,0,.47-.47v-4.267a.47.47,0,0,0-.47-.47Z" transform="translate(-270.526 -412.737)"/>
      <path id="Path_13447-2" data-name="Path 13447" class="cls-18" d="M134.987,22.264H103.424A2.424,2.424,0,0,1,101,19.84V2.424A2.424,2.424,0,0,1,103.424,0h31.564a2.424,2.424,0,0,1,2.424,2.424V19.84A2.424,2.424,0,0,1,134.987,22.264Z" transform="translate(-101 0)"/>
      <path id="Path_13448-2" data-name="Path 13448" class="cls-19" d="M380,0V22.264h1.214a2.424,2.424,0,0,0,2.427-2.42V2.42A2.424,2.424,0,0,0,381.214,0Z" transform="translate(-347.23 0)"/>
      <g id="Group_12737-2" data-name="Group 12737" transform="translate(6.824 4.806)">
        <path id="Path_13449-2" data-name="Path 13449" class="cls-20" d="M247.218,40.918a.881.881,0,0,0-.881.881V52.825a.881.881,0,1,0,1.762,0V41.8A.881.881,0,0,0,247.218,40.918Z" transform="translate(-236.091 -40.918)"/>
        <path id="Path_13450-2" data-name="Path 13450" class="cls-20" d="M279.219,43.695h-3.031a.881.881,0,0,0-.881.883s.008,4.117.008,5.337c0,1.471.014,5.326.014,5.365a.881.881,0,0,0,.881.878h0c.091,0,2.249-.009,3.11-.024a4.781,4.781,0,0,0,3.774-1.92,7.062,7.062,0,0,0,1.324-4.288c0-3.727-2.09-6.231-5.2-6.231Zm.073,10.677c-.5.009-1.483.015-2.2.019,0-1.236-.011-3.445-.011-4.477,0-.864,0-3.177-.006-4.458h2.148c2.537,0,3.44,2.309,3.44,4.469C282.66,52.509,281.275,54.337,279.293,54.372Z" transform="translate(-261.659 -43.369)"/>
        <path id="Path_13451-2" data-name="Path 13451" class="cls-20" d="M165.766,46.572a3.415,3.415,0,0,0-2.582-5.654h-3.2a.881.881,0,0,0-.881.881V52.825a.881.881,0,0,0,.881.881h0c.03,0,2.957-.013,3.758-.013a3.848,3.848,0,0,0,2.023-7.121Zm-2.582-3.892a1.656,1.656,0,1,1,0,3.313l-1.161,0h-1.161V42.68Zm.559,9.252c-.523,0-1.942.006-2.881.009V47.762l1.165,0h1.717a2.087,2.087,0,1,1,0,4.174Z" transform="translate(-159.1 -40.918)"/>
      </g>
    </g>
    <g id="bid-3" data-name="bid" transform="translate(111.48 122.594)">
      <path id="Path_13437-3" data-name="Path 13437" class="cls-15" d="M198.188,419.256h12.826v8.476H198.188Z" transform="translate(-186.773 -370.013)"/>
      <path id="Path_13438-3" data-name="Path 13438" class="cls-16" d="M182.495,244.831v8.738a5.3,5.3,0,0,1-5.3,5.3h-5.386a6.982,6.982,0,0,1-6.982-6.982v-16.25a2.3,2.3,0,1,1,4.6,0v5.723a3.473,3.473,0,0,0,3.473,3.473h9.595Z" transform="translate(-157.332 -205.93)"/>
      <path id="Path_13439-3" data-name="Path 13439" class="cls-17" d="M231.884,195.16h-6.32a.47.47,0,0,1-.47-.47V169.308h7.26V194.69A.47.47,0,0,1,231.884,195.16Z" transform="translate(-210.519 -149.422)"/>
      <path id="Path_13440-3" data-name="Path 13440" class="cls-2" d="M256,169.308V195.16h3.16a.47.47,0,0,0,.47-.47V169.308Z" transform="translate(-237.795 -149.422)"/>
      <path id="Path_13441-3" data-name="Path 13441" class="cls-16" d="M273.463,231.708a2.288,2.288,0,0,0-3.112-.876l-4.21,2.357a2.284,2.284,0,1,0,2.238,3.982l4.21-2.357A2.28,2.28,0,0,0,273.463,231.708Z" transform="translate(-245.715 -203.463)"/>
      <path id="Path_13442-3" data-name="Path 13442" class="cls-15" d="M273.463,276.243a2.288,2.288,0,0,0-3.112-.875l-4.21,2.357a2.284,2.284,0,1,0,2.238,3.982l4.21-2.357A2.28,2.28,0,0,0,273.463,276.243Z" transform="translate(-245.715 -242.767)"/>
      <path id="Path_13443-3" data-name="Path 13443" class="cls-16" d="M273.463,320.779a2.288,2.288,0,0,0-3.112-.875l-4.21,2.357a2.284,2.284,0,1,0,2.238,3.982l4.21-2.357A2.28,2.28,0,0,0,273.463,320.779Z" transform="translate(-245.715 -282.072)"/>
      <path id="Path_13444-3" data-name="Path 13444" class="cls-15" d="M273.463,365.315a2.288,2.288,0,0,0-3.112-.875l-4.21,2.357a2.284,2.284,0,1,0,2.238,3.982l4.21-2.357A2.28,2.28,0,0,0,273.463,365.315Z" transform="translate(-245.715 -321.377)"/>
      <path id="Path_13445-3" data-name="Path 13445" class="cls-1" d="M203.51,472.874H188.478a.47.47,0,0,1-.47-.47v-4.267a.47.47,0,0,1,.47-.47H203.51a.47.47,0,0,1,.47.47V472.4A.47.47,0,0,1,203.51,472.874Z" transform="translate(-177.789 -412.737)"/>
      <path id="Path_13446-3" data-name="Path 13446" class="cls-2" d="M293.087,467.667v5.207h3.16a.47.47,0,0,0,.47-.47v-4.267a.47.47,0,0,0-.47-.47Z" transform="translate(-270.526 -412.737)"/>
      <path id="Path_13447-3" data-name="Path 13447" class="cls-18" d="M134.987,22.264H103.424A2.424,2.424,0,0,1,101,19.84V2.424A2.424,2.424,0,0,1,103.424,0h31.564a2.424,2.424,0,0,1,2.424,2.424V19.84A2.424,2.424,0,0,1,134.987,22.264Z" transform="translate(-101 0)"/>
      <path id="Path_13448-3" data-name="Path 13448" class="cls-19" d="M380,0V22.264h1.214a2.424,2.424,0,0,0,2.427-2.42V2.42A2.424,2.424,0,0,0,381.214,0Z" transform="translate(-347.23 0)"/>
      <g id="Group_12737-3" data-name="Group 12737" transform="translate(6.824 4.806)">
        <path id="Path_13449-3" data-name="Path 13449" class="cls-20" d="M247.218,40.918a.881.881,0,0,0-.881.881V52.825a.881.881,0,1,0,1.762,0V41.8A.881.881,0,0,0,247.218,40.918Z" transform="translate(-236.091 -40.918)"/>
        <path id="Path_13450-3" data-name="Path 13450" class="cls-20" d="M279.219,43.695h-3.031a.881.881,0,0,0-.881.883s.008,4.117.008,5.337c0,1.471.014,5.326.014,5.365a.881.881,0,0,0,.881.878h0c.091,0,2.249-.009,3.11-.024a4.781,4.781,0,0,0,3.774-1.92,7.062,7.062,0,0,0,1.324-4.288c0-3.727-2.09-6.231-5.2-6.231Zm.073,10.677c-.5.009-1.483.015-2.2.019,0-1.236-.011-3.445-.011-4.477,0-.864,0-3.177-.006-4.458h2.148c2.537,0,3.44,2.309,3.44,4.469C282.66,52.509,281.275,54.337,279.293,54.372Z" transform="translate(-261.659 -43.369)"/>
        <path id="Path_13451-3" data-name="Path 13451" class="cls-20" d="M165.766,46.572a3.415,3.415,0,0,0-2.582-5.654h-3.2a.881.881,0,0,0-.881.881V52.825a.881.881,0,0,0,.881.881h0c.03,0,2.957-.013,3.758-.013a3.848,3.848,0,0,0,2.023-7.121Zm-2.582-3.892a1.656,1.656,0,1,1,0,3.313l-1.161,0h-1.161V42.68Zm.559,9.252c-.523,0-1.942.006-2.881.009V47.762l1.165,0h1.717a2.087,2.087,0,1,1,0,4.174Z" transform="translate(-159.1 -40.918)"/>
      </g>
    </g>
  </g>
</svg>
