<svg xmlns="http://www.w3.org/2000/svg" width="38" height="38" viewBox="0 0 38 38">
  <defs>
    <style>
      .cls-1, .cls-3, .cls-6 {
        fill: none;
      }

      .cls-2 {
        fill: #3bc0cb;
        font-size: 6px;
        font-family: Constantia-Bold, Constantia;
        font-weight: 700;
      }

      .cls-3 {
        stroke: #3bc0cb;
        stroke-width: 1.5px;
      }

      .cls-4, .cls-5 {
        stroke: none;
      }

      .cls-5 {
        fill: #3bc0cb;
      }
    </style>
  </defs>
  <g id="Authentic_icon" data-name="Authentic icon" transform="translate(-486.313 -2324.313)">
    <g id="Subtraction_7" data-name="Subtraction 7" class="cls-1" transform="translate(492.191 2329.401)">
      <path class="cls-4" d="M12.8,27.364A13.682,13.682,0,0,1,.184,18.972H25.428A13.684,13.684,0,0,1,12.8,27.364ZM25.612,8.853H0a13.689,13.689,0,0,1,25.612,0Z"/>
      <path class="cls-5" d="M 12.80477046966553 25.86411476135254 C 15.25222969055176 25.86411476135254 17.61264038085938 25.14167594909668 19.63027954101563 23.7752857208252 C 20.94065856933594 22.88700103759766 22.05466651916504 21.76614952087402 22.92369270324707 20.47203636169434 L 2.68760085105896 20.47203636169434 C 3.556458711624146 21.76625442504883 4.670313835144043 22.886962890625 5.980659961700439 23.77505493164063 C 7.997940063476563 25.14172554016113 10.35768032073975 25.86411476135254 12.80477046966553 25.86411476135254 M 23.21953201293945 7.35282564163208 C 22.35273551940918 5.927183628082275 21.19822883605957 4.690795421600342 19.81011009216309 3.713265419006348 C 17.7523193359375 2.265335559844971 15.32991981506348 1.500005483627319 12.80477046966553 1.500005483627319 C 10.27997970581055 1.500005483627319 7.858250141143799 2.265285491943359 5.801479816436768 3.713045358657837 C 4.412525653839111 4.690903186798096 3.257874727249146 5.92739200592041 2.391585350036621 7.35282564163208 L 23.21953201293945 7.35282564163208 M 12.80477046966553 27.36411476135254 C 10.05618000030518 27.36411476135254 7.405889987945557 26.55245590209961 5.13932991027832 25.01689529418945 C 2.927089929580688 23.51753616333008 1.213690042495728 21.42725563049316 0.1841000318527222 18.97203636169434 L 25.4276008605957 18.97203636169434 C 24.39715003967285 21.42816543579102 22.68288993835449 23.51813507080078 20.47193908691406 25.01689529418945 C 18.20451927185059 26.55245590209961 15.55379009246826 27.36411476135254 12.80477046966553 27.36411476135254 Z M 25.6117000579834 8.852825164794922 L 25.61083984375 8.852825164794922 L 2.899169793124656e-08 8.852825164794922 C 0.9709500074386597 6.278205394744873 2.678750038146973 4.077065467834473 4.937980175018311 2.486515522003174 C 7.248950004577637 0.8598254919052124 9.969090461730957 5.47332774658571e-06 12.80477046966553 5.47332774658571e-06 C 15.64089012145996 5.47332774658571e-06 18.3614501953125 0.8598254919052124 20.67329025268555 2.486515522003174 C 22.93165969848633 4.07688570022583 24.63945007324219 6.27802562713623 25.6117000579834 8.851975440979004 L 25.6117000579834 8.852825164794922 Z"/>
    </g>
    <text id="Authentic" class="cls-2" transform="translate(491.314 2345.313)"><tspan x="0" y="0">Authentic</tspan></text>
    <g id="Ellipse_364" data-name="Ellipse 364" class="cls-3" transform="translate(486.313 2324.313)">
      <circle class="cls-4" cx="19" cy="19" r="19"/>
      <circle class="cls-6" cx="19" cy="19" r="18.25"/>
    </g>
  </g>
</svg>
