<svg xmlns="http://www.w3.org/2000/svg" width="31.523" height="30.4" viewBox="0 0 31.523 30.4">
  <defs>
    <style>
      .cls-1 {
        fill: #002f33;
      }
    </style>
  </defs>
  <path id="thumbs-up" class="cls-1" d="M29.25,12.375H22.5V6.75a4.1,4.1,0,0,0-3.645-4.5,3.623,3.623,0,0,0-.855,0H16.234a1.7,1.7,0,0,0-1.609,1.316V3.7L13.5,10.834,9.518,16.875H2.25v15.75H23.625c8.37,0,10.125-4.894,10.125-9v-6.75a4.1,4.1,0,0,0-3.645-4.5,3.623,3.623,0,0,0-.855,0ZM9,30.375H4.5V19.125H9Zm22.5-6.75c0,4.6-2.5,6.75-7.875,6.75H11.25V18.338l4.5-6.671.821-6.041L16.729,4.5H18c1.62,0,2.25.63,2.25,2.25v7.875h9c1.62,0,2.25.63,2.25,2.25Z" transform="translate(-2.25 -2.225)"/>
</svg>
