<svg id="Bracelets" xmlns="http://www.w3.org/2000/svg" width="184" height="184" viewBox="0 0 184 184">
  <defs>
    <style>
      .cls-1 {
        fill: #002f33;
      }

      .cls-2, .cls-3 {
        fill: #fff;
      }

      .cls-2 {
        font-size: 25px;
        font-family: Raleway-Bold, Raleway;
        font-weight: 700;
      }
    </style>
  </defs>
  <rect id="Rectangle_3108" data-name="Rectangle 3108" class="cls-1" width="184" height="184" rx="35"/>
  <text id="Bracelets-2" data-name="Bracelets" class="cls-2" transform="translate(35 54)"><tspan x="0" y="0">Bracelets</tspan></text>
  <g id="bracelet" transform="translate(59.614 75)">
    <path id="Path_13483" data-name="Path 13483" class="cls-3" d="M40.241,5a3.241,3.241,0,1,0,3.241,3.241A3.245,3.245,0,0,0,40.241,5Zm0,4.321a1.08,1.08,0,1,1,1.08-1.08A1.082,1.082,0,0,1,40.241,9.321Z" transform="translate(0.813 -0.679)"/>
    <path id="Path_13484" data-name="Path 13484" class="cls-3" d="M24.241,11.482A3.241,3.241,0,1,0,21,8.241,3.245,3.245,0,0,0,24.241,11.482Zm0-4.321a1.08,1.08,0,1,1-1.08,1.08A1.082,1.082,0,0,1,24.241,7.161Z" transform="translate(-0.473 -0.679)"/>
    <path id="Path_13485" data-name="Path 13485" class="cls-3" d="M50.528,7.467a7.557,7.557,0,1,0-3.88,7.747,23.768,23.768,0,1,1-24.475,0,7.564,7.564,0,1,0-3.88-7.747,32.411,32.411,0,1,0,32.234,0Zm9.308,23.046A17.234,17.234,0,0,1,64.661,35.6a30.177,30.177,0,0,1-1.041,7.827,23.875,23.875,0,0,0-3.353-6c.043-.616.073-1.235.073-1.86a25.816,25.816,0,0,0-.5-5.058ZM59,27.39a26.047,26.047,0,0,0-3.049-6.224,17.251,17.251,0,0,1,6.4,2.849A30.212,30.212,0,0,1,64.4,31.653,23.843,23.843,0,0,0,59,27.39ZM37.652,8.563a5.4,5.4,0,1,1,5.4,5.4A5.408,5.408,0,0,1,37.652,8.563Zm10.836,5.246a7.544,7.544,0,0,0,1.994-3.855A30.263,30.263,0,0,1,60.607,20.469,23.9,23.9,0,0,0,53.991,18.6,25.911,25.911,0,0,0,48.488,13.809ZM59.841,40.634a17.236,17.236,0,0,1,2.5,6.538,30.259,30.259,0,0,1-3.955,6.811,23.9,23.9,0,0,0-.8-6.8,25.771,25.771,0,0,0,2.255-6.546Zm-3.876,9.332a17.237,17.237,0,0,1-.182,6.993,30.449,30.449,0,0,1-6.268,4.805,23.906,23.906,0,0,0,1.866-6.614A26.168,26.168,0,0,0,55.964,49.966Zm-10,13.559a29.965,29.965,0,0,1-7.628,2.034,23.887,23.887,0,0,0,4.253-5.387,25.856,25.856,0,0,0,6.23-3.053A17.259,17.259,0,0,1,45.961,63.525ZM39.466,61a17.24,17.24,0,0,1-5.086,4.82,30.176,30.176,0,0,1-7.827-1.041,23.875,23.875,0,0,0,6-3.353c.615.043,1.234.073,1.859.073A25.985,25.985,0,0,0,39.466,61Zm-16.656,2.5a30.319,30.319,0,0,1-6.821-3.963c.254.01.506.024.764.024a24.554,24.554,0,0,0,6.048-.821A25.733,25.733,0,0,0,29.348,61,17.241,17.241,0,0,1,22.81,63.506ZM4.423,39.493A23.886,23.886,0,0,0,9.81,43.747a25.855,25.855,0,0,0,3.053,6.23,17.238,17.238,0,0,1-6.407-2.854,30.029,30.029,0,0,1-2.033-7.63ZM8.98,40.627A17.208,17.208,0,0,1,4.162,35.54,30.237,30.237,0,0,1,5.2,27.719a23.9,23.9,0,0,0,3.349,5.991c-.044.617-.071,1.238-.071,1.863A25.983,25.983,0,0,0,8.98,40.627Zm.005-10.111a17.248,17.248,0,0,1-2.506-6.534,30.3,30.3,0,0,1,3.954-6.832,23.887,23.887,0,0,0,.8,6.818A25.925,25.925,0,0,0,8.986,30.516ZM25.768,3.161a5.4,5.4,0,1,1-5.4,5.4A5.408,5.408,0,0,1,25.768,3.161ZM18.339,9.954a7.532,7.532,0,0,0,1.994,3.855,25.964,25.964,0,0,0-7.475,7.375,17.266,17.266,0,0,1,.18-7,30.282,30.282,0,0,1,5.3-4.226ZM8.219,50.676a23.9,23.9,0,0,0,6.614,1.866,26.085,26.085,0,0,0,5.186,4.584,17.244,17.244,0,0,1-6.994-.182,30.4,30.4,0,0,1-4.805-6.268Z" transform="translate(-2 -1)"/>
  </g>
</svg>
