<svg id="bracelet" xmlns="http://www.w3.org/2000/svg" width="16.387" height="16.933" viewBox="0 0 16.387 16.933">
  <defs>
    <style>
      .cls-1 {
        fill: #002f33;
      }
    </style>
  </defs>
  <path id="Path_13483" data-name="Path 13483" class="cls-1" d="M37.819,5a.819.819,0,1,0,.819.819A.82.82,0,0,0,37.819,5Zm0,1.092a.273.273,0,1,1,.273-.273A.274.274,0,0,1,37.819,6.092Z" transform="translate(-27.441 -3.908)"/>
  <path id="Path_13484" data-name="Path 13484" class="cls-1" d="M21.819,6.639A.819.819,0,1,0,21,5.819.82.82,0,0,0,21.819,6.639Zm0-1.092a.273.273,0,1,1-.273.273A.274.274,0,0,1,21.819,5.546Z" transform="translate(-15.811 -3.908)"/>
  <path id="Path_13485" data-name="Path 13485" class="cls-1" d="M14.268,2.635a1.91,1.91,0,1,0-.981,1.959,6.009,6.009,0,1,1-6.187,0,1.912,1.912,0,1,0-.981-1.959,8.194,8.194,0,1,0,8.149,0Zm2.353,5.826a4.357,4.357,0,0,1,1.22,1.287,7.629,7.629,0,0,1-.263,1.979,6.036,6.036,0,0,0-.848-1.517c.011-.156.019-.312.019-.47a6.526,6.526,0,0,0-.127-1.279Zm-.211-.79A6.585,6.585,0,0,0,15.639,6.1a4.361,4.361,0,0,1,1.619.72,7.638,7.638,0,0,1,.517,1.931A6.028,6.028,0,0,0,16.41,7.671Zm-5.4-4.76a1.366,1.366,0,1,1,1.366,1.366A1.367,1.367,0,0,1,11.013,2.912Zm2.739,1.326a1.907,1.907,0,0,0,.5-.974,7.651,7.651,0,0,1,2.559,2.658,6.042,6.042,0,0,0-1.672-.472A6.55,6.55,0,0,0,13.752,4.238Zm2.87,6.782a4.357,4.357,0,0,1,.633,1.653,7.65,7.65,0,0,1-1,1.722,6.041,6.041,0,0,0-.2-1.72,6.515,6.515,0,0,0,.57-1.655Zm-.98,2.359a4.357,4.357,0,0,1-.046,1.768,7.7,7.7,0,0,1-1.585,1.215,6.043,6.043,0,0,0,.472-1.672A6.615,6.615,0,0,0,15.642,13.379Zm-2.529,3.428a7.575,7.575,0,0,1-1.928.514,6.039,6.039,0,0,0,1.075-1.362,6.536,6.536,0,0,0,1.575-.772A4.363,4.363,0,0,1,13.113,16.806Zm-1.642-.638a4.358,4.358,0,0,1-1.286,1.218,7.628,7.628,0,0,1-1.979-.263,6.036,6.036,0,0,0,1.517-.848c.155.011.312.019.47.019A6.569,6.569,0,0,0,11.471,16.169ZM7.261,16.8a7.664,7.664,0,0,1-1.724-1c.064,0,.128.006.193.006A6.207,6.207,0,0,0,7.258,15.6a6.505,6.505,0,0,0,1.655.57A4.358,4.358,0,0,1,7.261,16.8Zm-4.648-6.07a6.039,6.039,0,0,0,1.362,1.075,6.536,6.536,0,0,0,.772,1.575,4.358,4.358,0,0,1-1.62-.722,7.591,7.591,0,0,1-.514-1.929Zm1.152.287A4.35,4.35,0,0,1,2.547,9.732,7.644,7.644,0,0,1,2.81,7.754a6.041,6.041,0,0,0,.847,1.514c-.011.156-.018.313-.018.471A6.569,6.569,0,0,0,3.765,11.018Zm0-2.556A4.36,4.36,0,0,1,3.132,6.81a7.661,7.661,0,0,1,1-1.727,6.039,6.039,0,0,0,.2,1.724A6.554,6.554,0,0,0,3.766,8.462ZM8.009,1.546A1.366,1.366,0,1,1,6.643,2.912,1.367,1.367,0,0,1,8.009,1.546ZM6.131,3.264a1.9,1.9,0,0,0,.5.974A6.564,6.564,0,0,0,4.745,6.1a4.365,4.365,0,0,1,.046-1.77,7.655,7.655,0,0,1,1.34-1.068ZM3.572,13.558a6.043,6.043,0,0,0,1.672.472,6.594,6.594,0,0,0,1.311,1.159,4.359,4.359,0,0,1-1.768-.046,7.686,7.686,0,0,1-1.215-1.585Z" transform="translate(-2 -1)"/>
</svg>
