<svg xmlns="http://www.w3.org/2000/svg" width="15.819" height="15.202" viewBox="0 0 15.819 15.202">
  <defs>
    <style>
      .cls-1 {
        fill: #606060;
      }
    </style>
  </defs>
  <g id="shopping-cart-line" transform="translate(-2.7 -2.575)">
    <path id="Path_13283" data-name="Path 13283" class="cls-1" d="M13.4,28.662A1.162,1.162,0,1,1,12.242,27.5,1.162,1.162,0,0,1,13.4,28.662Z" transform="translate(-4.05 -12.048)"/>
    <path id="Path_13284" data-name="Path 13284" class="cls-1" d="M27.075,28.662A1.162,1.162,0,1,1,25.912,27.5,1.162,1.162,0,0,1,27.075,28.662Z" transform="translate(-10.658 -12.048)"/>
    <path id="Path_13285" data-name="Path 13285" class="cls-1" d="M18.4,4.019a.517.517,0,0,0-.4-.191H7.241l.336,1.033h9.744l-1.379,6.2H8.192L5.831,3.585a.517.517,0,0,0-.341-.336L3.372,2.6a.519.519,0,0,0-.3.992l1.855.568L7.293,11.65l-.847.692-.067.067a1.374,1.374,0,0,0-.041,1.751,1.421,1.421,0,0,0,1.168.517h8.623a.517.517,0,1,0,0-1.033H7.422a.346.346,0,0,1-.289-.517l1.245-1.033h7.977a.517.517,0,0,0,.517-.4l1.638-7.233a.517.517,0,0,0-.114-.439Z" transform="translate(0 0)"/>
  </g>
</svg>
