<svg id="Cart_Icon" data-name="Cart Icon" xmlns="http://www.w3.org/2000/svg" width="20.812" height="20" viewBox="0 0 20.812 20">
  <defs>
    <style>
      .cls-1 {
        fill: #fff;
      }
    </style>
  </defs>
  <path id="Path_13283" data-name="Path 13283" class="cls-1" d="M14.086,29a1.5,1.5,0,1,1-1.5-1.5A1.5,1.5,0,0,1,14.086,29Z" transform="translate(-5.368 -10.506)"/>
  <path id="Path_13284" data-name="Path 13284" class="cls-1" d="M27.756,29a1.5,1.5,0,1,1-1.5-1.5A1.5,1.5,0,0,1,27.756,29Z" transform="translate(-9.663 -10.506)"/>
  <path id="Path_13285" data-name="Path 13285" class="cls-1" d="M23.35,4.483a.679.679,0,0,0-.523-.253H8.675L9.117,5.6H21.936l-1.815,8.192H9.925L6.819,3.91a.681.681,0,0,0-.449-.444l-2.787-.86a.685.685,0,0,0-.4,1.311l2.44.751,3.12,9.9-1.115.915-.088.089a1.822,1.822,0,0,0-.054,2.314,1.866,1.866,0,0,0,1.536.683H20.366a.683.683,0,0,0,0-1.365H8.913a.457.457,0,0,1-.381-.683l1.638-1.365H20.665a.68.68,0,0,0,.68-.532L23.5,5.064a.685.685,0,0,0-.15-.58Z" transform="translate(-2.7 -2.575)"/>
</svg>
