<svg id="Chains" xmlns="http://www.w3.org/2000/svg" width="183" height="184" viewBox="0 0 183 184">
  <defs>
    <style>
      .cls-1 {
        fill: #f6f6f6;
      }

      .cls-2, .cls-3 {
        fill: #002f33;
      }

      .cls-2 {
        font-size: 25px;
        font-family: Raleway-Bold, Raleway;
        font-weight: 700;
      }
    </style>
  </defs>
  <rect id="Rectangle_3105" data-name="Rectangle 3105" class="cls-1" width="183" height="184" rx="35"/>
  <text id="Chains-2" data-name="Chains" class="cls-2" transform="translate(51 54)"><tspan x="0" y="0">Chains</tspan></text>
  <path id="chain" class="cls-3" d="M84.389,4.921v-3.6A1.321,1.321,0,0,0,83.068,0H77.229a1.321,1.321,0,0,0-1.321,1.321v3.6A10.051,10.051,0,0,0,70.125,14v4.792a10.051,10.051,0,0,0,4.556,8.4,10.053,10.053,0,0,0-4.556,8.4v4.792a9.981,9.981,0,0,0,.246,2.2,10.08,10.08,0,0,0-1.982-.2,9.949,9.949,0,0,0-7.112,2.958l-3.376,3.4a9.972,9.972,0,0,0-1.972,2.834,10.051,10.051,0,0,0-8.446-4.634H42.69a10.052,10.052,0,0,0-8.446,4.633,9.99,9.99,0,0,0-1.972-2.834l-3.377-3.4a9.948,9.948,0,0,0-7.112-2.958,10.067,10.067,0,0,0-1.981.2,9.979,9.979,0,0,0,.246-2.2V35.587a10.05,10.05,0,0,0-4.556-8.4,10.052,10.052,0,0,0,4.556-8.4V14a10.05,10.05,0,0,0-5.784-9.079v-3.6A1.321,1.321,0,0,0,12.943,0H7.1A1.321,1.321,0,0,0,5.784,1.321v3.6A10.051,10.051,0,0,0,0,14v4.792a10.051,10.051,0,0,0,4.556,8.4A10.051,10.051,0,0,0,0,35.587v4.792A10.013,10.013,0,0,0,12,50.2a10,10,0,0,0,2.665,9.253l3.376,3.4A10.025,10.025,0,0,0,33.6,61.2h.01a10.051,10.051,0,0,0,9.079,5.783h4.792A10.051,10.051,0,0,0,56.562,61.2h.01a10.031,10.031,0,0,0,15.558,1.659l3.376-3.4A10,10,0,0,0,78.17,50.2a10.014,10.014,0,0,0,12-9.825V35.587a10.053,10.053,0,0,0-4.556-8.4,10.051,10.051,0,0,0,4.556-8.4V14a10.051,10.051,0,0,0-5.784-9.079Zm-2.7,30.666v4.792a1.532,1.532,0,0,1-.205.762,4.163,4.163,0,0,0-2.881-1.772V35.587a1.591,1.591,0,0,1,.009-.163,4.225,4.225,0,0,0,3.068,0,1.419,1.419,0,0,1,.01.163Zm-8.747,14.9a1.6,1.6,0,1,1-2.283-2.243L76.924,42.4a1.613,1.613,0,0,1,2.259.078,1.636,1.636,0,0,1-.078,2.259l-6.159,5.749Zm-11.091,7a1.642,1.642,0,0,1-1.5,1.072H51.763a1.6,1.6,0,0,1,.025-3.2h8.564a1.62,1.62,0,0,1,1.6,1.6,1.525,1.525,0,0,1-.1.527Zm-22.278.52a1.606,1.606,0,0,1-1.167.55H29.821a1.6,1.6,0,1,1,0-3.2h8.564a1.619,1.619,0,0,1,1.6,1.6,1.583,1.583,0,0,1-.407,1.047ZM17.624,50.79c-.105-.058-6.556-6.055-6.556-6.055l0,0A1.6,1.6,0,0,1,13.249,42.4l6.261,5.843.01.01a1.62,1.62,0,0,1,.068,2.249,1.654,1.654,0,0,1-1.964.29Zm-7.6-36.665a4.216,4.216,0,0,0,1.535-.288,1.607,1.607,0,0,1,.009.163v4.793a1.608,1.608,0,0,1-.009.163,4.227,4.227,0,0,0-3.068,0,1.608,1.608,0,0,1-.009-.163V14a1.619,1.619,0,0,1,.009-.163,4.223,4.223,0,0,0,1.533.288Zm1.59,17.509a1.641,1.641,0,0,1-1.59,1.436,1.62,1.62,0,0,1-1.6-1.6V22.908a1.6,1.6,0,1,1,3.2,0v8.564a1.418,1.418,0,0,1-.009.162ZM8.481,40.379s0-4.9.009-4.955a4.227,4.227,0,0,0,3.068,0c.006.054.009,3.945.009,3.945a4.26,4.26,0,0,0-2.509,1.3,4.188,4.188,0,0,0-.372.468,1.532,1.532,0,0,1-.205-.762ZM21.52,52.3a4.213,4.213,0,0,0,.84-1.337,1.533,1.533,0,0,1,.517.342l3.362,3.387a4.21,4.21,0,0,0-.658,2.264c0,.105.005.21.013.313a1.55,1.55,0,0,1-.44.065,1.524,1.524,0,0,1-1.09-.453l-3.377-3.4a1.551,1.551,0,0,1-.255-.343A4.229,4.229,0,0,0,21.52,52.3Zm20.829,3.152a1.522,1.522,0,0,1,.341-.039h4.792a1.55,1.55,0,0,1,.341.039,4.239,4.239,0,0,0,0,3.008,1.511,1.511,0,0,1-.341.039H42.69a1.565,1.565,0,0,1-.341-.039,4.227,4.227,0,0,0,0-3.008Zm21.585-.76L67.3,51.308a1.513,1.513,0,0,1,.517-.342,4.186,4.186,0,0,0,1.928,2.173,1.55,1.55,0,0,1-.255.343l-3.377,3.4a1.526,1.526,0,0,1-1.09.453,1.549,1.549,0,0,1-.44-.064c.008-.1.013-.208.013-.313a4.21,4.21,0,0,0-.658-2.264Zm16.215-40.57a4.208,4.208,0,0,0,1.533-.288,1.6,1.6,0,0,1,.009.163v4.792a1.609,1.609,0,0,1-.009.164,4.216,4.216,0,0,0-3.068,0,1.624,1.624,0,0,1-.009-.164V14a1.6,1.6,0,0,1,.009-.163A4.223,4.223,0,0,0,80.149,14.125Zm1.589,17.509a1.6,1.6,0,0,1-3.188-.163V22.908a1.619,1.619,0,0,1,1.6-1.6,1.638,1.638,0,0,1,1.6,1.6v8.564A1.417,1.417,0,0,1,81.738,31.634ZM78.55,2.642h3.2V9.885a1.6,1.6,0,1,1-3.2,0ZM72.767,18.792V14a7.4,7.4,0,0,1,3.142-6.039V9.885A4.264,4.264,0,0,0,76.472,12a4.162,4.162,0,0,0-.508,2v4.792a4.162,4.162,0,0,0,.508,2,4.255,4.255,0,0,0-.563,2.115v1.923a7.4,7.4,0,0,1-3.142-6.038Zm0,16.795a7.4,7.4,0,0,1,3.142-6.039v1.924a4.28,4.28,0,0,0,.563,2.115,4.162,4.162,0,0,0-.508,2v4.269a4.248,4.248,0,0,0-.843.611L73.05,42.4a7.357,7.357,0,0,1-.283-2.02ZM59.776,50.6l3.376-3.4a7.327,7.327,0,0,1,5.237-2.177,7.419,7.419,0,0,1,1.655.187l-1.183,1.1a4.267,4.267,0,0,0-1.194,1.966,4.141,4.141,0,0,0-2.246,1.172s-3.479,3.508-3.528,3.562l-.008,0a4.222,4.222,0,0,0-1.533-.288H58.306A7.331,7.331,0,0,1,59.776,50.6ZM42.69,49.577h4.792a7.4,7.4,0,0,1,6.039,3.142H51.788a4.252,4.252,0,0,0-2.21.623,4.173,4.173,0,0,0-2.1-.567H42.69a4.175,4.175,0,0,0-2.1.567,4.243,4.243,0,0,0-2.209-.623H36.652a7.4,7.4,0,0,1,6.038-3.142ZM21.784,45.018a7.327,7.327,0,0,1,5.237,2.177L30.4,50.6a7.337,7.337,0,0,1,1.469,2.122H29.821a4.269,4.269,0,0,0-1.534.288l-.008,0c-.049-.055-.1-.109-.151-.162l-3.377-3.4a4.134,4.134,0,0,0-2.245-1.172,4.284,4.284,0,0,0-1.193-1.966l-1.184-1.1A7.458,7.458,0,0,1,21.784,45.018Zm-4.378-9.431v4.792a7.356,7.356,0,0,1-.283,2.02l-2.071-1.932a4.325,4.325,0,0,0-.843-.611V35.587a4.162,4.162,0,0,0-.508-2,4.253,4.253,0,0,0,.563-2.115V29.548a7.4,7.4,0,0,1,3.142,6.039Zm0-21.587v4.792a7.4,7.4,0,0,1-3.142,6.039V22.908a4.262,4.262,0,0,0-.563-2.115,4.16,4.16,0,0,0,.508-2V14a4.16,4.16,0,0,0-.508-2,4.255,4.255,0,0,0,.563-2.115V7.961A7.4,7.4,0,0,1,17.406,14ZM8.426,2.642h3.2V9.885a1.6,1.6,0,1,1-3.2,0ZM2.642,18.792V14A7.4,7.4,0,0,1,5.784,7.962V9.885A4.276,4.276,0,0,0,6.347,12a4.16,4.16,0,0,0-.508,2v4.792a4.162,4.162,0,0,0,.508,2c-.017.03-.032.06-.048.089a4.286,4.286,0,0,0-.515,2.025v1.924a7.4,7.4,0,0,1-3.142-6.039Zm7.382,28.969a7.391,7.391,0,0,1-7.382-7.383V35.587a7.4,7.4,0,0,1,3.142-6.039v1.924a4.253,4.253,0,0,0,.563,2.115,4.162,4.162,0,0,0-.508,2v4.792a4.194,4.194,0,0,0,2.1,3.626,4.3,4.3,0,0,0,1.324,2.662l1.161,1.084c-.133.007-.268.011-.4.011ZM25.158,63.175A7.33,7.33,0,0,1,19.919,61l-3.376-3.4a7.36,7.36,0,0,1-2.089-6.087l1.073,1a4.261,4.261,0,0,0,2.252,1.09,4.167,4.167,0,0,0,1.033,1.743l3.377,3.4a4.15,4.15,0,0,0,2.966,1.234,4.2,4.2,0,0,0,1.452-.259l.012.012a4.29,4.29,0,0,0,3.2,1.467h.367a7.333,7.333,0,0,1-5.03,1.975Zm22.324,1.166H42.69A7.4,7.4,0,0,1,36.651,61.2h1.743a4.559,4.559,0,0,0,1.145-.16,4.234,4.234,0,0,0,1.055-.462,4.18,4.18,0,0,0,2.1.567h4.792a4.182,4.182,0,0,0,2.1-.567,4.244,4.244,0,0,0,2.2.622h1.743a7.4,7.4,0,0,1-6.038,3.141ZM73.631,57.6,70.254,61a7.393,7.393,0,0,1-10.269.2,5.166,5.166,0,0,0,1.724-.224,4.308,4.308,0,0,0,1.846-1.243l.012-.013a4.189,4.189,0,0,0,4.418-.975l3.376-3.4A4.17,4.17,0,0,0,72.394,53.6l.046-.009a4.264,4.264,0,0,0,2.206-1.081l1.073-1A7.362,7.362,0,0,1,73.631,57.6Zm13.9-22.009v4.792a7.391,7.391,0,0,1-7.382,7.383c-.135,0-.269,0-.4-.011l1.161-1.084a4.293,4.293,0,0,0,1.324-2.662,4.193,4.193,0,0,0,2.1-3.626V35.587a4.162,4.162,0,0,0-.508-2,4.262,4.262,0,0,0,.563-2.115V29.548a7.4,7.4,0,0,1,3.142,6.039Zm0-16.794a7.4,7.4,0,0,1-3.142,6.039V22.908a4.271,4.271,0,0,0-.563-2.115,4.162,4.162,0,0,0,.508-2V14a4.159,4.159,0,0,0-.508-2,4.264,4.264,0,0,0,.563-2.115V7.962A7.4,7.4,0,0,1,87.531,14Zm0,0" transform="translate(46 75.017)"/>
</svg>
