<svg xmlns="http://www.w3.org/2000/svg" width="19.578" height="14.543" viewBox="0 0 19.578 14.543">
  <defs>
    <style>
      .cls-1 {
        fill: #002f33;
      }
    </style>
  </defs>
  <path id="chain" class="cls-1" d="M18.323,1.068V.287A.287.287,0,0,0,18.036,0H16.768a.287.287,0,0,0-.287.287v.782A2.182,2.182,0,0,0,15.226,3.04V4.08A2.182,2.182,0,0,0,16.215,5.9a2.183,2.183,0,0,0-.989,1.823V8.767a2.167,2.167,0,0,0,.053.477,2.189,2.189,0,0,0-.43-.044,2.16,2.16,0,0,0-1.544.642l-.733.738a2.165,2.165,0,0,0-.428.615,2.182,2.182,0,0,0-1.834-1.006H9.269A2.182,2.182,0,0,0,7.435,11.2a2.169,2.169,0,0,0-.428-.615l-.733-.738A2.16,2.16,0,0,0,4.73,9.2a2.186,2.186,0,0,0-.43.044,2.167,2.167,0,0,0,.053-.477V7.727A2.182,2.182,0,0,0,3.364,5.9,2.182,2.182,0,0,0,4.353,4.08V3.04A2.182,2.182,0,0,0,3.1,1.069V.287A.287.287,0,0,0,2.81,0H1.543a.287.287,0,0,0-.287.287v.782A2.182,2.182,0,0,0,0,3.04V4.08A2.182,2.182,0,0,0,.989,5.9,2.182,2.182,0,0,0,0,7.727V8.767A2.174,2.174,0,0,0,2.606,10.9a2.171,2.171,0,0,0,.579,2.009l.733.738a2.177,2.177,0,0,0,3.378-.36h0a2.182,2.182,0,0,0,1.971,1.256h1.041a2.182,2.182,0,0,0,1.971-1.256h0a2.178,2.178,0,0,0,3.378.36l.733-.738a2.171,2.171,0,0,0,.579-2.009,2.174,2.174,0,0,0,2.606-2.133V7.727A2.183,2.183,0,0,0,18.589,5.9a2.182,2.182,0,0,0,.989-1.823V3.04a2.182,2.182,0,0,0-1.256-1.971Zm-.586,6.658V8.767a.333.333,0,0,1-.045.166.9.9,0,0,0-.626-.385V7.727a.345.345,0,0,1,0-.035.917.917,0,0,0,.666,0,.308.308,0,0,1,0,.035Zm-1.9,3.234a.348.348,0,1,1-.5-.487L16.7,9.205a.35.35,0,0,1,.491.017.355.355,0,0,1-.017.491l-1.337,1.248Zm-2.408,1.52a.357.357,0,0,1-.326.233H11.239a.347.347,0,0,1,.005-.694H13.1a.352.352,0,0,1,.347.347.331.331,0,0,1-.021.114Zm-4.837.113a.349.349,0,0,1-.253.12H6.475a.347.347,0,1,1,0-.694H8.334a.352.352,0,0,1,.347.347.344.344,0,0,1-.088.227ZM3.827,11.028C3.8,11.015,2.4,9.713,2.4,9.713h0a.347.347,0,0,1,.474-.507l1.359,1.269,0,0a.352.352,0,0,1,.015.488.359.359,0,0,1-.426.063ZM2.176,3.067A.915.915,0,0,0,2.51,3a.349.349,0,0,1,0,.035V4.08a.349.349,0,0,1,0,.035.918.918,0,0,0-.666,0,.349.349,0,0,1,0-.035V3.04a.351.351,0,0,1,0-.035.917.917,0,0,0,.333.063Zm.345,3.8a.356.356,0,0,1-.345.312.352.352,0,0,1-.347-.347V4.974a.347.347,0,1,1,.694,0v1.86a.308.308,0,0,1,0,.035Zm-.68,1.9s0-1.064,0-1.076a.918.918,0,0,0,.666,0c0,.012,0,.857,0,.857a.925.925,0,0,0-.545.283.909.909,0,0,0-.081.1.333.333,0,0,1-.045-.166Zm2.831,2.589a.915.915,0,0,0,.182-.29.333.333,0,0,1,.112.074l.73.735a.914.914,0,0,0-.143.492c0,.023,0,.046,0,.068a.336.336,0,0,1-.1.014.331.331,0,0,1-.237-.1l-.733-.738a.337.337,0,0,1-.055-.074.918.918,0,0,0,.236-.182Zm4.522.684a.331.331,0,0,1,.074-.009h1.041a.337.337,0,0,1,.074.008.92.92,0,0,0,0,.653.328.328,0,0,1-.074.009H9.269a.34.34,0,0,1-.074-.009.918.918,0,0,0,0-.653Zm4.686-.165.73-.735a.328.328,0,0,1,.112-.074.909.909,0,0,0,.419.472.336.336,0,0,1-.055.074l-.733.738a.331.331,0,0,1-.237.1.336.336,0,0,1-.1-.014c0-.023,0-.045,0-.068a.914.914,0,0,0-.143-.492ZM17.4,3.067A.914.914,0,0,0,17.735,3a.346.346,0,0,1,0,.035V4.08a.349.349,0,0,1,0,.036.915.915,0,0,0-.666,0,.353.353,0,0,1,0-.036V3.04a.348.348,0,0,1,0-.035A.917.917,0,0,0,17.4,3.067Zm.345,3.8a.347.347,0,0,1-.692-.035V4.974a.352.352,0,0,1,.347-.347.356.356,0,0,1,.347.347V6.833A.308.308,0,0,1,17.747,6.868ZM17.055.574h.694V2.146a.347.347,0,1,1-.694,0ZM15.8,4.08V3.04a1.607,1.607,0,0,1,.682-1.311v.418a.926.926,0,0,0,.122.459.9.9,0,0,0-.11.434V4.08a.9.9,0,0,0,.11.434.924.924,0,0,0-.122.459v.417A1.607,1.607,0,0,1,15.8,4.08Zm0,3.646a1.607,1.607,0,0,1,.682-1.311v.418a.929.929,0,0,0,.122.459.9.9,0,0,0-.11.434v.927a.922.922,0,0,0-.183.133l-.45.42a1.6,1.6,0,0,1-.062-.439Zm-2.821,3.259.733-.738a1.591,1.591,0,0,1,1.137-.473,1.611,1.611,0,0,1,.359.041l-.257.24a.926.926,0,0,0-.259.427.9.9,0,0,0-.488.254s-.755.762-.766.773h0a.917.917,0,0,0-.333-.063H12.66a1.592,1.592,0,0,1,.319-.461Zm-3.71-.221H10.31a1.607,1.607,0,0,1,1.311.682h-.376a.923.923,0,0,0-.48.135.906.906,0,0,0-.455-.123H9.269a.907.907,0,0,0-.455.123.921.921,0,0,0-.48-.135H7.958a1.607,1.607,0,0,1,1.311-.682ZM4.73,9.774a1.591,1.591,0,0,1,1.137.473l.733.738a1.593,1.593,0,0,1,.319.461H6.475a.927.927,0,0,0-.333.063h0l-.033-.035-.733-.738a.9.9,0,0,0-.488-.254.93.93,0,0,0-.259-.427l-.257-.24A1.619,1.619,0,0,1,4.73,9.774Zm-.95-2.048V8.767a1.6,1.6,0,0,1-.062.439l-.45-.42a.939.939,0,0,0-.183-.133V7.727a.9.9,0,0,0-.11-.434A.923.923,0,0,0,3.1,6.833V6.415a1.607,1.607,0,0,1,.682,1.311Zm0-4.687V4.08A1.607,1.607,0,0,1,3.1,5.391V4.974a.925.925,0,0,0-.122-.459.9.9,0,0,0,.11-.434V3.04a.9.9,0,0,0-.11-.434A.924.924,0,0,0,3.1,2.146V1.729A1.607,1.607,0,0,1,3.779,3.04ZM1.829.574h.694V2.146a.347.347,0,1,1-.694,0ZM.574,4.08V3.04a1.607,1.607,0,0,1,.682-1.311v.418a.928.928,0,0,0,.122.459.9.9,0,0,0-.11.434V4.08a.9.9,0,0,0,.11.434l-.01.019a.931.931,0,0,0-.112.44v.418A1.607,1.607,0,0,1,.574,4.08Zm1.6,6.29a1.6,1.6,0,0,1-1.6-1.6V7.727a1.607,1.607,0,0,1,.682-1.311v.418a.923.923,0,0,0,.122.459.9.9,0,0,0-.11.434V8.767a.911.911,0,0,0,.457.787.934.934,0,0,0,.287.578l.252.235-.087,0Zm3.286,3.346a1.591,1.591,0,0,1-1.138-.473l-.733-.739a1.6,1.6,0,0,1-.454-1.322l.233.217a.925.925,0,0,0,.489.237.9.9,0,0,0,.224.379l.733.739a.9.9,0,0,0,.644.268.911.911,0,0,0,.315-.056l0,0a.931.931,0,0,0,.7.319h.08a1.592,1.592,0,0,1-1.092.429Zm4.847.253H9.269a1.607,1.607,0,0,1-1.311-.682h.379a.99.99,0,0,0,.249-.035.919.919,0,0,0,.229-.1.908.908,0,0,0,.455.123H10.31a.908.908,0,0,0,.455-.123.921.921,0,0,0,.478.135h.378a1.607,1.607,0,0,1-1.311.682Zm5.677-1.465-.733.738a1.605,1.605,0,0,1-2.23.044,1.122,1.122,0,0,0,.374-.049.935.935,0,0,0,.4-.27l0,0a.91.91,0,0,0,.959-.212l.733-.738a.905.905,0,0,0,.224-.379l.01,0a.926.926,0,0,0,.479-.235l.233-.217a1.6,1.6,0,0,1-.453,1.322ZM19,7.727V8.767a1.6,1.6,0,0,1-1.6,1.6l-.087,0,.252-.235a.932.932,0,0,0,.287-.578.91.91,0,0,0,.457-.787V7.727a.9.9,0,0,0-.11-.434.925.925,0,0,0,.122-.459V6.415A1.607,1.607,0,0,1,19,7.727ZM19,4.08a1.607,1.607,0,0,1-.682,1.311V4.974a.927.927,0,0,0-.122-.459.9.9,0,0,0,.11-.434V3.04a.9.9,0,0,0-.11-.434.926.926,0,0,0,.122-.459V1.729A1.607,1.607,0,0,1,19,3.04Zm0,0" transform="translate(0)"/>
</svg>
