<svg xmlns="http://www.w3.org/2000/svg" width="15.208" height="15.145" viewBox="0 0 15.208 15.145">
  <defs>
    <style>
      .cls-1 {
        fill: #fff;
      }

      .cls-2 {
        fill: #3bc0cb;
      }
    </style>
  </defs>
  <g id="Verified_Icon" data-name="Verified Icon" transform="translate(0 0)">
    <path id="Path_13270" data-name="Path 13270" class="cls-1" d="M7.6,15.145a7.6,7.6,0,0,0,7.6-7.572,7.477,7.477,0,0,0-.3-2.111.633.633,0,0,0-1.216.354,6.242,6.242,0,0,1,.25,1.757,6.321,6.321,0,1,1-2.8-5.241.632.632,0,1,0,.709-1.046A7.585,7.585,0,1,0,7.6,15.145Zm0,0" transform="translate(0 -0.001)"/>
    <path id="Path_13271" data-name="Path 13271" class="cls-2" d="M121.694,32.188l-6.522,6.495-2.087-2.078a.636.636,0,0,0-.9,0,.629.629,0,0,0,0,.892l2.535,2.524a.635.635,0,0,0,.9,0l6.97-6.941a.629.629,0,0,0,0-.892.636.636,0,0,0-.9,0Zm0,0" transform="translate(-107.567 -30.742)"/>
  </g>
</svg>
