<svg xmlns="http://www.w3.org/2000/svg" width="25.487" height="22.719" viewBox="0 0 25.487 22.719">
  <g id="credit-cards-payment" transform="translate(0 -33.234)">
    <g id="Group_12765" data-name="Group 12765" transform="translate(0 33.234)">
      <path id="Path_13505" data-name="Path 13505" d="M189.121,36.564l-15.61-3.3a1.231,1.231,0,0,0-1.455.947l-.3,1.906,18.011,3.811.3-1.906A1.231,1.231,0,0,0,189.121,36.564Z" transform="translate(-164.607 -33.234)" fill="#002f33"/>
      <path id="Path_13506" data-name="Path 13506" d="M17.95,168.648a1.243,1.243,0,0,0-1.525-.863l-2.963.823L6.476,167.13l-.768,3.63-4.8,1.332a1.242,1.242,0,0,0-.862,1.525l2.705,9.748a1.243,1.243,0,0,0,1.525.862l15.518-4.306a1.243,1.243,0,0,0,.862-1.525l-.464-1.673,1.74.368a1.231,1.231,0,0,0,1.455-.947l1.1-5.2-6.269-1.327Zm1.792,4.955.384-1.814a.507.507,0,0,1,.6-.389l1.814.384a.506.506,0,0,1,.39.6l-.384,1.814a.506.506,0,0,1-.6.389l-1.814-.384A.507.507,0,0,1,19.742,173.6Zm-18.565-.538,4.294-1.191L15.6,169.062l1.09-.3a.227.227,0,0,1,.059-.008.234.234,0,0,1,.223.167l.128.461.4,1.445L1.547,175.253l-.529-1.906A.232.232,0,0,1,1.177,173.065Zm18.5,5.6a.233.233,0,0,1-.159.282L4.005,183.255a.226.226,0,0,1-.059.008.234.234,0,0,1-.223-.168l-1.578-5.686L18.1,172.981l.973,3.507Z" transform="translate(0 -161.554)" fill="#002f33"/>
      <path id="Path_13507" data-name="Path 13507" d="M91.861,444.971a.507.507,0,0,0-.622-.352l-1.812.5a.506.506,0,0,0-.351.622l.5,1.812a.506.506,0,0,0,.622.351l1.812-.5a.506.506,0,0,0,.352-.622Z" transform="translate(-85.348 -427.469)" fill="#002f33"/>
    </g>
  </g>
</svg>
