<svg id="earrings" xmlns="http://www.w3.org/2000/svg" width="17.119" height="19" viewBox="0 0 17.119 19">
  <defs>
    <style>
      .cls-1 {
        fill: #002f33;
      }
    </style>
  </defs>
  <path id="Path_13494" data-name="Path 13494" class="cls-1" d="M4.13,17.732a4.078,4.078,0,0,0,4.126-4.017c0-1.8-2.658-5.6-3.573-6.851a1.579,1.579,0,0,0-.227-3.033V2.617L4.694,2.2A1.456,1.456,0,0,0,4.688.732,1.457,1.457,0,0,0,3.416,0a1.481,1.481,0,0,0-1.41,1.049A.3.3,0,0,0,2,1.087L1.744,2.623a3.462,3.462,0,0,1-.538,1.366L.393,5.207a.317.317,0,1,0,.527.352L1.733,4.34A4.086,4.086,0,0,0,2.37,2.725l.25-1.512a.838.838,0,1,1,1.524.674l-.279.487a.314.314,0,0,0-.042.158v1.3a1.58,1.58,0,0,0-.243,3.028c-.8,1.095-2.941,4.148-3.461,6.1,0,0,0,0,0,.008A3.008,3.008,0,0,0,0,13.714,4.077,4.077,0,0,0,4.13,17.732Zm-.016-2.217a1.636,1.636,0,0,1-1.577-1.678A11.015,11.015,0,0,1,4.12,10.423,11.022,11.022,0,0,1,5.7,13.837a1.636,1.636,0,0,1-1.581,1.678Zm.274-5.867a.329.329,0,0,0-.538,0c-.325.521-1.948,3.17-1.948,4.187a2.386,2.386,0,0,0,.267,1.1A3.367,3.367,0,0,1,.76,13.011,25.234,25.234,0,0,1,4.13,7.179,25.245,25.245,0,0,1,7.5,13.009a3.37,3.37,0,0,1-1.443,1.948,2.38,2.38,0,0,0,.28-1.123c0-1.017-1.623-3.666-1.948-4.187ZM4.13,17.1A3.471,3.471,0,0,1,.7,14.373a4.14,4.14,0,0,0,3.382,1.773l.033,0h.01a4.143,4.143,0,0,0,3.426-1.777A3.472,3.472,0,0,1,4.13,17.1ZM3.19,5.382a.95.95,0,1,1,.95.95A.95.95,0,0,1,3.19,5.382Zm0,0" transform="translate(-0.003 0.001)"/>
  <path id="Path_13495" data-name="Path 13495" class="cls-1" d="M243.064,51.866a4.077,4.077,0,0,0,4.126-4.017c0-1.8-2.658-5.6-3.573-6.851a1.58,1.58,0,0,0-.227-3.033V36.75l.237-.415a1.472,1.472,0,1,0-2.687-1.153.308.308,0,0,0-.009.039l-.253,1.535a3.462,3.462,0,0,1-.538,1.366l-.812,1.218a.317.317,0,0,0,.527.352l.813-1.218a4.087,4.087,0,0,0,.636-1.615l.25-1.512a.838.838,0,1,1,1.524.674l-.279.487a.315.315,0,0,0-.042.158v1.3a1.58,1.58,0,0,0-.243,3.028c-.8,1.095-2.941,4.148-3.461,6.1a.012.012,0,0,1,0,.008,2.994,2.994,0,0,0-.114.748,4.077,4.077,0,0,0,4.126,4.018Zm-.016-2.217a1.636,1.636,0,0,1-1.577-1.678,11.015,11.015,0,0,1,1.583-3.414,11.025,11.025,0,0,1,1.583,3.414,1.636,1.636,0,0,1-1.581,1.678Zm.274-5.867a.329.329,0,0,0-.537,0c-.325.521-1.948,3.17-1.948,4.187a2.386,2.386,0,0,0,.267,1.1,3.366,3.366,0,0,1-1.411-1.925,25.23,25.23,0,0,1,3.37-5.832,25.241,25.241,0,0,1,3.369,5.83,3.37,3.37,0,0,1-1.443,1.948,2.38,2.38,0,0,0,.28-1.123c0-1.018-1.623-3.667-1.949-4.188Zm-.258,7.45a3.472,3.472,0,0,1-3.426-2.726,4.141,4.141,0,0,0,3.382,1.773l.034,0h.01A4.143,4.143,0,0,0,246.49,48.5a3.472,3.472,0,0,1-3.426,2.728Zm-.94-11.716a.95.95,0,1,1,.95.95A.95.95,0,0,1,242.124,39.516Zm0,0" transform="translate(-230.071 -32.866)"/>
</svg>
