<svg id="Earrings" xmlns="http://www.w3.org/2000/svg" width="183" height="184" viewBox="0 0 183 184">
  <defs>
    <style>
      .cls-1 {
        fill: #002f33;
      }

      .cls-2, .cls-3 {
        fill: #fff;
      }

      .cls-2 {
        font-size: 25px;
        font-family: Raleway-Bold, Raleway;
        font-weight: 700;
      }
    </style>
  </defs>
  <rect id="Rectangle_3109" data-name="Rectangle 3109" class="cls-1" width="183" height="184" rx="35"/>
  <text id="Earings" class="cls-2" transform="translate(47 54)"><tspan x="0" y="0">Earings</tspan></text>
  <g id="earrings-2" data-name="earrings" transform="translate(61 75.017)">
    <path id="Path_13494" data-name="Path 13494" class="cls-3" d="M14.551,62.515A14.375,14.375,0,0,0,29.1,48.352c0-6.34-9.369-19.728-12.6-24.153a5.568,5.568,0,0,0-.8-10.692V9.227l.836-1.465a5.134,5.134,0,0,0-.018-5.179A5.135,5.135,0,0,0,12.034,0a5.223,5.223,0,0,0-4.97,3.7,1.06,1.06,0,0,0-.032.138L6.138,9.248a12.206,12.206,0,0,1-1.9,4.815L1.377,18.358A1.117,1.117,0,1,0,3.234,19.6L6.1,15.3A14.406,14.406,0,0,0,8.345,9.607l.882-5.332A2.954,2.954,0,1,1,14.6,6.654l-.985,1.718a1.107,1.107,0,0,0-.147.558v4.577a5.57,5.57,0,0,0-.855,10.673C9.8,28.04,2.245,38.805.413,45.689c0,.009-.006.016-.007.027A10.6,10.6,0,0,0,0,48.351,14.374,14.374,0,0,0,14.551,62.515ZM14.5,54.7a5.768,5.768,0,0,1-5.561-5.917c0-1.685,2.251-6.51,5.582-12.035C17.847,42.273,20.1,47.1,20.1,48.784A5.768,5.768,0,0,1,14.525,54.7Zm.966-20.684a1.158,1.158,0,0,0-1.9,0C12.417,35.853,6.7,45.191,6.7,48.778a8.412,8.412,0,0,0,.941,3.881A11.869,11.869,0,0,1,2.67,45.871C4.4,39.948,10.99,30.161,14.551,25.31,18.111,30.16,24.7,39.942,26.43,45.865a11.88,11.88,0,0,1-5.086,6.869,8.389,8.389,0,0,0,.987-3.957c0-3.587-5.721-12.925-6.869-14.762Zm-.911,26.266A12.238,12.238,0,0,1,2.474,50.673,14.6,14.6,0,0,0,14.4,56.925c.04,0,.078.007.118.007h.034a14.607,14.607,0,0,0,12.079-6.266,12.239,12.239,0,0,1-12.078,9.618ZM11.236,18.977a3.349,3.349,0,1,1,3.349,3.349A3.349,3.349,0,0,1,11.236,18.977Zm0,0" transform="translate(-0.003 0.001)"/>
    <path id="Path_13495" data-name="Path 13495" class="cls-3" d="M253.485,96.649a14.375,14.375,0,0,0,14.547-14.163c0-6.34-9.369-19.728-12.6-24.152a5.569,5.569,0,0,0-.8-10.693v-4.28l.836-1.465A5.189,5.189,0,1,0,246,37.832a1.072,1.072,0,0,0-.032.138l-.893,5.412a12.206,12.206,0,0,1-1.9,4.815l-2.863,4.295a1.117,1.117,0,0,0,1.858,1.239l2.867-4.3a14.407,14.407,0,0,0,2.244-5.693l.882-5.332a2.954,2.954,0,1,1,5.374,2.378l-.985,1.718a1.109,1.109,0,0,0-.147.559v4.577a5.57,5.57,0,0,0-.855,10.673c-2.817,3.859-10.369,14.625-12.2,21.508a.042.042,0,0,1-.007.027,10.556,10.556,0,0,0-.4,2.636,14.374,14.374,0,0,0,14.547,14.164Zm-.056-7.815a5.768,5.768,0,0,1-5.561-5.917c0-1.685,2.251-6.51,5.582-12.035,3.33,5.525,5.582,10.35,5.582,12.035a5.768,5.768,0,0,1-5.573,5.917ZM254.4,68.15a1.159,1.159,0,0,0-1.892,0c-1.147,1.837-6.868,11.175-6.868,14.762a8.412,8.412,0,0,0,.941,3.881,11.867,11.867,0,0,1-4.973-6.786c1.729-5.922,8.32-15.709,11.881-20.56C257.045,64.3,263.632,74.077,265.364,80a11.881,11.881,0,0,1-5.086,6.869,8.391,8.391,0,0,0,.987-3.958c0-3.589-5.721-12.927-6.869-14.764Zm-.911,26.266a12.239,12.239,0,0,1-12.077-9.609,14.6,14.6,0,0,0,11.924,6.251c.04,0,.078.007.119.007h.034A14.607,14.607,0,0,0,265.562,84.8a12.239,12.239,0,0,1-12.078,9.618ZM250.17,53.111a3.349,3.349,0,1,1,3.349,3.349A3.349,3.349,0,0,1,250.17,53.111Zm0,0" transform="translate(-207.679 -29.667)"/>
  </g>
</svg>
