<svg xmlns="http://www.w3.org/2000/svg" xmlns:xlink="http://www.w3.org/1999/xlink" width="70" height="53.275" viewBox="0 0 70 53.275">
  <defs>
    <style>
      .cls-1 {
        fill: #3bc0cb;
        font-size: 11px;
        font-family: Raleway-Bold, Raleway;
        font-weight: 700;
      }

      .cls-2 {
        fill: url(#linear-gradient);
      }
    </style>
    <linearGradient id="linear-gradient" x1="0.5" x2="0.5" y2="1" gradientUnits="objectBoundingBox">
      <stop offset="0" stop-color="#3bc0cb"/>
      <stop offset="0" stop-color="#1eabb7"/>
      <stop offset="0" stop-color="#34b8c3"/>
      <stop offset="0" stop-color="#17bdcb"/>
      <stop offset="1" stop-color="#9ff8ff"/>
      <stop offset="1" stop-color="#1e6066"/>
    </linearGradient>
  </defs>
  <g id="Group_12694" data-name="Group 12694" transform="translate(-79.135 -25.362)">
    <text id="GemConnect_Logo" data-name="GemConnect/Logo" class="cls-1" transform="translate(79.135 75.637)"><tspan x="0" y="0">GemConnect</tspan></text>
    <path id="Path_13296" data-name="Path 13296" class="cls-2" d="M171.674,323.606h21.7l-1.55,2.684-1.548,2.684-1.553,2.684-1.548,2.687-1.553,2.684-1.548,2.684-1.55,2.687-1.55,2.684-3.1,5.369v0l-1.55,2.684-1.548-2.684-1.553-2.687-1.55-2.684-1.548-2.684-1.553-2.687-1.548-2.684-1.553-2.684-1.548-2.687-3.1-5.369-1.55-2.684-1.55-2.684-1.55-2.687,1.55-2.682v0l1.55-2.684h34.1l1.55,2.684,0,0,1.548,2.682h-31l-1.55,2.687h0v0l1.55,2.682,1.55,2.684v0l1.548,2.682h0v0l1.55,2.684,0,0,1.546,2.682h0l1.55,2.684v0l1.548,2.682,1.553,2.689,1.553-2.689h0l1.55-2.682v0h0l1.548-2.684v0l1.55-2.682,1.55-2.684v0h-6.2v0l-1.55,2.682-1.548-2.682h0v0l-1.55-2.684v0l-1.55-2.68Z" transform="translate(-62.325 -287.505)"/>
  </g>
</svg>
