<svg xmlns="http://www.w3.org/2000/svg" xmlns:xlink="http://www.w3.org/1999/xlink" width="237.973" height="182.731" viewBox="0 0 237.973 182.731">
  <defs>
    <style>
      .cls-1, .cls-3 {
        fill: #3bc0cb;
      }

      .cls-1, .cls-18, .cls-5 {
        opacity: 0.1;
      }

      .cls-2 {
        fill: none;
        stroke: #535461;
        stroke-miterlimit: 10;
        stroke-width: 2px;
      }

      .cls-4 {
        opacity: 0.25;
      }

      .cls-6 {
        fill: #ffd037;
      }

      .cls-7 {
        fill: #a8a8a8;
      }

      .cls-12, .cls-8 {
        opacity: 0.2;
      }

      .cls-9 {
        fill: url(#linear-gradient);
      }

      .cls-10 {
        fill: #fff;
      }

      .cls-11, .cls-12 {
        fill: #5a5773;
      }

      .cls-13 {
        fill: url(#linear-gradient-2);
      }

      .cls-14 {
        fill: #efb7b9;
      }

      .cls-15 {
        fill: #ff7272;
      }

      .cls-16 {
        fill: #002f33;
      }

      .cls-17 {
        fill: #a1616a;
      }
    </style>
    <linearGradient id="linear-gradient" x1="0.5" y1="1" x2="0.5" gradientUnits="objectBoundingBox">
      <stop offset="0" stop-color="gray" stop-opacity="0.251"/>
      <stop offset="0.54" stop-color="gray" stop-opacity="0.122"/>
      <stop offset="1" stop-color="gray" stop-opacity="0.102"/>
    </linearGradient>
    <linearGradient id="linear-gradient-2" x1="0.5" x2="0.5" xlink:href="#linear-gradient"/>
  </defs>
  <g id="Group_12736" data-name="Group 12736" transform="translate(0.01 0.019)">
    <path id="Path_13347" data-name="Path 13347" class="cls-1" d="M358.025,146.291c-.213.156-.409.307-.618.454a20.844,20.844,0,0,1-2.415,1.473c-4.388,2.313-9.8,3.443-15.065,4.211-11.815,1.723-23.878,2.057-35.89,2.386-32.455.891-64.989,1.78-97.365-.273-12.792-.81-25.865-2.166-37.457-6.323q-2.492-.891-4.887-1.966a40.132,40.132,0,0,1-8.912-5.33,19.4,19.4,0,0,1-5.564-6.835c-2.45-5.381-1.153-11.425,1.644-16.7a51.9,51.9,0,0,1,3.921-6.134c2.16-2.97,4.541-5.854,6.714-8.822,7.731-10.549,12.775-23.9,5.639-34.715-2.051-3.108-5.014-5.837-6.686-9.082-2.132-4.151-1.968-8.76-1.29-13.237q.132-.853.279-1.689c1.158-6.639,3.337-13.792,10.054-17.936,6.978-4.307,16.887-4.089,25.547-2.558,13.468,2.4,25.891,7.411,38.446,11.931s25.69,8.649,39.488,9.093c12.184.392,26.4-2.543,34.483-10.174,7.854-7.411,22.618-7.976,33.259-3.5,7.3,3.072,12.753,8.607,15.052,14.832a19.355,19.355,0,0,1,1,3.863,17.819,17.819,0,0,1,.179,3.644c-.032.6-.094,1.2-.179,1.784-1.778,12.284-14.576,21.974-22.356,32.948-3.8,5.36-6.485,11.8-3.872,17.578,3.987,8.807,17.851,11.939,26.223,18.493a19.7,19.7,0,0,1,4.115,4.221C365.575,133.762,364.076,141.639,358.025,146.291Z" transform="translate(-125.827 -22.068)"/>
    <g id="flowers" transform="translate(-0.01 -0.019)">
      <path id="Path_13348" data-name="Path 13348" class="cls-2" d="M135.952,191.43s-9.807-17.38-24.586-22.386A30.228,30.228,0,0,1,96.05,157.587a50.74,50.74,0,0,1-4.52-8.127" transform="translate(-80.947 -122.167)"/>
      <path id="Path_13349" data-name="Path 13349" class="cls-3" d="M43.18,107.469c1.684,1.627,9.526,3.332,9.526,3.332s-1.919-7.786-3.607-9.421a4.249,4.249,0,1,0-5.919,6.1Z" transform="translate(-41.89 -83.393)"/>
      <path id="Path_13350" data-name="Path 13350" class="cls-3" d="M56.115,169.4c2.3.456,9.807-2.386,9.807-2.386s-5.852-5.492-8.155-5.948a4.249,4.249,0,1,0-1.652,8.335Z" transform="translate(-50.388 -131.234)"/>
      <path id="Path_13351" data-name="Path 13351" class="cls-3" d="M123.187,241.663c2.217-.767,7.249-7.008,7.249-7.008s-7.82-1.789-10.035-1.021a4.249,4.249,0,1,0,2.772,8.029Z" transform="translate(-101.311 -188.244)"/>
      <path id="Path_13352" data-name="Path 13352" class="cls-3" d="M195.763,282.124c2.315-.384,8.336-5.682,8.336-5.682s-7.4-3.085-9.72-2.7a4.249,4.249,0,0,0,1.384,8.385Z" transform="translate(-159.069 -219.924)"/>
      <path id="Path_13353" data-name="Path 13353" class="cls-3" d="M114.032,144.713c0,2.345-4.243,9.153-4.243,9.153s-4.251-6.8-4.253-9.148a4.249,4.249,0,1,1,8.5,0Z" transform="translate(-91.966 -115.017)"/>
      <path id="Path_13354" data-name="Path 13354" class="cls-3" d="M195.583,190.206c-.7,2.239-6.788,7.462-6.788,7.462s-2.021-7.771-1.328-10.02a4.249,4.249,0,0,1,8.1,2.539Z" transform="translate(-156.316 -150.006)"/>
      <path id="Path_13355" data-name="Path 13355" class="cls-3" d="M266.782,250.778c-.311,2.326-5.428,8.5-5.428,8.5s-3.3-7.308-2.985-9.634a4.249,4.249,0,1,1,8.422,1.132Z" transform="translate(-212.2 -198.095)"/>
      <path id="Path_13356" data-name="Path 13356" class="cls-4" d="M43.18,107.469c1.684,1.627,9.526,3.332,9.526,3.332s-1.919-7.786-3.607-9.421a4.249,4.249,0,1,0-5.919,6.1Z" transform="translate(-41.89 -83.393)"/>
      <path id="Path_13357" data-name="Path 13357" class="cls-4" d="M56.115,169.4c2.3.456,9.807-2.386,9.807-2.386s-5.852-5.492-8.155-5.948a4.249,4.249,0,1,0-1.652,8.335Z" transform="translate(-50.388 -131.234)"/>
      <path id="Path_13358" data-name="Path 13358" class="cls-4" d="M123.187,241.663c2.217-.767,7.249-7.008,7.249-7.008s-7.82-1.789-10.035-1.021a4.249,4.249,0,1,0,2.772,8.029Z" transform="translate(-101.311 -188.244)"/>
      <path id="Path_13359" data-name="Path 13359" class="cls-4" d="M195.763,282.124c2.315-.384,8.336-5.682,8.336-5.682s-7.4-3.085-9.72-2.7a4.249,4.249,0,0,0,1.384,8.385Z" transform="translate(-159.069 -219.924)"/>
      <path id="Path_13360" data-name="Path 13360" class="cls-4" d="M114.032,144.713c0,2.345-4.243,9.153-4.243,9.153s-4.251-6.8-4.253-9.148a4.249,4.249,0,1,1,8.5,0Z" transform="translate(-91.966 -115.017)"/>
      <path id="Path_13361" data-name="Path 13361" class="cls-4" d="M195.583,190.206c-.7,2.239-6.788,7.462-6.788,7.462s-2.021-7.771-1.328-10.02a4.249,4.249,0,0,1,8.1,2.539Z" transform="translate(-156.316 -150.006)"/>
      <path id="Path_13362" data-name="Path 13362" class="cls-4" d="M266.782,250.778c-.311,2.326-5.428,8.5-5.428,8.5s-3.3-7.308-2.985-9.634a4.249,4.249,0,1,1,8.422,1.132Z" transform="translate(-212.2 -198.095)"/>
      <path id="Path_13363" data-name="Path 13363" class="cls-2" d="M210.141,136.646s-1.919-19.866-13.406-30.432a30.219,30.219,0,0,1-9.359-16.681,50.771,50.771,0,0,1-.836-9.263" transform="translate(-155.701 -67.728)"/>
      <path id="Path_13364" data-name="Path 13364" class="cls-3" d="M151.626,27.282c.878,2.177,7.362,6.9,7.362,6.9s1.4-7.9.52-10.076a4.252,4.252,0,1,0-7.888,3.177Z" transform="translate(-127.983 -21.441)"/>
      <path id="Path_13365" data-name="Path 13365" class="cls-3" d="M138.355,89.176c1.919,1.35,9.929,1.791,9.929,1.791s-3.106-7.389-5.025-8.739a4.252,4.252,0,0,0-4.9,6.948Z" transform="translate(-116.372 -68.655)"/>
      <path id="Path_13366" data-name="Path 13366" class="cls-3" d="M170.6,182.438c2.345.2,9.475-3.467,9.475-3.467s-6.424-4.8-8.762-5a4.249,4.249,0,1,0-.712,8.466Z" transform="translate(-140.02 -141.434)"/>
      <path id="Path_13367" data-name="Path 13367" class="cls-3" d="M220.407,248.749c2.273.588,9.924-1.816,9.924-1.816s-5.52-5.82-7.79-6.409a4.249,4.249,0,1,0-2.132,8.226Z" transform="translate(-179.844 -193.708)"/>
      <path id="Path_13368" data-name="Path 13368" class="cls-3" d="M201.129,90.4c-.949,2.145-7.588,6.645-7.588,6.645s-1.13-7.939-.181-10.086a4.249,4.249,0,1,1,7.77,3.441Z" transform="translate(-160.769 -70.997)"/>
      <path id="Path_13369" data-name="Path 13369" class="cls-3" d="M250.939,164.092c-1.548,1.763-9.229,4.072-9.229,4.072s1.3-7.914,2.846-9.677a4.247,4.247,0,1,1,6.383,5.6Z" transform="translate(-199.109 -128.133)"/>
      <path id="Path_13370" data-name="Path 13370" class="cls-3" d="M295.967,248.9c-1.228,2-8.408,5.573-8.408,5.573s-.06-8.02,1.168-10.02a4.252,4.252,0,0,1,7.249,4.447Z" transform="translate(-235.182 -195.31)"/>
    </g>
    <ellipse id="Ellipse_462" data-name="Ellipse 462" class="cls-1" cx="23.778" cy="3.096" rx="23.778" ry="3.096" transform="translate(63.233 175.374)"/>
    <g id="floor_flowers" data-name="floor flowers" transform="translate(31.152 164.463)">
      <ellipse id="Ellipse_463" data-name="Ellipse 463" class="cls-1" cx="7.223" cy="1.237" rx="7.223" ry="1.237" transform="translate(0.606 12.532)"/>
      <path id="Path_13371" data-name="Path 13371" class="cls-3" d="M220.233,792.94s1.17,1.533-.542,3.838-3.123,4.264-2.558,5.707c0,0,2.582-4.3,4.69-4.356S222.548,795.524,220.233,792.94Z" transform="translate(-210.834 -792.94)"/>
      <path id="Path_13372" data-name="Path 13372" class="cls-5" d="M220.5,792.94a1.882,1.882,0,0,1,.239.482c2.051,2.409,3.145,4.658,1.173,4.714-1.836.053-4.04,3.337-4.567,4.166a1.98,1.98,0,0,0,.062.19s2.582-4.3,4.69-4.356S222.811,795.524,220.5,792.94Z" transform="translate(-211.097 -792.94)"/>
      <path id="Path_13373" data-name="Path 13373" class="cls-6" d="M241.351,800.811c0,.539-.06.976-.134.976s-.136-.426-.136-.976.077-.286.151-.286S241.351,800.272,241.351,800.811Z" transform="translate(-229.776 -798.858)"/>
      <path id="Path_13374" data-name="Path 13374" class="cls-6" d="M242.444,803.752c-.473.258-.887.414-.923.348s.32-.328.793-.586.286-.07.322,0S242.917,803.494,242.444,803.752Z" transform="translate(-230.12 -801.155)"/>
      <path id="Path_13375" data-name="Path 13375" class="cls-3" d="M193.414,792.94s-1.17,1.533.542,3.838,3.123,4.264,2.558,5.707c0,0-2.582-4.3-4.69-4.356S191.1,795.524,193.414,792.94Z" transform="translate(-190.203 -792.94)"/>
      <path id="Path_13376" data-name="Path 13376" class="cls-5" d="M193.4,792.94a1.882,1.882,0,0,0-.239.482c-2.051,2.409-3.145,4.658-1.173,4.714,1.838.053,4.04,3.337,4.567,4.166a1.527,1.527,0,0,1-.062.19s-2.582-4.3-4.69-4.356S191.086,795.524,193.4,792.94Z" transform="translate(-190.186 -792.94)"/>
      <path id="Path_13377" data-name="Path 13377" class="cls-6" d="M192.91,800.811c0,.539.06.976.134.976s.136-.426.136-.976-.077-.286-.151-.286S192.91,800.272,192.91,800.811Z" transform="translate(-191.875 -798.858)"/>
      <path id="Path_13378" data-name="Path 13378" class="cls-6" d="M188.345,803.752c.473.258.885.414.921.348s-.32-.328-.793-.586-.286-.07-.322,0S187.872,803.494,188.345,803.752Z" transform="translate(-188.057 -801.155)"/>
      <path id="Path_13379" data-name="Path 13379" class="cls-7" d="M194.66,830.267s3.275-.1,4.264-.8,5.036-1.544,5.281-.416,4.921,5.605,1.224,5.635-8.59-.576-9.575-1.175S194.66,830.267,194.66,830.267Z" transform="translate(-193.252 -820.916)"/>
      <path id="Path_13380" data-name="Path 13380" class="cls-8" d="M205.493,840.807c-3.7.03-8.59-.576-9.575-1.175-.75-.458-1.049-2.1-1.149-2.853h-.109s.213,2.64,1.192,3.241,5.878,1.2,9.575,1.175c1.066,0,1.437-.388,1.416-.951C206.7,840.59,206.288,840.8,205.493,840.807Z" transform="translate(-193.252 -827.433)"/>
      <path id="Path_13381" data-name="Path 13381" class="cls-3" d="M677.938,836.167s-9.014-.544-7.95,5.773a1.537,1.537,0,0,0,.8,1.622s.017-.467.925-.309a4.117,4.117,0,0,0,.979.047,2.025,2.025,0,0,0,1.2-.495h0s2.533-1.045,3.518-5.187c0,0,.729-.9.7-1.136l-1.522.64a2.729,2.729,0,0,1,.111,2.011s-.049-1.97-.341-1.919c-.06,0-.791.38-.791.38a4.474,4.474,0,0,1,.213,3.3s.256-2.345-.5-3.162l-1.066.625a4.732,4.732,0,0,1,.337,3.586s.181-2.471-.561-3.435l-.97.757s.981,1.947.382,3.283c0,0-.077-2.876-.593-3.094a5.585,5.585,0,0,0-.979,1.066s.672,1.411.256,2.158c0,0-.256-1.919-.467-1.919a6.336,6.336,0,0,0-.934,2.132,4.644,4.644,0,0,1,.729-2.262,2.547,2.547,0,0,0-1.294.672s.132-.9,1.492-.976a5.832,5.832,0,0,1,.887-1.021,5.55,5.55,0,0,0-2.192.251,2.444,2.444,0,0,1,2.441-.463l.957-.78a7.865,7.865,0,0,0-2.558.026s.878-.75,2.816-.213l1.045-.623a9.508,9.508,0,0,0-2.445-.213,3.745,3.745,0,0,1,2.75.043l.746-.335s-1.124-.213-1.452-.254-.345-.126-.345-.126a3.894,3.894,0,0,1,2.109.235A9.488,9.488,0,0,0,677.938,836.167Z" transform="translate(-567.173 -826.942)"/>
      <ellipse id="Ellipse_464" data-name="Ellipse 464" class="cls-1" cx="6.379" cy="1.079" rx="6.379" ry="1.079" transform="translate(98.178 16.092)"/>
      <path id="Path_13382" data-name="Path 13382" class="cls-3" d="M616.822,837.766s-5.082-.307-4.477,3.256a.87.87,0,0,0,.452.915s0-.264.522-.175a2.477,2.477,0,0,0,.55.028,1.164,1.164,0,0,0,.676-.279h0a4.035,4.035,0,0,0,1.985-2.925s.409-.51.394-.64l-.853.365a1.546,1.546,0,0,1,.062,1.134s-.028-1.111-.192-1.085c-.034,0-.446.213-.446.213a2.529,2.529,0,0,1,.124,1.861s.143-1.328-.281-1.784l-.6.354a2.669,2.669,0,0,1,.19,2.021,3.787,3.787,0,0,0-.318-1.936l-.546.426a2.605,2.605,0,0,1,.213,1.851s-.045-1.622-.335-1.744a3.342,3.342,0,0,0-.552.595s.38.8.145,1.217c0,0-.145-1.081-.262-1.085a3.578,3.578,0,0,0-.527,1.207,2.591,2.591,0,0,1,.409-1.279,1.433,1.433,0,0,0-.729.377s.075-.507.853-.55a3.224,3.224,0,0,1,.5-.575,3.121,3.121,0,0,0-1.237.141,1.389,1.389,0,0,1,1.377-.26l.539-.441a4.442,4.442,0,0,0-1.441.015,1.741,1.741,0,0,1,1.588-.115l.586-.35a5.264,5.264,0,0,0-1.377-.12,2.12,2.12,0,0,1,1.55.023l.426-.188s-.64-.126-.817-.145-.2-.07-.2-.07a2.2,2.2,0,0,1,1.19.132A5.024,5.024,0,0,0,616.822,837.766Z" transform="translate(-521.849 -828.204)"/>
      <ellipse id="Ellipse_465" data-name="Ellipse 465" class="cls-1" cx="3.597" cy="0.608" rx="3.597" ry="0.608" transform="translate(87.876 13.436)"/>
      <path id="Path_13383" data-name="Path 13383" class="cls-3" d="M658.713,802.35s-6.134-.371-5.411,3.929a1.049,1.049,0,0,0,.546,1.1s0-.318.629-.213a3.025,3.025,0,0,0,.665.032,1.405,1.405,0,0,0,.817-.337h0s1.725-.712,2.394-3.533c0,0,.5-.614.478-.772l-1.036.441a1.864,1.864,0,0,1,.077,1.369s-.034-1.341-.235-1.309c-.038,0-.537.258-.537.258a3.057,3.057,0,0,1,.149,2.247s.175-1.6-.339-2.153l-.729.426a3.218,3.218,0,0,1,.23,2.441,4.6,4.6,0,0,0-.384-2.345l-.661.514a3.148,3.148,0,0,1,.262,2.234s-.053-1.957-.405-2.106a4.008,4.008,0,0,0-.665.719s.458.962.173,1.469c0,0-.173-1.3-.316-1.309a4.278,4.278,0,0,0-.64,1.456,3.135,3.135,0,0,1,.495-1.539,1.733,1.733,0,0,0-.881.456s.09-.612,1.023-.665a4,4,0,0,1,.6-.695,3.8,3.8,0,0,0-1.492.173,1.673,1.673,0,0,1,1.663-.316l.652-.531a5.364,5.364,0,0,0-1.742.017,2.123,2.123,0,0,1,1.919-.139l.71-.426a6.991,6.991,0,0,0-1.663-.143,2.552,2.552,0,0,1,1.872.028l.507-.226s-.765-.151-.989-.175-.235-.085-.235-.085a2.648,2.648,0,0,1,1.435.16A6.251,6.251,0,0,0,658.713,802.35Z" transform="translate(-554.066 -800.338)"/>
      <ellipse id="Ellipse_466" data-name="Ellipse 466" class="cls-1" cx="4.343" cy="0.733" rx="4.343" ry="0.733" transform="translate(96.08 6.688)"/>
    </g>
    <g id="browser" transform="translate(29.147 20.354)">
      <path id="Path_13384" data-name="Path 13384" class="cls-9" d="M381.475,221.281V117H178.65v98.3a40.382,40.382,0,0,0,8.954,5.475q2.4,1.107,4.9,2.023H379.056Z" transform="translate(-178.65 -117)"/>
      <path id="Path_13385" data-name="Path 13385" class="cls-10" d="M382.72,232.339V131H180.73v95.534a40.789,40.789,0,0,0,8.912,5.33q2.392,1.066,4.886,1.966H380.3Z" transform="translate(-180.287 -128.015)"/>
      <rect id="Rectangle_3346" data-name="Rectangle 3346" class="cls-11" width="201.988" height="5.36" transform="translate(0.446 0.296)"/>
    </g>
    <g id="buttons" transform="translate(32.24 21.944)">
      <circle id="Ellipse_467" data-name="Ellipse 467" class="cls-10" cx="1.386" cy="1.386" r="1.386"/>
      <circle id="Ellipse_468" data-name="Ellipse 468" class="cls-10" cx="1.386" cy="1.386" r="1.386" transform="translate(3.731)"/>
      <circle id="Ellipse_469" data-name="Ellipse 469" class="cls-10" cx="1.386" cy="1.386" r="1.386" transform="translate(7.462)"/>
    </g>
    <g id="boxes" transform="translate(35.012 37.789)">
      <rect id="Rectangle_3347" data-name="Rectangle 3347" class="cls-3" width="33.365" height="20.966" transform="translate(46.198)"/>
      <rect id="Rectangle_3348" data-name="Rectangle 3348" class="cls-12" width="33.365" height="20.966"/>
      <rect id="Rectangle_3349" data-name="Rectangle 3349" class="cls-12" width="33.365" height="20.966" transform="translate(92.396)"/>
      <rect id="Rectangle_3350" data-name="Rectangle 3350" class="cls-12" width="33.365" height="20.966" transform="translate(0 29.973)"/>
      <rect id="Rectangle_3351" data-name="Rectangle 3351" class="cls-12" width="33.365" height="20.966" transform="translate(46.198 29.973)"/>
      <rect id="Rectangle_3352" data-name="Rectangle 3352" class="cls-12" width="33.365" height="20.966" transform="translate(92.396 29.973)"/>
      <rect id="Rectangle_3353" data-name="Rectangle 3353" class="cls-12" width="33.365" height="20.966" transform="translate(0 59.945)"/>
      <rect id="Rectangle_3354" data-name="Rectangle 3354" class="cls-12" width="33.365" height="20.966" transform="translate(46.198 59.945)"/>
      <rect id="Rectangle_3355" data-name="Rectangle 3355" class="cls-12" width="33.365" height="20.966" transform="translate(92.396 59.945)"/>
    </g>
    <g id="woman" transform="translate(73.46 43.025)">
      <path id="Path_13386" data-name="Path 13386" class="cls-13" d="M421.65,270.638s-5.993-10.954-4.982-12.736a24.276,24.276,0,0,0,1.755-4.362s2.213-1.514,2.213-2.132,1.752-2.049,2.676-2.671.461-3.563,0-3.919a8.12,8.12,0,0,1-1.192-1.6s.64-1.78,0-2.315.094-1.066,0-1.6a21.513,21.513,0,0,1,0-2.492,4.018,4.018,0,0,0-2.358-1.706l-.068-.281-.394-1.661s1.919-3.678-1.194-5.6a5.2,5.2,0,0,0-.689-.362,2.394,2.394,0,0,0-.017-.241,15.068,15.068,0,0,0-.452-2.816c-.162-.516-.373-.863-.64-.785a.427.427,0,0,0-.175.1,1.947,1.947,0,0,0-.33.39h0a.087.087,0,0,1-.015.023,6.687,6.687,0,0,0-.733,2.036,11.761,11.761,0,0,0-.213,1.279h0a7.05,7.05,0,0,0-.356.791c-.377.979-.819,2.674-.015,3.927.682,1.066,1.6,2.531,2.268,3.6l.021.034.041.066-.07.045v.164l.062.9.516,7.756a3.291,3.291,0,0,0-.473-.1,4.3,4.3,0,0,0-.689-.045c-.45-1.767-1.684-3.411-1.919-5.257a4.874,4.874,0,0,1-.036-.556c.019-1.162.309-2.328.286-3.488,0-.213,0-.426-.021-.64h0a1.707,1.707,0,0,0-.017-.177,5.242,5.242,0,0,0-2.85-3.972c-.535-.267-1.115-.443-1.635-.736-1.2-.674-1.972-1.889-3.064-2.723a3.391,3.391,0,0,0-2.931-.64,13.549,13.549,0,0,0-1.426.294h0a12.864,12.864,0,0,0-3.264,1.356c-.139.083-.277.168-.409.267a1.8,1.8,0,0,0-.659.77,2.016,2.016,0,0,0-.1.829c0,.2,0,.409.013.612-.06,3.411-3.735,6.051-4.038,9.381,0,.079-.013.158-.017.237v.365h0v.267c.053,1.46.812,2.821.951,4.275.013.13.019.258.021.388a6.448,6.448,0,0,1-.377,1.957,5.728,5.728,0,0,0-1.324.537,8.249,8.249,0,0,0-3.87,4.332,6.344,6.344,0,0,0-.279,1.9,39.714,39.714,0,0,1-.622,6.79,12.694,12.694,0,0,1-.392,1.669.391.391,0,0,0-.013.164l-.443,5.756-.079,1.013-.111,1.441s.032.087.079.234a6.793,6.793,0,0,1,.175.665,3.578,3.578,0,0,1,.058,1.492,1.028,1.028,0,0,1-.311.548.228.228,0,0,0-.036.04,4.427,4.427,0,0,0-.337,1.467c-.038.3-.075.64-.111.994-.213,2.271-.345,5.669-.426,8.479-.077,2.772-.1,4.961-.1,4.961a5.652,5.652,0,0,0,1.145.567c-.03.075-.062.151-.092.232a11.2,11.2,0,0,0-.7,2.929,5.108,5.108,0,0,0,3.33,5.622,4.711,4.711,0,0,0,.573.2,1.819,1.819,0,0,0,1.458-.09c0,.126.015.247.021.369.03.52.055,1,.068,1.394.092,2.494.71,6.856.71,6.856a9.075,9.075,0,0,1,.028,2.315,12.578,12.578,0,0,0,0,2.671s.64,1.066,0,1.6-.829,3.2-.64,3.563a.119.119,0,0,1,.011.041c.141.885-.655,14.03-.655,14.03s-.753,2.013-1.352,4.1c-.584,2.034-1.023,4.14-.482,4.535a4.524,4.524,0,0,0,1.686.456c0,.087-.013.175-.021.264a7.6,7.6,0,0,1-.373,2.209,25.784,25.784,0,0,0-.65,4.69l-.013.168a15.7,15.7,0,0,0-.687,1.991s-2.04,5.117-1.35,6.445a1.089,1.089,0,0,0,.254.313h0a.567.567,0,0,0,.066.06c.983.787,3.445.951,4.339.987l-.034,1.266v.047h1.162v-.032c0-.16.026-.893.064-1.874,0-.175.013-.358.021-.546,0-.147.015-.3.021-.45a7.887,7.887,0,0,0,.505-2.846,12.492,12.492,0,0,1,.448-3.3,9.172,9.172,0,0,1,.591-1.61,7.348,7.348,0,0,0-.143-3.277,2.367,2.367,0,0,0-.426-.738v-.426a12.292,12.292,0,0,1,.273-2.733.3.3,0,0,1,0-.043c.017-.075.036-.145.055-.213l.013-.047.377.013c1.158.032,2.008.032,2.008.032a43.314,43.314,0,0,0,.831-6.767v-.277a26.359,26.359,0,0,1,.559-4.8l.744-7.217a3.8,3.8,0,0,1,0-2.132c.228-.55.7-1.571,1.028-2.275.154-.326.275-.582.326-.693l.03-.06a1.379,1.379,0,0,1-.328-.164h0c-.3-.2-.569-.593.33-1.171,1.384-.891.923-3.117.923-3.117a1.6,1.6,0,0,1,.072-1.514c.48-.712,0-3.383,0-3.383a11.184,11.184,0,0,0,.947-2.228c.343-1.066,1.211-6.279,1.62-8.792.134-.825.213-1.358.213-1.358l.013.13.013.141h0l.115,1.187.015.158.213,2.245a69.1,69.1,0,0,1,.16,8.215v.043a2.734,2.734,0,0,1-.156.7c-.49,1.109-.4,5.513-.375,6.488v.2a3.923,3.923,0,0,0-.26,1.505h0a.965.965,0,0,0,.168.448,1.135,1.135,0,0,1,.164.693v.021a2.533,2.533,0,0,1-.026.307,5.856,5.856,0,0,1-.324,1.207,4.416,4.416,0,0,0-.307,1.981h0a.626.626,0,0,0,.122.241.569.569,0,0,1,.07.256.094.094,0,0,0,0,.023c.173,1.435-.273,7.769-.537,11.235-.107,1.369-.183,2.29-.183,2.29l-.731,7.568.072.051c.083.06.239.162.448.286v.017l-.032.228c-.1.729-.245,1.578-.4,2.226-.013.049-.023.1-.036.141a2.04,2.04,0,0,0-.783.313c-1.552,2.757-.865,4.942,0,5.577a2.24,2.24,0,0,1,.522,1.3l.213,2.748v.315a.817.817,0,0,0,.041.252l.066.834.09,1.16h.708v-1.4h.038c1.117.038,2.919.085,3.7.023h.021a1.381,1.381,0,0,0,.213-.023.536.536,0,0,0,.124-.034c.416-.2,1.452-3.138.518-3.806s-1.141-2.558-1.141-2.558c-.081-.247-.162-.482-.245-.706v-.145a11.73,11.73,0,0,1,.111-2.443,18.588,18.588,0,0,0,.243-2.919v-.271a3.648,3.648,0,0,0,.475-.156l.034-.015a3.35,3.35,0,0,0,.8-.471l2.61-11.564.275-1.345,1.567-7.652s-.552-2.671,0-3.115c.2-.162.258-.853.245-1.652-.021-1.4-.245-3.157-.245-3.157s.738-1.158,1.109-1.87a5.808,5.808,0,0,0,0-2.582l.727-4.281a40.458,40.458,0,0,1,2.859-9.351c1.492-3.145.542-11.636-.426-16.156-.026-.117-.051-.232-.077-.343v-.017c.456-.226,1.015-.5,1.612-.785l.226-.107c.757-.356,1.558-.723,2.277-1.028l.047-.019a15.931,15.931,0,0,1,1.584-.593,2.658,2.658,0,0,1,.486-.1C425.524,277.405,421.65,270.638,421.65,270.638ZM392.8,285.125h.384c-.045.083-.087.168-.13.254-.026.051-.051.1-.075.151-.141.292-.271.591-.377.883.043-.315.1-.659.156-1.025C392.775,285.306,392.789,285.21,392.8,285.125Zm-1.036,5.558a.152.152,0,0,0,0-.03l-.032-.1c-.023-.068-.045-.136-.066-.213q.2-.06.4-.134h.028v.07c-.011.1-.023.2-.036.3h0a.212.212,0,0,1,0,.038,2.069,2.069,0,0,1-.028.234c-.019.154-.038.3-.055.446-.04-.134-.081-.266-.124-.4A1.01,1.01,0,0,1,391.766,290.683Z" transform="translate(-386.5 -223.338)"/>
      <path id="Path_13387" data-name="Path 13387" class="cls-14" d="M519.764,238.056l-2.3.814-.836-1.386c-.64-1.066-1.526-2.524-2.181-3.584-1.156-1.863.356-4.7.356-4.7s.273-2.85,1.245-3.729,1.243,3.729,1.243,3.729c3.9,1.774,1.812,5.946,1.812,5.946l.38,1.654Z" transform="translate(-486.824 -224.927)"/>
      <path id="Path_13388" data-name="Path 13388" class="cls-5" d="M529.418,279.995l-2.3.814-.836-1.386V279.3a4.01,4.01,0,0,1,2.859-.565Z" transform="translate(-496.479 -266.865)"/>
      <path id="Path_13389" data-name="Path 13389" class="cls-15" d="M523.56,290.312l1.153-.976-.578-8.788a3.651,3.651,0,0,1,5.193,1.153,22.428,22.428,0,0,0,0,2.486c.089.533-.62,1.066,0,1.6s0,2.309,0,2.309a8.016,8.016,0,0,0,1.145,1.6c.443.354.889,3.285,0,3.906s-2.556,2.042-2.556,2.663-2.132,2.132-2.132,2.132l-1.872-2.475Z" transform="translate(-494.339 -267.844)"/>
      <path id="Path_13390" data-name="Path 13390" class="cls-14" d="M394.623,537.153c-4.3-1.825-3.347-6.283-2.537-8.528a11.614,11.614,0,0,1,.569-1.33l2.413-1.465s.492,1.256,1.019,2.94C397.31,532.689,398.715,538.891,394.623,537.153Z" transform="translate(-390.347 -461.339)"/>
      <path id="Path_13391" data-name="Path 13391" class="cls-14" d="M413.513,765.475a7.246,7.246,0,0,0-.64,1.8,12.961,12.961,0,0,0-.277,3.055c.017.71.077,1.175.077,1.175l-4.793,3.3s.028-.386.075-.953a26.591,26.591,0,0,1,.625-4.673,7.781,7.781,0,0,0,.36-2.2c.075-.938.1-1.761.1-1.761S414.811,763.047,413.513,765.475Z" transform="translate(-403.322 -648.986)"/>
      <path id="Path_13392" data-name="Path 13392" class="cls-14" d="M470.059,779.223s0,.917-.034,1.983a20.3,20.3,0,0,1-.232,2.91,11.985,11.985,0,0,0-.109,2.435c.032,1.066.109,2.025.109,2.025s-4.893-4.626-4.394-4.993a2.266,2.266,0,0,0,.388-1.017c.149-.64.284-1.492.384-2.217.119-.863.194-1.558.194-1.558Z" transform="translate(-448.549 -660.369)"/>
      <path id="Path_13393" data-name="Path 13393" class="cls-5" d="M417.462,765.475a7.248,7.248,0,0,0-.64,1.8,39.155,39.155,0,0,1-3.923-.3c.072-.917.1-1.761.1-1.761S418.761,763.047,417.462,765.475Z" transform="translate(-407.272 -648.986)"/>
      <path id="Path_13394" data-name="Path 13394" class="cls-5" d="M473.039,779.239s0,.917-.034,1.983a5.334,5.334,0,0,1-3.855-.853c.119-.863.194-1.558.194-1.558Z" transform="translate(-451.529 -660.385)"/>
      <path id="Path_13395" data-name="Path 13395" class="cls-16" d="M432.019,497.841a41.405,41.405,0,0,0-2.752,9.321l-.71,4.264a6.007,6.007,0,0,1,0,2.573c-.356.71-1.066,1.865-1.066,1.865s.533,4.349,0,4.793,0,3.106,0,3.106l-1.776,8.954-2.486,11.538c-2.4,1.955-5.586-.531-5.586-.531l.7-7.545s1.066-13.218.622-13.76.177-2.219.177-2.219.622-1.6.179-2.219.087-1.953.087-1.953-.177-5.415.356-6.658,0-8.931,0-8.931l-.213-2.394-.124-1.326-.011-.13s-.081.531-.213,1.354c-.392,2.505-1.228,7.7-1.559,8.765a11.415,11.415,0,0,1-.91,2.219s.46,2.663,0,3.373a1.651,1.651,0,0,0-.07,1.509s.443,2.219-.889,3.106,0,1.332,0,1.332-.976,2.132-1.33,3.017a3.946,3.946,0,0,0,0,2.132l-.71,7.189a26,26,0,0,0-.533,5.059,44.457,44.457,0,0,1-.8,6.746s-6.835,0-7.888-.8,1.759-8.6,1.759-8.6.8-13.67.62-14.024,0-3.019.623-3.55,0-1.6,0-1.6a13.094,13.094,0,0,1,0-2.663,9.447,9.447,0,0,0-.028-2.309s-.595-4.349-.682-6.835-.533-8.076-.533-8.076.465-3.458.535-5.1a5.8,5.8,0,0,1,.64-2.074,18.489,18.489,0,0,1,1.322-2.32s21.032-6.217,21.915-5.6a8.038,8.038,0,0,1,.912,2.893C432.539,486.243,433.456,494.707,432.019,497.841Z" transform="translate(-400.492 -424.334)"/>
      <circle id="Ellipse_470" data-name="Ellipse 470" class="cls-17" cx="6.125" cy="6.125" r="6.125" transform="translate(12.444 7.004)"/>
      <path id="Path_13396" data-name="Path 13396" class="cls-5" d="M443.291,481.738c-.706.362-1.179.612-1.179.612s-9.941,4.705-12.768,4.439c-2.187-.213-7.771-.092-10.2-.032a18.513,18.513,0,0,1,1.322-2.32s21.034-6.215,21.917-5.6A8.073,8.073,0,0,1,443.291,481.738Z" transform="translate(-412.181 -424.334)"/>
      <path id="Path_13397" data-name="Path 13397" class="cls-15" d="M409.343,325.024s-5.673.9-7.012,1.774-3.991,2.575-3.991,6.215a35.257,35.257,0,0,1-.977,8.432c-.356,1.064,5.592,9.675,5.592,9.675l-2.132,13.05s8.528-.266,11.368,0,12.777-4.439,12.777-4.439,5.859-3.106,7.1-3.2-2.486-6.835-2.486-6.835-5.771-10.916-4.795-12.692a24.528,24.528,0,0,0,1.693-4.349l-1.066-9.052a3.483,3.483,0,0,0-2.929.443c-1.332.976-5.859.443-5.859.443Z" transform="translate(-395.035 -302.113)"/>
      <path id="Path_13398" data-name="Path 13398" class="cls-5" d="M394.348,388.693l-2.226.62-.616,8.353s.8,2.219,0,2.929-.976,15.89-.976,15.89a5.8,5.8,0,0,0,5.592.443s-.443-1.686.889-7.812a48.8,48.8,0,0,0,1.33-9.231s0-7.635.623-8.878,0-4.349,0-4.349-1.243-1.686-1.156-2.307S394.348,388.693,394.348,388.693Z" transform="translate(-389.671 -349.982)"/>
      <path id="Path_13399" data-name="Path 13399" class="cls-5" d="M398.662,528.8a5.669,5.669,0,0,1-4-.145,11.608,11.608,0,0,1,.569-1.33l2.413-1.465S398.144,527.116,398.662,528.8Z" transform="translate(-392.92 -461.363)"/>
      <path id="Path_13400" data-name="Path 13400" class="cls-15" d="M393.726,388.661l-2.219.62-.62,8.353s.8,2.219,0,2.929-.976,15.89-.976,15.89a5.8,5.8,0,0,0,5.592.435s-.443-1.686.887-7.812a49.2,49.2,0,0,0,1.333-9.231s0-7.635.62-8.878,0-4.349,0-4.349-1.243-1.686-1.153-2.307S393.726,388.661,393.726,388.661Z" transform="translate(-389.183 -349.951)"/>
      <path id="Path_13401" data-name="Path 13401" class="cls-5" d="M497.688,411.15s-1.153,9.941-4.528,11.807C493.16,422.957,500.705,420.827,497.688,411.15Z" transform="translate(-470.42 -371.109)"/>
      <path id="Path_13402" data-name="Path 13402" class="cls-5" d="M434.88,415.32s4.17,2.04,3.2,3.46S434.88,415.32,434.88,415.32Z" transform="translate(-424.565 -374.39)"/>
      <path id="Path_13403" data-name="Path 13403" class="cls-5" d="M434.88,434.47s2.663,2.752,2.132,3.729S434.88,434.47,434.88,434.47Z" transform="translate(-424.565 -389.457)"/>
      <path id="Path_13404" data-name="Path 13404" class="cls-5" d="M535.63,327.47a9.435,9.435,0,0,1,1.145,2.929C536.875,331.555,535.63,327.47,535.63,327.47Z" transform="translate(-503.836 -305.269)"/>
      <path id="Path_13405" data-name="Path 13405" class="cls-5" d="M535.63,315.5s.524-.446,1.863,0S535.63,315.5,535.63,315.5Z" transform="translate(-503.836 -295.695)"/>
      <path id="Path_13406" data-name="Path 13406" class="cls-5" d="M483.045,552.577a12.343,12.343,0,0,1-6.492-.831l-1.119,2.865-.124-1.326c.183-1.113.539-2.3,1.243-2.605A10.772,10.772,0,0,0,483.045,552.577Z" transform="translate(-456.376 -480.891)"/>
      <path id="Path_13407" data-name="Path 13407" class="cls-5" d="M426.18,577.07s5.46,1.132,6.991.932Z" transform="translate(-417.72 -501.655)"/>
      <path id="Path_13408" data-name="Path 13408" class="cls-5" d="M428.84,583.747a11.279,11.279,0,0,1,3.494.367Z" transform="translate(-419.813 -506.901)"/>
      <path id="Path_13409" data-name="Path 13409" class="cls-5" d="M430.09,588.31a20.888,20.888,0,0,0,3.228.426Z" transform="translate(-420.797 -510.499)"/>
      <path id="Path_13410" data-name="Path 13410" class="cls-5" d="M429.46,643.24c.1-.066,4.661-1.132,5.228-.367Z" transform="translate(-420.301 -553.213)"/>
      <path id="Path_13411" data-name="Path 13411" class="cls-5" d="M429.46,651.4s3.961-.467,4.061,0S429.46,651.4,429.46,651.4Z" transform="translate(-420.301 -559.978)"/>
      <path id="Path_13412" data-name="Path 13412" class="cls-5" d="M429.46,655.537s4.228-.874,4.727-.661S429.46,655.537,429.46,655.537Z" transform="translate(-420.301 -562.847)"/>
      <path id="Path_13413" data-name="Path 13413" class="cls-5" d="M412.713,791.437l-4.793,3.3s.028-.386.075-.953a12.921,12.921,0,0,1,2.454-4.006,1.964,1.964,0,0,1,2.187.488C412.653,790.97,412.713,791.437,412.713,791.437Z" transform="translate(-403.353 -668.92)"/>
      <path id="Path_13414" data-name="Path 13414" class="cls-16" d="M405.651,794.882a11.893,11.893,0,0,0-1,4.9,7.605,7.605,0,0,1-1.015,3.946,3.9,3.9,0,0,1-.337.482s-3.33-.028-4.5-.994a1.154,1.154,0,0,1-.313-.384c-.667-1.33,1.3-6.424,1.3-6.424a14.145,14.145,0,0,1,3.128-6.025C406.649,789.422,405.651,794.882,405.651,794.882Z" transform="translate(-395.825 -669.404)"/>
      <path id="Path_13415" data-name="Path 13415" class="cls-5" d="M405.3,826.465a3.869,3.869,0,0,1-.337.482s-3.33-.028-4.5-.993c.573-1.9,2.4-7.639,3.26-6.662C404.536,820.207,405.1,824.618,405.3,826.465Z" transform="translate(-397.492 -692.148)"/>
      <path id="Path_13416" data-name="Path 13416" class="cls-16" d="M420.142,819.639l-.232,8.6h1.117s.181-7.545.68-8.6S420.142,819.639,420.142,819.639Z" transform="translate(-412.787 -692.14)"/>
      <path id="Path_13417" data-name="Path 13417" class="cls-5" d="M469.792,802.4s-4.893-4.626-4.394-4.993a2.266,2.266,0,0,0,.388-1.017c.94-.164,2.558.228,3.9,3.985C469.715,801.439,469.792,802.4,469.792,802.4Z" transform="translate(-448.549 -674.192)"/>
      <path id="Path_13418" data-name="Path 13418" class="cls-16" d="M465.9,808.058a.5.5,0,0,1-.117.034,34.781,34.781,0,0,1-3.884,0,.84.84,0,0,1-.812-.838c0-.32,0-.71-.026-1.126-.055-1.313-.213-2.876-.684-3.228-.834-.64-1.492-2.81,0-5.558,0,0,2.861-2.185,4.925,4.383a4.364,4.364,0,0,0,1.1,2.539C467.3,804.93,466.3,807.868,465.9,808.058Z" transform="translate(-443.929 -674.692)"/>
      <path id="Path_13419" data-name="Path 13419" class="cls-5" d="M471.572,828.508a34.753,34.753,0,0,1-3.885,0,.84.84,0,0,1-.812-.838c0-.32,0-.71-.026-1.126.36-1.59.878-3.228,1.546-3.6C468.4,822.942,470.419,822.714,471.572,828.508Z" transform="translate(-449.72 -695.108)"/>
      <path id="Path_13420" data-name="Path 13420" class="cls-16" d="M423.46,798.33l.537,7.157h.682V797.72Z" transform="translate(-406.647 -670.688)"/>
      <path id="Path_13421" data-name="Path 13421" class="cls-5" d="M428.348,239.08a12.241,12.241,0,0,0-5.462,1.755,2.27,2.27,0,0,0-1.03,1.034,3.43,3.43,0,0,0-.083,1.279c.058,3.671-4.036,6.449-3.908,10.118.051,1.456.782,2.812.917,4.264.224,2.422-1.209,4.65-2.582,6.656a5.513,5.513,0,0,0,3.891-1.29,29.5,29.5,0,0,1,.544,14.871H422.6a1.493,1.493,0,0,1,.573.07,1.442,1.442,0,0,1,.454.339c1.836,1.827,3.066,4.528,2.364,7.023l4.179-1.567a12.416,12.416,0,0,0,2.885-1.375,4.165,4.165,0,0,0,1.782-2.569c.113-.64.077-1.4.6-1.774a3.286,3.286,0,0,1,.823-.3c1.147-.405,1.654-1.731,1.889-2.925a16.843,16.843,0,0,0,.266-4.449c-.185-2.494-.923-5.027-.316-7.462.343-1.367,1.107-2.639,1.168-4.051.1-2.326-1.718-4.33-1.989-6.643-.19-1.612.392-3.243.2-4.854a5.215,5.215,0,0,0-2.744-3.959c-.514-.264-1.066-.441-1.573-.733-1.158-.672-1.9-1.88-2.949-2.712s-2.8-1.145-3.592-.064Z" transform="translate(-409.868 -235.711)"/>
      <path id="Path_13422" data-name="Path 13422" class="cls-16" d="M428.348,237.815a12.241,12.241,0,0,0-5.462,1.755,2.27,2.27,0,0,0-1.03,1.034,3.43,3.43,0,0,0-.083,1.279c.058,3.671-4.036,6.449-3.908,10.12.051,1.454.782,2.81.917,4.264.224,2.422-1.209,4.65-2.582,6.658a5.543,5.543,0,0,0,3.891-1.29,29.493,29.493,0,0,1,.544,14.866H422.6a1.491,1.491,0,0,1,.573.073,1.4,1.4,0,0,1,.454.337c1.836,1.829,3.066,4.528,2.364,7.023l4.179-1.567a12.415,12.415,0,0,0,2.885-1.375,4.165,4.165,0,0,0,1.782-2.569c.113-.64.077-1.4.6-1.774a3.284,3.284,0,0,1,.823-.3c1.147-.405,1.654-1.731,1.889-2.925a16.846,16.846,0,0,0,.273-4.454c-.185-2.494-.923-5.027-.315-7.462.343-1.367,1.107-2.639,1.168-4.051.1-2.326-1.718-4.33-1.989-6.643-.19-1.612.392-3.241.2-4.854A5.219,5.219,0,0,0,434.746,242c-.514-.264-1.066-.441-1.573-.731-1.158-.674-1.9-1.883-2.949-2.714s-2.8-1.145-3.592-.064Z" transform="translate(-409.868 -234.712)"/>
      <g id="Group_12735" data-name="Group 12735" class="cls-18" transform="translate(6.332 6.283)">
        <path id="Path_13423" data-name="Path 13423" d="M442.273,252.81a2.374,2.374,0,0,0-.013.247C442.266,252.976,442.271,252.893,442.273,252.81Z" transform="translate(-436.704 -252.81)"/>
        <path id="Path_13424" data-name="Path 13424" d="M514.933,280.33a22.709,22.709,0,0,0,.234-3.39A24.508,24.508,0,0,0,514.933,280.33Z" transform="translate(-493.869 -271.796)"/>
        <path id="Path_13425" data-name="Path 13425" d="M424.918,304.878c-.124-1.322-.74-2.558-.885-3.878a4.867,4.867,0,0,0-.032.729c.051,1.439.765,2.784.91,4.217A5.75,5.75,0,0,0,424.918,304.878Z" transform="translate(-422.336 -290.726)"/>
        <path id="Path_13426" data-name="Path 13426" d="M518.141,330.2a9.137,9.137,0,0,0-.213,2.648,8.016,8.016,0,0,1,.213-1.537c.343-1.367,1.106-2.639,1.168-4.051a4.4,4.4,0,0,0-.034-.75A35.39,35.39,0,0,1,518.141,330.2Z" transform="translate(-496.224 -310.797)"/>
        <path id="Path_13427" data-name="Path 13427" d="M420.091,344.36a5.543,5.543,0,0,1-3.147,1.279c-.243.379-.495.75-.744,1.117a5.543,5.543,0,0,0,3.891-1.29,29.422,29.422,0,0,1,1.241,7.984A29.487,29.487,0,0,0,420.091,344.36Z" transform="translate(-416.2 -324.842)"/>
        <path id="Path_13428" data-name="Path 13428" d="M474.311,389.784c-.234,1.194-.742,2.52-1.889,2.923a3.2,3.2,0,0,0-.823.307c-.526.371-.49,1.139-.6,1.774a4.113,4.113,0,0,1-1.782,2.558,12.82,12.82,0,0,1-2.885,1.377l-3.987,1.492a5.5,5.5,0,0,1-.192,1.183l4.179-1.567a12.416,12.416,0,0,0,2.885-1.375A4.166,4.166,0,0,0,471,395.887c.113-.64.077-1.4.6-1.774a3.282,3.282,0,0,1,.823-.3c1.147-.405,1.654-1.731,1.889-2.925a16.709,16.709,0,0,0,.3-3.774A16.679,16.679,0,0,1,474.311,389.784Z" transform="translate(-452.354 -358.478)"/>
        <path id="Path_13429" data-name="Path 13429" d="M440.053,414.47a1.41,1.41,0,0,0-.454-.339,1.525,1.525,0,0,0-.573-.072h-1.742c-.068.371-.141.742-.213,1.111h1.964a1.493,1.493,0,0,1,.573.072,1.4,1.4,0,0,1,.454.337,8.447,8.447,0,0,1,2.535,4.993A7.953,7.953,0,0,0,440.053,414.47Z" transform="translate(-432.621 -379.678)"/>
      </g>
      <path id="Path_13430" data-name="Path 13430" class="cls-5" d="M405.37,448.989s1.586-.665,1.94,0S405.37,448.989,405.37,448.989Z" transform="translate(-401.347 -400.648)"/>
      <path id="Path_13431" data-name="Path 13431" class="cls-5" d="M408,454.339s1.586-.665,1.942,0S408,454.339,408,454.339Z" transform="translate(-403.416 -404.857)"/>
    </g>
    <g id="leaves" transform="translate(152.953 1.819)">
      <path id="Path_13432" data-name="Path 13432" class="cls-1" d="M842.415,51.641s-8.112-.488-7.155,5.2a1.387,1.387,0,0,0,.721,1.46s.015-.426.832-.279a3.733,3.733,0,0,0,.88.043,1.827,1.827,0,0,0,1.074-.446h0s2.279-.94,3.166-4.667c0,0,.657-.814.64-1.023l-1.369.586a2.453,2.453,0,0,1,.1,1.808s-.043-1.774-.307-1.731c-.053,0-.71.341-.71.341a4.05,4.05,0,0,1,.2,2.972s.23-2.119-.448-2.846l-.968.574a4.253,4.253,0,0,1,.3,3.226s.164-2.224-.505-3.089l-.874.68s.885,1.742.352,2.944c0,0-.07-2.59-.535-2.784a5.268,5.268,0,0,0-.878.951s.6,1.279.228,1.94c0,0-.23-1.723-.426-1.731a5.738,5.738,0,0,0-.84,1.919,4.16,4.16,0,0,1,.655-2.036,2.275,2.275,0,0,0-1.164.605s.117-.808,1.352-.881a5.317,5.317,0,0,1,.8-.919,5,5,0,0,0-1.972.228,2.228,2.228,0,0,1,2.2-.426l.853-.7a7.356,7.356,0,0,0-2.3.023,2.8,2.8,0,0,1,2.535-.183l.938-.561a8.422,8.422,0,0,0-2.2-.19,3.372,3.372,0,0,1,2.473.038l.672-.3s-1.01-.2-1.3-.23-.311-.113-.311-.113a3.489,3.489,0,0,1,1.9.213A8.617,8.617,0,0,0,842.415,51.641Z" transform="translate(-819.017 -47.032)"/>
      <path id="Path_13433" data-name="Path 13433" class="cls-1" d="M800.057,30.06s-6.822,4.415-2.684,8.426a1.388,1.388,0,0,0,1.446.75s-.239-.35.505-.718a3.708,3.708,0,0,0,.735-.488,1.835,1.835,0,0,0,.6-1h0s1.279-2.111-.213-5.637c0,0,.047-1.045-.1-1.2l-.755,1.279a2.454,2.454,0,0,1,1.151,1.4s-1.085-1.4-1.279-1.211c-.038.038-.371.7-.371.7a4.035,4.035,0,0,1,1.919,2.275s-1.066-1.844-2.049-2.025l-.443,1.023a4.255,4.255,0,0,1,2.157,2.42s-1.187-1.889-2.238-2.19l-.3,1.066s1.748.887,2.028,2.175c0,0-1.591-2.042-2.081-1.919a5.407,5.407,0,0,0-.145,1.279s1.241.665,1.335,1.428c0,0-1.207-1.251-1.362-1.147a5.754,5.754,0,0,0,.463,2.049,4.165,4.165,0,0,1-.678-2.028,2.282,2.282,0,0,0-.58,1.177s-.384-.721.569-1.509a5.836,5.836,0,0,1,.1-1.213,4.934,4.934,0,0,0-1.454,1.352s.077-1,1.524-1.637l.277-1.077a7.115,7.115,0,0,0-1.84,1.384s.237-1.011,1.932-1.65l.426-1.008a8.678,8.678,0,0,0-1.885,1.151,3.391,3.391,0,0,1,2.017-1.435l.362-.64s-.932.439-1.188.588-.318.094-.318.094a3.494,3.494,0,0,1,1.652-.953A8.475,8.475,0,0,0,800.057,30.06Z" transform="translate(-788.221 -30.06)"/>
      <path id="Path_13434" data-name="Path 13434" class="cls-1" d="M760.816,54.119s-4.078,7.036,1.428,8.726a1.375,1.375,0,0,0,1.629,0s-.369-.2.126-.868a3.737,3.737,0,0,0,.426-.768,1.844,1.844,0,0,0,.087-1.162h0s.181-2.46-2.75-4.927c0,0-.427-.951-.64-1.021l-.092,1.492a2.458,2.458,0,0,1,1.661.723s-1.6-.757-1.684-.5c-.017.051-.015.789-.015.789a4.121,4.121,0,0,1,2.77,1.162s-1.791-1.158-2.744-.876L761.087,58a4.252,4.252,0,0,1,3.019,1.179s-1.919-1.145-2.985-.936l.213,1.085s1.961,0,2.793,1.019c0,0-2.345-1.1-2.727-.774a5.271,5.271,0,0,0,.454,1.213s1.407.03,1.838.667c0,0-1.644-.569-1.735-.4a5.746,5.746,0,0,0,1.343,1.614,4.165,4.165,0,0,1-1.524-1.492,2.285,2.285,0,0,0,.017,1.311s-.669-.467-.179-1.6a5.364,5.364,0,0,1-.463-1.124,5.067,5.067,0,0,0-.682,1.863,2.21,2.21,0,0,1,.614-2.149l-.241-1.087a7.119,7.119,0,0,0-1.013,2.068,2.8,2.8,0,0,1,.974-2.345l-.081-1.089a8.51,8.51,0,0,0-1.155,1.88,3.363,3.363,0,0,1,1.145-2.194l.032-.736s-.64.812-.791,1.066-.241.217-.241.217a3.509,3.509,0,0,1,1.041-1.6A8.691,8.691,0,0,0,760.816,54.119Z" transform="translate(-759.362 -48.975)"/>
    </g>
    <path id="Path_13435" data-name="Path 13435" class="cls-3" d="M897.51,342.02a3.051,3.051,0,1,0,3.051,3.051A3.051,3.051,0,0,0,897.51,342.02Zm-8.92-23.94v3.051h3.051l5.492,11.125-2.3,3.737a2.934,2.934,0,0,0-.382,1.45c0,2.042,1.4,3.051,3.29,3.051h17.838V337.56H898.118a.36.36,0,0,1-.382-.382,1.927,1.927,0,0,1,.162-.38l1.524-2.407h11.365a2.985,2.985,0,0,0,2.669-1.6l5.494-9.447a1.774,1.774,0,0,0,.153-.763,1.467,1.467,0,0,0-1.527-1.45H895l-1.45-3.051Zm23.94,23.94a3.051,3.051,0,1,0,3.053,3.052A3.051,3.051,0,0,0,912.53,342.02Z" transform="translate(-708.086 -254.856)"/>
    <path id="Path_13436" data-name="Path 13436" class="cls-10" d="M914.706,326.768h-2.558V324.21h-1.919v2.558H907.67v1.919h2.558v2.558h1.919v-2.558h2.558Z" transform="translate(-714.165 -255.104)"/>
  </g>
</svg>
