<svg xmlns="http://www.w3.org/2000/svg" width="18.113" height="28.103" viewBox="0 0 18.113 28.103">
  <defs>
    <style>
      .cls-1 {
        fill: #002f33;
      }
    </style>
  </defs>
  <g id="Group_12760" data-name="Group 12760" transform="translate(-91)">
    <path id="Path_13500" data-name="Path 13500" class="cls-1" d="M99.233,18.13v1.826a2.474,2.474,0,0,0-1.647,2.328v3.348a2.47,2.47,0,1,0,4.94,0V22.285a2.474,2.474,0,0,0-1.647-2.328V18.13a9.057,9.057,0,1,0-1.647,0Zm1.647,7.5a.823.823,0,1,1-1.647,0V22.285a.823.823,0,1,1,1.647,0Zm-.823-23.986a7.437,7.437,0,1,1-7.41,7.465A7.446,7.446,0,0,1,100.057,1.647Z"/>
    <path id="Path_13501" data-name="Path 13501" class="cls-1" d="M197.887,125.7a.823.823,0,0,0,1.164,0l3.293-3.293a.823.823,0,0,0-1.164-1.164l-2.711,2.711-1.064-1.064a.823.823,0,0,0-1.164,1.164Z" transform="translate(-99.236 -114.359)"/>
  </g>
</svg>
