<svg xmlns="http://www.w3.org/2000/svg" width="21" height="27.243" viewBox="0 0 21 27.243">
  <g id="home" transform="translate(-58.667)">
    <path id="Path_13508" data-name="Path 13508" d="M69.167,0a10.512,10.512,0,0,0-10.5,10.5c0,3.256,1.685,7.038,5.008,11.241A44.7,44.7,0,0,0,68.6,27.03a.851.851,0,0,0,1.127,0,44.7,44.7,0,0,0,4.929-5.289c3.323-4.2,5.008-7.985,5.008-11.241A10.512,10.512,0,0,0,69.167,0Zm0,25.23c-2.023-1.928-8.8-8.826-8.8-14.73a8.8,8.8,0,1,1,17.595,0C77.964,16.4,71.19,23.3,69.167,25.23Z" fill="#002f33"/>
    <path id="Path_13509" data-name="Path 13509" d="M141.325,93.313,135.365,88.2a.851.851,0,0,0-1.108,0L128.3,93.313a.851.851,0,1,0,1.108,1.293l.723-.62v4.23a.851.851,0,0,0,.851.851h7.662a.851.851,0,0,0,.851-.851v-4.23l.723.62a.851.851,0,0,0,1.108-1.293Zm-3.534,4.052h-5.959V92.527l2.98-2.554,2.98,2.554Z" transform="translate(-65.644 -83.318)" fill="#002f33"/>
  </g>
</svg>
