<svg xmlns="http://www.w3.org/2000/svg" width="37.021" height="33.786" viewBox="0 0 37.021 33.786">
  <defs>
    <style>
      .cls-1, .cls-2 {
        fill: none;
        stroke: #fff;
        stroke-width: 3px;
      }

      .cls-2 {
        stroke-linejoin: round;
        stroke-miterlimit: 10;
      }

      .cls-3 {
        fill: #002f33;
      }
    </style>
  </defs>
  <g id="Group_12798" data-name="Group 12798" transform="translate(-261.814 -794.389)">
    <g id="Arrow" transform="translate(297.774 798.204) rotate(90)">
      <line id="Line_497" data-name="Line 497" class="cls-1" x2="27.917" transform="translate(0 6.311)"/>
      <path id="Path_SB" data-name="Path SB" class="cls-2" d="M6.312,12.624,0,6.312,6.312,0" transform="translate(27.917 12.624) rotate(180)"/>
    </g>
    <path id="dollar" class="cls-3" d="M23.052,19.479H16.3a3.9,3.9,0,1,1,0-7.808H27.106v-2.7H21.363V3.938h-2.7V8.969H16.3a6.607,6.607,0,1,0,0,13.213h6.757a3.909,3.909,0,0,1,3.9,3.9v.3a3.909,3.909,0,0,1-3.9,3.9H11.615v2.7h7.044v4.731h2.7V32.993h1.689a6.614,6.614,0,0,0,6.607-6.607v-.3A6.614,6.614,0,0,0,23.052,19.479Z" transform="translate(252.126 790.451)"/>
  </g>
</svg>
