<svg xmlns="http://www.w3.org/2000/svg" width="18.914" height="18.914" viewBox="0 0 18.914 18.914">
  <defs>
    <style>
      .cls-1 {
        fill: #3bc0cb;
      }
    </style>
  </defs>
  <path id="Path_2" data-name="Path 2" class="cls-1" d="M2.364,8.275A5.853,5.853,0,0,1,8.275,2.364a5.853,5.853,0,0,1,5.911,5.911,5.853,5.853,0,0,1-5.911,5.911A5.853,5.853,0,0,1,2.364,8.275ZM16.9,18.56A1.17,1.17,0,1,0,18.56,16.9L14.9,13.24A8.094,8.094,0,0,0,16.55,8.275,8.224,8.224,0,0,0,8.275,0,8.224,8.224,0,0,0,0,8.275,8.224,8.224,0,0,0,8.275,16.55,8.094,8.094,0,0,0,13.24,14.9Z"/>
</svg>
