<svg xmlns="http://www.w3.org/2000/svg" width="57" height="57" viewBox="0 0 57 57">
  <defs>
    <style>
      .cls-1, .cls-4 {
        fill: none;
      }

      .cls-1 {
        stroke: #002f33;
        stroke-width: 5px;
      }

      .cls-2 {
        fill: #ff9100;
        stroke: #ff9100;
        stroke-linecap: round;
        stroke-linejoin: round;
        stroke-width: 2.25px;
      }

      .cls-3 {
        stroke: none;
      }
    </style>
  </defs>
  <g id="Group_12774" data-name="Group 12774" transform="translate(-931.5 -48)">
    <g id="Ellipse_471" data-name="Ellipse 471" class="cls-1" transform="translate(931.5 48)">
      <circle class="cls-3" cx="28.5" cy="28.5" r="28.5"/>
      <circle class="cls-4" cx="28.5" cy="28.5" r="26"/>
    </g>
    <g id="alert" transform="translate(941.771 56.006)">
      <path id="Path_13498" data-name="Path 13498" class="cls-2" d="M18.227,5.625a1.341,1.341,0,0,0-1.352,1.352l.676,18.249a.676.676,0,0,0,.676.676h0a.676.676,0,0,0,.676-.676l.676-18.249A1.34,1.34,0,0,0,18.23,5.625Z" transform="translate(0 0)"/>
      <path id="Path_13499" data-name="Path 13499" class="cls-2" d="M19.578,29.477a1.352,1.352,0,1,1-1.352-1.352A1.352,1.352,0,0,1,19.578,29.477Z" transform="translate(0 4.535)"/>
    </g>
  </g>
</svg>
