<svg id="Heart_Icon" data-name="Heart Icon" xmlns="http://www.w3.org/2000/svg" width="32" height="32" viewBox="0 0 32 32">
  <defs>
    <style>
      .cls-1 {
        fill: #f6f6f6;
      }

      .cls-2 {
        fill: #3bc0cb;
      }
    </style>
  </defs>
  <rect id="Rectangle_3140" data-name="Rectangle 3140" class="cls-1" width="32" height="32" rx="10"/>
  <path id="heart-sharp" class="cls-2" d="M13.322,22.865l-.431-.287A29.6,29.6,0,0,1,6.34,17.4,11.2,11.2,0,0,1,3.375,9.889,5.4,5.4,0,0,1,8.687,4.5a6.028,6.028,0,0,1,4.635,2.306A6.028,6.028,0,0,1,17.958,4.5,5.4,5.4,0,0,1,23.27,9.888,11.187,11.187,0,0,1,20.305,17.4a29.547,29.547,0,0,1-6.552,5.182Z" transform="translate(2.678 2.998)"/>
</svg>
