<svg xmlns="http://www.w3.org/2000/svg" xmlns:xlink="http://www.w3.org/1999/xlink" width="71.432" height="71.377" viewBox="0 0 71.432 71.377">
  <defs>
    <style>
      .cls-1 {
        fill: url(#linear-gradient);
      }
    </style>
    <linearGradient id="linear-gradient" x1="0.5" x2="0.5" y2="1" gradientUnits="objectBoundingBox">
      <stop offset="0" stop-color="#3bc0cb"/>
      <stop offset="0" stop-color="#1eabb7"/>
      <stop offset="0" stop-color="#34b8c3"/>
      <stop offset="0" stop-color="#17bdcb"/>
      <stop offset="1" stop-color="#9ff8ff"/>
      <stop offset="1" stop-color="#1e6066"/>
    </linearGradient>
  </defs>
  <g id="Logo" transform="translate(-156.172 -312.867)">
    <path id="Path_13296" data-name="Path 13296" class="cls-1" d="M183.645,331.9h38.464l-2.748,4.757-2.743,4.757-2.752,4.757-2.743,4.762-2.752,4.757-2.743,4.757-2.748,4.762-2.748,4.757-5.5,9.515v0l-2.748,4.757-2.743-4.757-2.752-4.762-2.748-4.757L180.9,365.21l-2.752-4.762-2.743-4.757-2.752-4.757-2.743-4.762-5.5-9.515-2.748-4.757-2.748-4.757-2.748-4.761,2.748-4.753v0l2.748-4.757h60.441l2.748,4.757,0,0,2.743,4.753H172.659l-2.748,4.761h0v0l2.748,4.753,2.748,4.757v0l2.743,4.753h0v0l2.748,4.757,0,0,2.739,4.753h0l2.748,4.757v0l2.743,4.753,2.752,4.766,2.752-4.766h0l2.748-4.753v0h0l2.743-4.757v0l2.748-4.753,2.748-4.757v0H194.636v0l-2.748,4.753-2.743-4.753h0v0l-2.748-4.757v0l-2.748-4.749Z" transform="translate(0 0)"/>
  </g>
</svg>
