<svg xmlns="http://www.w3.org/2000/svg" width="27.645" height="28.596" viewBox="0 0 27.645 28.596">
  <defs>
    <style>
      .cls-1 {
        fill: #3bc0cb;
      }
    </style>
  </defs>
  <path id="moneybag_Icon" data-name="moneybag Icon" class="cls-1" d="M20.274,28.568q-1.3.029-6.451.029t-6.451-.029a31.584,31.584,0,0,1-5.515-.489Q0,27.676,0,26.725a9.583,9.583,0,0,1,.576-2.318q.576-1.742,1.267-3.657A38.856,38.856,0,0,0,3.11,16.344a19.707,19.707,0,0,0,.576-4.363q0-5.529,10.137-5.529T23.959,11.98a19.7,19.7,0,0,0,.576,4.363A38.857,38.857,0,0,0,25.8,20.749q.691,1.915,1.267,3.657a9.583,9.583,0,0,1,.576,2.318q0,.95-1.857,1.354A31.5,31.5,0,0,1,20.274,28.568ZM13.823,12.9a9.962,9.962,0,0,1,3.269.461q1.311.461,1.339,1.354v.029a.921.921,0,0,0,1.843,0q0-3.37-5.529-3.657v-.95a.921.921,0,0,0-1.843,0v.95q-5.529.288-5.529,3.657a2.9,2.9,0,0,0,.187,1.095,1.739,1.739,0,0,0,.6.763,3.9,3.9,0,0,0,.907.489,5.335,5.335,0,0,0,1.3.273q.805.087,1.555.115t1.9.029a9.782,9.782,0,0,1,3.3.475q1.31.475,1.31,1.369T17.12,20.72a9.837,9.837,0,0,1-3.3.475,9.962,9.962,0,0,1-3.269-.461q-1.311-.461-1.339-1.354v-.029a.921.921,0,0,0-1.843,0q0,3.37,5.529,3.657v.95a.921.921,0,0,0,1.843,0v-.95q5.529-.288,5.529-3.657,0-3.686-6.451-3.686-.4,0-1.008.014t-.979.029q-.375.014-.835,0a4.678,4.678,0,0,1-.749-.072,3.314,3.314,0,0,1-.547-.158.729.729,0,0,1-.374-.288.829.829,0,0,1-.115-.446q0-.893,1.325-1.368A9.813,9.813,0,0,1,13.823,12.9Zm0-8.294a26.656,26.656,0,0,0-3.168.173A23.036,23.036,0,0,1,9.633,2.434,5.746,5.746,0,0,1,9.215.921q0-.461.749-.921A6.583,6.583,0,0,0,11.72.662a8.878,8.878,0,0,0,2.1.259,8.878,8.878,0,0,0,2.1-.259A6.583,6.583,0,0,0,17.682,0q.749.461.749.921a5.748,5.748,0,0,1-.418,1.512A23.036,23.036,0,0,1,16.991,4.78a26.656,26.656,0,0,0-3.168-.173Z"/>
</svg>
