<svg xmlns="http://www.w3.org/2000/svg" width="80.264" height="19.446" viewBox="0 0 80.264 19.446">
  <defs>
    <style>
      .cls-1 {
        fill: #009ee3;
      }

      .cls-1, .cls-2, .cls-3 {
        fill-rule: evenodd;
      }

      .cls-2 {
        fill: #113984;
      }

      .cls-3 {
        fill: #172c70;
      }
    </style>
  </defs>
  <g id="Group_12757" data-name="Group 12757" transform="translate(-746 -660)">
    <g id="Group_12753" data-name="Group 12753">
      <g id="paypal-seeklogo.com" transform="translate(745.998 660)">
        <path id="Path_13326" data-name="Path 13326" class="cls-1" d="M174.262,386.87h5.485c2.945,0,4.053,1.491,3.882,3.681-.283,3.616-2.469,5.617-5.369,5.617H176.8c-.4,0-.665.263-.773.977l-.622,4.148c-.041.269-.183.425-.4.446H171.56c-.324,0-.439-.248-.354-.784l2.1-13.3A.836.836,0,0,1,174.262,386.87Z" transform="translate(-167.256 -382.293)"/>
        <path id="Path_13327" data-name="Path 13327" class="cls-2" d="M317.191,385.13c1.85,0,3.558,1,3.324,3.506-.283,2.973-1.876,4.618-4.389,4.625h-2.2c-.316,0-.469.258-.551.786l-.425,2.7c-.064.408-.273.609-.582.609H310.33c-.326,0-.439-.208-.367-.674l1.686-10.821c.084-.532.283-.731.647-.731h4.89Zm-3.327,5.794h1.664c1.041-.04,1.732-.76,1.8-2.06a1.257,1.257,0,0,0-1.362-1.373l-1.566.007-.537,3.426Zm12.206,5.6c.187-.17.377-.258.35-.048l-.067.5c-.034.262.069.4.313.4h1.815c.306,0,.454-.123.53-.6l1.118-7.02c.057-.353-.03-.525-.3-.525h-2c-.18,0-.268.1-.314.375l-.074.432c-.038.225-.142.265-.238.038-.338-.8-1.2-1.161-2.407-1.133a5,5,0,0,0-4.889,4.907,3.374,3.374,0,0,0,3.344,3.762,3.59,3.59,0,0,0,2.817-1.09h0Zm-1.521-1.08a1.824,1.824,0,0,1-1.87-2.139,2.606,2.606,0,0,1,2.506-2.139,1.824,1.824,0,0,1,1.87,2.139,2.6,2.6,0,0,1-2.506,2.139Zm9.132-6.23h-1.841c-.379,0-.534.283-.413.631l2.285,6.691-2.241,3.184c-.188.266-.042.508.222.508h2.069a.633.633,0,0,0,.614-.3L341.4,389.85c.217-.31.115-.636-.241-.636h-1.958c-.336,0-.47.133-.663.412l-2.931,4.247-1.31-4.257a.561.561,0,0,0-.62-.4Z" transform="translate(-286.373 -380.799)"/>
        <path id="Path_13328" data-name="Path 13328" class="cls-1" d="M539.86,385.113c1.85,0,3.558,1,3.324,3.506-.283,2.973-1.876,4.618-4.389,4.625H536.6c-.316,0-.469.258-.551.786l-.425,2.7c-.064.408-.273.609-.582.609H533c-.326,0-.439-.208-.367-.674l1.689-10.824c.083-.532.283-.731.647-.731h4.89Zm-3.327,5.794H538.2c1.041-.04,1.732-.76,1.8-2.06a1.257,1.257,0,0,0-1.362-1.373l-1.566.007-.537,3.426Zm12.206,5.6c.187-.17.377-.258.35-.048l-.067.5c-.034.262.069.4.313.4h1.815c.306,0,.454-.123.529-.6l1.119-7.02c.057-.353-.03-.525-.3-.525h-1.993c-.18,0-.268.1-.314.375l-.074.432c-.038.225-.142.265-.238.038-.338-.8-1.2-1.161-2.407-1.133a5,5,0,0,0-4.889,4.907,3.374,3.374,0,0,0,3.344,3.762,3.59,3.59,0,0,0,2.818-1.09h0Zm-1.519-1.08a1.824,1.824,0,0,1-1.87-2.139,2.606,2.606,0,0,1,2.506-2.139,1.824,1.824,0,0,1,1.87,2.139,2.606,2.606,0,0,1-2.506,2.139Zm8.372,1.945h-2.1a.248.248,0,0,1-.256-.283l1.841-11.661a.361.361,0,0,1,.348-.283h2.1a.248.248,0,0,1,.256.283l-1.841,11.661a.361.361,0,0,1-.348.286Z" transform="translate(-477.517 -380.782)"/>
        <path id="Path_13329" data-name="Path 13329" class="cls-2" d="M147.055,354.54h5.491c1.546,0,3.381.05,4.607,1.133a3.722,3.722,0,0,1,1.151,3.115c-.337,4.192-2.844,6.541-6.208,6.541h-2.707c-.462,0-.766.306-.9,1.133l-.756,4.814c-.05.311-.184.5-.425.518h-3.388c-.375,0-.508-.283-.411-.909l2.435-15.43A.974.974,0,0,1,147.055,354.54Z" transform="translate(-143.48 -354.54)"/>
        <path id="Path_13330" data-name="Path 13330" class="cls-3" d="M179.43,393.717l.959-6.07a.839.839,0,0,1,.956-.787h5.485a5.35,5.35,0,0,1,2.217.4c-.551,3.732-2.965,5.8-6.125,5.8h-2.7A.8.8,0,0,0,179.43,393.717Z" transform="translate(-174.339 -382.284)"/>
      </g>
    </g>
  </g>
</svg>
