<svg id="pendant" xmlns="http://www.w3.org/2000/svg" width="18.947" height="19" viewBox="0 0 18.947 19">
  <defs>
    <style>
      .cls-1 {
        fill: #002f33;
      }
    </style>
  </defs>
  <g id="Group_12745" data-name="Group 12745" transform="translate(0 0)">
    <path id="Path_13493" data-name="Path 13493" class="cls-1" d="M18.726,0a.918.918,0,0,0-.917.917.909.909,0,0,0,.058.311c-.02,0-.038-.006-.058-.006a.918.918,0,0,0-.917.917.909.909,0,0,0,.058.311c-.02,0-.038-.006-.058-.006a.918.918,0,0,0-.917.917.909.909,0,0,0,.058.311c-.02,0-.038-.006-.058-.006a.918.918,0,0,0-.917.917.909.909,0,0,0,.058.311c-.02,0-.038-.006-.058-.006a.918.918,0,0,0-.917.917.909.909,0,0,0,.058.311c-.02,0-.038-.006-.058-.006a.918.918,0,0,0-.917.917.909.909,0,0,0,.058.311c-.02,0-.038-.006-.058-.006a.918.918,0,0,0-.917.917.909.909,0,0,0,.058.311c-.02,0-.038-.006-.058-.006a.914.914,0,0,0-.806.49,1.514,1.514,0,0,0-2.665,0,.914.914,0,0,0-.806-.49c-.02,0-.039,0-.058.006a.909.909,0,0,0,.058-.311.918.918,0,0,0-.917-.917c-.02,0-.039,0-.058.006a.909.909,0,0,0,.058-.311A.918.918,0,0,0,6.2,6.112c-.02,0-.039,0-.058.006A.909.909,0,0,0,6.2,5.806a.918.918,0,0,0-.917-.917c-.02,0-.039,0-.058.006a.909.909,0,0,0,.058-.311.918.918,0,0,0-.917-.917c-.02,0-.039,0-.058.006a.909.909,0,0,0,.058-.311.918.918,0,0,0-.917-.917c-.02,0-.039,0-.058.006a.909.909,0,0,0,.058-.311.918.918,0,0,0-.917-.917c-.02,0-.039,0-.058.006A.909.909,0,0,0,2.53.917a.917.917,0,1,0-.917.917c.02,0,.039,0,.058-.006a.909.909,0,0,0-.058.311.918.918,0,0,0,.917.917c.02,0,.039,0,.058-.006a.909.909,0,0,0-.058.311.918.918,0,0,0,.917.917c.02,0,.039,0,.058-.006a.909.909,0,0,0-.058.311.918.918,0,0,0,.917.917c.02,0,.039,0,.058-.006a.909.909,0,0,0-.058.311.918.918,0,0,0,.917.917c.02,0,.039,0,.058-.006a.909.909,0,0,0-.058.311.918.918,0,0,0,.917.917c.02,0,.039,0,.058-.006a.909.909,0,0,0-.058.311.918.918,0,0,0,.917.917c.02,0,.039,0,.058-.006a.909.909,0,0,0-.058.311.916.916,0,0,0,1.569.643,1.5,1.5,0,0,0,.094.283c-.045,0-.09-.01-.135-.01a2.753,2.753,0,0,0-2.75,2.75,5.811,5.811,0,0,0,2.748,4.918l1.53.942,1.53-.942a5.812,5.812,0,0,0,2.748-4.918,2.753,2.753,0,0,0-2.75-2.75c-.046,0-.09.008-.135.01a1.534,1.534,0,0,0,.094-.283.912.912,0,0,0,1.51-.955c.02,0,.038.006.058.006a.918.918,0,0,0,.917-.917.909.909,0,0,0-.058-.311c.02,0,.038.006.058.006a.918.918,0,0,0,.917-.917A.908.908,0,0,0,15,6.717c.02,0,.038.006.058.006a.918.918,0,0,0,.917-.917.909.909,0,0,0-.058-.311c.02,0,.038.006.058.006a.909.909,0,0,0,.859-1.228c.02,0,.038.006.058.006a.918.918,0,0,0,.917-.917.908.908,0,0,0-.058-.311c.02,0,.038.006.058.006a.909.909,0,0,0,.859-1.228c.02,0,.038.006.058.006a.917.917,0,1,0,0-1.834ZM1.613,1.222A.306.306,0,1,1,1.918.917.306.306,0,0,1,1.613,1.222ZM2.53,2.445a.306.306,0,1,1,.306-.306A.306.306,0,0,1,2.53,2.445Zm.917,1.222a.306.306,0,1,1,.306-.306A.306.306,0,0,1,3.446,3.667Zm.917,1.222a.306.306,0,1,1,.306-.306A.306.306,0,0,1,4.363,4.889ZM5.28,6.112a.306.306,0,1,1,.306-.306A.306.306,0,0,1,5.28,6.112ZM6.2,7.334A.306.306,0,1,1,6.5,7.029.306.306,0,0,1,6.2,7.334Zm.917,1.222a.306.306,0,1,1,.306-.306A.306.306,0,0,1,7.113,8.557ZM8.03,9.779a.306.306,0,1,1,.306-.306A.306.306,0,0,1,8.03,9.779Zm2.139-.917a.917.917,0,1,1-.917.917A.918.918,0,0,1,10.169,8.862ZM6.5,13.141a2.125,2.125,0,0,1,.428-1.279l1.405,1.405v.307l-1.643.939A5.115,5.115,0,0,1,6.5,13.141Zm1.8,3.91a5.213,5.213,0,0,1-1.4-1.949l1.5-.859,1.341,1.609Zm.647-3.1v-.5h2.445v.5l-1.222,1.467Zm2.432,3.591-1.21.744-1.21-.745c-.055-.034-.108-.071-.161-.107l1.332-1.11.039.047.039-.047,1.332,1.11C11.487,17.467,11.434,17.5,11.379,17.538Zm.66-.487-1.439-1.2,1.341-1.609,1.5.859A5.217,5.217,0,0,1,12.039,17.051Zm1.8-3.91a5.115,5.115,0,0,1-.19,1.373L12,13.574v-.307l1.405-1.405A2.125,2.125,0,0,1,13.837,13.141ZM11.7,11a2.125,2.125,0,0,1,1.279.428l-1.405,1.405h-2.8L7.363,11.43a2.127,2.127,0,0,1,2.615.042l.191.153.191-.153A2.114,2.114,0,0,1,11.7,11Zm.611-1.222a.306.306,0,1,1,.306-.306A.306.306,0,0,1,12.309,9.779Zm.917-1.222a.306.306,0,1,1,.306-.306A.306.306,0,0,1,13.225,8.557Zm.917-1.222a.306.306,0,1,1,.306-.306A.306.306,0,0,1,14.142,7.334Zm.917-1.222a.306.306,0,1,1,.306-.306A.306.306,0,0,1,15.059,6.112Zm.917-1.222a.306.306,0,1,1,.306-.306A.306.306,0,0,1,15.976,4.889Zm.917-1.222a.306.306,0,1,1,.306-.306A.306.306,0,0,1,16.892,3.667Zm.917-1.222a.306.306,0,1,1,.306-.306A.306.306,0,0,1,17.809,2.445Zm.917-1.222a.306.306,0,1,1,.306-.306A.306.306,0,0,1,18.726,1.222Z" transform="translate(-0.696 0)"/>
  </g>
</svg>
