<svg id="Pendants" xmlns="http://www.w3.org/2000/svg" width="183" height="184" viewBox="0 0 183 184">
  <defs>
    <style>
      .cls-1 {
        fill: #002f33;
      }

      .cls-2, .cls-3 {
        fill: #fff;
      }

      .cls-2 {
        font-size: 25px;
        font-family: Raleway-Bold, Raleway;
        font-weight: 700;
      }
    </style>
  </defs>
  <rect id="Rectangle_3106" data-name="Rectangle 3106" class="cls-1" width="183" height="184" rx="35"/>
  <text id="Pendants-2" data-name="Pendants" class="cls-2" transform="translate(35 54)"><tspan x="0" y="0">Pendants</tspan></text>
  <g id="pendant" transform="translate(58 75.017)">
    <g id="Group_12745" data-name="Group 12745" transform="translate(0 0)">
      <path id="Path_13493" data-name="Path 13493" class="cls-3" d="M64.259,0a3.236,3.236,0,0,0-3.232,3.232,3.2,3.2,0,0,0,.2,1.1c-.069,0-.135-.02-.2-.02A3.236,3.236,0,0,0,57.8,7.541a3.2,3.2,0,0,0,.2,1.1c-.069,0-.135-.02-.2-.02a3.236,3.236,0,0,0-3.232,3.232,3.2,3.2,0,0,0,.2,1.1c-.069,0-.135-.02-.2-.02a3.236,3.236,0,0,0-3.232,3.232,3.2,3.2,0,0,0,.2,1.1c-.069,0-.135-.02-.2-.02A3.236,3.236,0,0,0,48.1,20.469a3.2,3.2,0,0,0,.2,1.1c-.069,0-.135-.02-.2-.02a3.236,3.236,0,0,0-3.232,3.232,3.2,3.2,0,0,0,.2,1.1c-.069,0-.135-.02-.2-.02a3.236,3.236,0,0,0-3.232,3.232,3.2,3.2,0,0,0,.2,1.1c-.069,0-.135-.02-.2-.02a3.221,3.221,0,0,0-2.843,1.728,5.337,5.337,0,0,0-9.4,0,3.221,3.221,0,0,0-2.843-1.728c-.07,0-.136.016-.2.02a3.2,3.2,0,0,0,.2-1.1,3.236,3.236,0,0,0-3.232-3.232c-.07,0-.136.016-.2.02a3.2,3.2,0,0,0,.2-1.1,3.236,3.236,0,0,0-3.232-3.232c-.07,0-.136.016-.2.02a3.2,3.2,0,0,0,.2-1.1,3.236,3.236,0,0,0-3.232-3.232c-.07,0-.136.016-.2.02a3.2,3.2,0,0,0,.2-1.1,3.236,3.236,0,0,0-3.232-3.232c-.07,0-.136.016-.2.02a3.2,3.2,0,0,0,.2-1.1,3.236,3.236,0,0,0-3.232-3.232c-.07,0-.136.016-.2.02a3.2,3.2,0,0,0,.2-1.1A3.236,3.236,0,0,0,7.16,4.309c-.07,0-.136.016-.2.02a3.2,3.2,0,0,0,.2-1.1A3.232,3.232,0,1,0,3.928,6.464c.07,0,.136-.016.2-.02a3.2,3.2,0,0,0-.2,1.1A3.236,3.236,0,0,0,7.16,10.773c.07,0,.136-.016.2-.02a3.2,3.2,0,0,0-.2,1.1,3.236,3.236,0,0,0,3.232,3.232c.07,0,.136-.016.2-.02a3.2,3.2,0,0,0-.2,1.1,3.236,3.236,0,0,0,3.232,3.232c.07,0,.136-.016.2-.02a3.2,3.2,0,0,0-.2,1.1A3.236,3.236,0,0,0,16.856,23.7c.07,0,.136-.016.2-.02a3.2,3.2,0,0,0-.2,1.1,3.236,3.236,0,0,0,3.232,3.232c.07,0,.136-.016.2-.02a3.2,3.2,0,0,0-.2,1.1A3.236,3.236,0,0,0,23.32,32.32c.07,0,.136-.016.2-.02a3.2,3.2,0,0,0-.2,1.1,3.229,3.229,0,0,0,5.53,2.268,5.277,5.277,0,0,0,.333,1c-.159-.008-.316-.034-.476-.034a9.707,9.707,0,0,0-9.7,9.7A20.488,20.488,0,0,0,28.7,63.663l5.4,3.319,5.4-3.319a20.488,20.488,0,0,0,9.687-17.338,9.707,9.707,0,0,0-9.7-9.7c-.161,0-.316.027-.475.034a5.406,5.406,0,0,0,.333-1A3.217,3.217,0,0,0,44.662,32.3c.069,0,.135.02.2.02A3.236,3.236,0,0,0,48.1,29.088a3.2,3.2,0,0,0-.2-1.1c.069,0,.135.02.2.02a3.236,3.236,0,0,0,3.232-3.232,3.2,3.2,0,0,0-.2-1.1c.069,0,.135.02.2.02a3.236,3.236,0,0,0,3.232-3.232,3.2,3.2,0,0,0-.2-1.1c.069,0,.135.02.2.02a3.2,3.2,0,0,0,3.027-4.33c.069,0,.135.02.2.02a3.236,3.236,0,0,0,3.232-3.232,3.2,3.2,0,0,0-.2-1.1c.069,0,.135.02.2.02a3.2,3.2,0,0,0,3.027-4.33c.069,0,.135.02.2.02a3.232,3.232,0,1,0,0-6.464ZM3.928,4.309A1.077,1.077,0,1,1,5.005,3.232,1.078,1.078,0,0,1,3.928,4.309ZM7.16,8.619A1.077,1.077,0,1,1,8.237,7.541,1.078,1.078,0,0,1,7.16,8.619Zm3.232,4.309a1.077,1.077,0,1,1,1.077-1.077A1.078,1.078,0,0,1,10.392,12.928Zm3.232,4.309A1.077,1.077,0,1,1,14.7,16.16,1.078,1.078,0,0,1,13.624,17.237Zm3.232,4.309a1.077,1.077,0,1,1,1.077-1.077A1.078,1.078,0,0,1,16.856,21.547Zm3.232,4.309a1.077,1.077,0,1,1,1.077-1.077A1.078,1.078,0,0,1,20.088,25.856Zm3.232,4.309A1.077,1.077,0,1,1,24.4,29.088,1.078,1.078,0,0,1,23.32,30.166Zm3.232,4.309A1.077,1.077,0,1,1,27.63,33.4,1.078,1.078,0,0,1,26.552,34.475Zm7.541-3.232a3.232,3.232,0,1,1-3.232,3.232A3.236,3.236,0,0,1,34.094,31.243ZM21.165,46.326a7.49,7.49,0,0,1,1.51-4.508l4.954,4.954v1.084l-5.793,3.31A18.034,18.034,0,0,1,21.165,46.326ZM27.5,60.111a18.377,18.377,0,0,1-4.953-6.872l5.3-3.028,4.726,5.672Zm2.282-10.944V47.4H38.4v1.765l-4.309,5.171Zm8.575,12.661-4.265,2.624-4.265-2.625c-.194-.12-.379-.25-.568-.376l4.7-3.913.138.166.138-.166,4.7,3.913C38.738,61.579,38.553,61.709,38.359,61.829Zm2.326-1.717-5.073-4.228,4.726-5.672,5.3,3.028A18.391,18.391,0,0,1,40.685,60.111Zm6.337-13.786a18.034,18.034,0,0,1-.671,4.839l-5.793-3.31V46.772l4.954-4.954A7.49,7.49,0,0,1,47.022,46.326ZM39.48,38.784a7.491,7.491,0,0,1,4.508,1.51l-4.954,4.954H29.153L24.2,40.295a7.5,7.5,0,0,1,9.22.15l.674.541.674-.541A7.454,7.454,0,0,1,39.48,38.784Zm2.155-4.309A1.077,1.077,0,1,1,42.712,33.4,1.078,1.078,0,0,1,41.635,34.475Zm3.232-4.309a1.077,1.077,0,1,1,1.077-1.077A1.078,1.078,0,0,1,44.867,30.166ZM48.1,25.856a1.077,1.077,0,1,1,1.077-1.077A1.078,1.078,0,0,1,48.1,25.856Zm3.232-4.309a1.077,1.077,0,1,1,1.077-1.077A1.078,1.078,0,0,1,51.331,21.547Zm3.232-4.309A1.077,1.077,0,1,1,55.64,16.16,1.078,1.078,0,0,1,54.563,17.237ZM57.8,12.928a1.077,1.077,0,1,1,1.077-1.077A1.078,1.078,0,0,1,57.8,12.928Zm3.232-4.309A1.077,1.077,0,1,1,62.1,7.541,1.078,1.078,0,0,1,61.027,8.619Zm3.232-4.309a1.077,1.077,0,1,1,1.077-1.077A1.078,1.078,0,0,1,64.259,4.309Z" transform="translate(-0.696 0)"/>
    </g>
  </g>
</svg>
