<svg xmlns="http://www.w3.org/2000/svg" width="12.891" height="20" viewBox="0 0 12.891 20">
  <defs>
    <style>
      .cls-1 {
        fill: #fff;
      }
    </style>
  </defs>
  <g id="Group_12761" data-name="Group 12761" transform="translate(-91)">
    <path id="Path_13500" data-name="Path 13500" class="cls-1" d="M96.859,12.9v1.3a1.761,1.761,0,0,0-1.172,1.657v2.383a1.758,1.758,0,1,0,3.516,0V15.859A1.761,1.761,0,0,0,98.031,14.2V12.9a6.445,6.445,0,1,0-1.172,0Zm1.172,5.339a.586.586,0,1,1-1.172,0V15.859a.586.586,0,1,1,1.172,0Zm-.586-17.07a5.293,5.293,0,1,1-5.273,5.312A5.3,5.3,0,0,1,97.445,1.172Z"/>
    <path id="Path_13501" data-name="Path 13501" class="cls-1" d="M197.343,124.345a.586.586,0,0,0,.829,0L200.515,122a.586.586,0,0,0-.829-.829l-1.929,1.929-.758-.758a.586.586,0,0,0-.829.829Z" transform="translate(-100.898 -116.274)"/>
  </g>
</svg>
