<svg id="Rings" xmlns="http://www.w3.org/2000/svg" width="184" height="184" viewBox="0 0 184 184">
  <defs>
    <style>
      .cls-1 {
        fill: #f6f6f6;
      }

      .cls-2, .cls-3 {
        fill: #002f33;
      }

      .cls-2 {
        font-size: 25px;
        font-family: Raleway-Bold, Raleway;
        font-weight: 700;
      }
    </style>
  </defs>
  <g id="Group_12777" data-name="Group 12777">
    <rect id="Rectangle_3104" data-name="Rectangle 3104" class="cls-1" width="184" height="184" rx="35"/>
    <text id="Rings-2" data-name="Rings" class="cls-2" transform="translate(59 54)"><tspan x="0" y="0">Rings</tspan></text>
    <g id="ring" transform="translate(46 75.017)">
      <g id="Group_12743" data-name="Group 12743" transform="translate(0 0)">
        <path id="Path_13486" data-name="Path 13486" class="cls-3" d="M45.677,68.3C20.491,68.3,0,80.944,0,96.491c0,11.582,11.071,21.745,28.266,26.057a18.271,18.271,0,0,0,34.821,0c17.2-4.312,28.266-14.475,28.266-26.057C91.354,80.944,70.863,68.3,45.677,68.3Zm-14.553,44.24,5.417,1.809v5.347L31.124,121.5A15.2,15.2,0,0,1,31.124,112.536ZM45.677,85.044c14.743,0,27.586,4.67,31.06,11.182-2.162,4.21-8.094,7.891-16.368,9.974a18.207,18.207,0,0,0-29.386,0c-8.274-2.083-14.206-5.764-16.368-9.974C18.091,89.714,30.934,85.044,45.677,85.044ZM13.755,92.222c.557-8.064,14.924-14.79,31.922-14.79S77.042,84.158,77.6,92.222C72.1,86.067,59.837,82,45.677,82S19.25,86.067,13.755,92.222Zm25.833,27.872v-6.137a1.377,1.377,0,0,0,.09-.171v-.029l2.741-2.741h.029a1.42,1.42,0,0,0,.152-.09h6.157a1.416,1.416,0,0,0,.152.09h.029l2.741,2.741v.029a1.429,1.429,0,0,0,.09.171V120.1a1.408,1.408,0,0,0-.09.152v.029l-2.741,2.739h-.027a1.4,1.4,0,0,0-.152.09H42.6a1.413,1.413,0,0,0-.152-.09h-.027l-2.741-2.741v-.029A1.33,1.33,0,0,0,39.588,120.094ZM38.38,103.661l1.773,5.314L37.63,111.5l-5.315-1.775A15.343,15.343,0,0,1,38.38,103.661Zm2.813-1.192a15.208,15.208,0,0,1,8.968,0l-1.809,5.414H43Zm10,6.506,1.774-5.315a15.342,15.342,0,0,1,6.067,6.063h0L53.718,111.5Zm-12.812,21.4a15.342,15.342,0,0,1-6.064-6.063l5.315-1.775,2.523,2.523Zm2.811,1.191L43,126.154h5.35l1.809,5.414A15.209,15.209,0,0,1,41.193,131.568Zm11.779-1.191L51.2,125.062l2.523-2.523,5.315,1.775A15.343,15.343,0,0,1,52.972,130.377Zm7.255-8.877-5.414-1.809v-5.347l5.414-1.809A15.2,15.2,0,0,1,60.227,121.5Zm3.576-2.29a17.76,17.76,0,0,0-1.774-10.292C73.595,105.794,80.7,99.679,80.7,92.694c0-10.265-15.378-18.307-35.019-18.307S10.658,82.428,10.658,92.694c0,6.986,7.1,13.094,18.667,16.224a17.761,17.761,0,0,0-1.766,10.292C12.8,115.1,3.045,106.156,3.045,96.491c0-13.868,19.125-25.15,42.632-25.15s42.632,11.282,42.632,25.15C88.309,106.156,78.553,115.1,63.8,119.211Z" transform="translate(0 -68.296)"/>
      </g>
    </g>
  </g>
</svg>
