<svg xmlns="http://www.w3.org/2000/svg" width="19.913" height="14.601" viewBox="0 0 19.913 14.601">
  <defs>
    <style>
      .cls-1 {
        fill: #002f33;
      }
    </style>
  </defs>
  <path id="Path_13486" data-name="Path 13486" class="cls-1" d="M9.957,68.3C4.467,68.3,0,71.053,0,74.442c0,2.525,2.413,4.74,6.161,5.68a3.983,3.983,0,0,0,7.59,0c3.748-.94,6.161-3.155,6.161-5.68C19.913,71.053,15.447,68.3,9.957,68.3ZM6.784,77.939l1.181.394V79.5l-1.181.394A3.314,3.314,0,0,1,6.784,77.939Zm3.172-5.993c3.214,0,6.013,1.018,6.77,2.437-.471.918-1.764,1.72-3.568,2.174a3.969,3.969,0,0,0-6.405,0c-1.8-.454-3.1-1.257-3.568-2.174C3.943,72.965,6.743,71.947,9.957,71.947ZM3,73.511c.121-1.758,3.253-3.224,6.958-3.224s6.837,1.466,6.958,3.224c-1.2-1.341-3.872-2.228-6.958-2.228S4.2,72.17,3,73.511Zm5.631,6.076V78.249a.3.3,0,0,0,.02-.037v-.006l.6-.6h.006l.033-.02h1.342l.033.02h.006l.6.6v.006a.312.312,0,0,0,.02.037v1.338a.308.308,0,0,0-.02.033v.006l-.6.6h-.006l-.033.02H9.285l-.033-.02H9.246l-.6-.6V79.62A.291.291,0,0,0,8.629,79.587ZM8.366,76l.387,1.158-.55.55-1.159-.387A3.345,3.345,0,0,1,8.366,76Zm.613-.26a3.315,3.315,0,0,1,1.955,0l-.394,1.18H9.373Zm2.18,1.418L11.546,76a3.344,3.344,0,0,1,1.323,1.322h0l-1.159.387ZM8.367,81.828a3.344,3.344,0,0,1-1.322-1.322L8.2,80.12l.55.55Zm.613.26.394-1.18H10.54l.394,1.18A3.315,3.315,0,0,1,8.979,82.088Zm2.567-.26L11.16,80.67l.55-.55,1.159.387A3.344,3.344,0,0,1,11.547,81.828Zm1.581-1.935-1.18-.394V78.334l1.18-.394A3.313,3.313,0,0,1,13.128,79.893Zm.78-.5a3.871,3.871,0,0,0-.387-2.244c2.521-.681,4.069-2.014,4.069-3.537,0-2.238-3.352-3.991-7.633-3.991s-7.633,1.753-7.633,3.991c0,1.523,1.548,2.854,4.069,3.537a3.872,3.872,0,0,0-.385,2.244C2.79,78.5.664,76.549.664,74.442c0-3.023,4.169-5.482,9.293-5.482s9.293,2.459,9.293,5.482C19.249,76.549,17.123,78.5,13.908,79.394Z" transform="translate(0 -68.296)"/>
</svg>
