<svg xmlns="http://www.w3.org/2000/svg" width="21" height="24.889" viewBox="0 0 21 24.889">
  <path id="Path_13510" data-name="Path 13510" d="M60.4,4.03,50.873.074a.972.972,0,0,0-.746,0L40.6,4.03a.972.972,0,0,0-.6.9V9.737a16.281,16.281,0,0,0,10.133,15.08.972.972,0,0,0,.735,0A16.282,16.282,0,0,0,61,9.737V4.928A.972.972,0,0,0,60.4,4.03ZM59.056,9.737A14.34,14.34,0,0,1,50.5,22.861,14.341,14.341,0,0,1,41.944,9.737V5.577L50.5,2.025l8.556,3.552Zm-9.63,3.277L53.6,8.835a.972.972,0,1,1,1.375,1.375l-4.866,4.866a.972.972,0,0,1-1.375,0l-2.717-2.717A.972.972,0,1,1,47.4,10.984Z" transform="translate(-40 0)" fill="#002f33"/>
</svg>
