<svg xmlns="http://www.w3.org/2000/svg" width="32" height="32" viewBox="0 0 32 32">
  <defs>
    <style>
      .cls-1 {
        fill: rgba(246,246,246,0.1);
      }

      .cls-2 {
        fill: none;
        stroke: #3bc0cb;
        stroke-linecap: round;
      }
    </style>
  </defs>
  <g id="Group_12786" data-name="Group 12786" transform="translate(24056 11244)">
    <rect id="Rectangle_3234" data-name="Rectangle 3234" class="cls-1" width="32" height="32" rx="10" transform="translate(-24056 -11244)"/>
    <path id="Path_13344" data-name="Path 13344" class="cls-2" d="M163.239,317.763h9.894l-.707,1.224-.706,1.224-.708,1.224-.706,1.225-.708,1.224-.706,1.224-.707,1.225-.707,1.224L166.066,330h0l-.707,1.224L164.654,330l-.708-1.225-.707-1.224-.706-1.224-.708-1.225-.706-1.224-.708-1.224-.706-1.225-1.414-2.447-.707-1.224-.707-1.224-.707-1.225.707-1.223h0l.707-1.224h15.547l.707,1.224h0l.706,1.223H160.413l-.707,1.225h0l.707,1.223.707,1.224h0l.706,1.223h0l.707,1.224h0l.7,1.223h0l.707,1.224h0l.706,1.223.708,1.226.708-1.226h0l.707-1.223h0l.706-1.224h0l.707-1.223.707-1.224h-2.827l-.707,1.223-.706-1.223h0l-.707-1.224h0l-.707-1.222Z" transform="translate(-24205.359 -11550.047)"/>
  </g>
</svg>
