<svg xmlns="http://www.w3.org/2000/svg" width="32" height="32" viewBox="0 0 32 32">
  <defs>
    <style>
      .cls-1 {
        fill: rgba(246,246,246,0.1);
      }

      .cls-2 {
        fill: #002f33;
      }
    </style>
  </defs>
  <g id="Group_12785" data-name="Group 12785" transform="translate(20943 11247)">
    <rect id="Rectangle_3237" data-name="Rectangle 3237" class="cls-1" width="32" height="32" rx="10" transform="translate(-20943 -11247)"/>
    <g id="Layer_3" data-name="Layer 3" transform="translate(-20939.955 -11244.408)">
      <path id="Path_13316" data-name="Path 13316" class="cls-2" d="M3.139,12.9a.959.959,0,1,0-.283.681A.959.959,0,0,0,3.139,12.9Z" transform="translate(0 -2.58)"/>
      <path id="Path_13317" data-name="Path 13317" class="cls-2" d="M23,13.455a14.047,14.047,0,0,0-3.161.987,15.669,15.669,0,0,0-2.4,1.45,12.211,12.211,0,0,1-1.208-1.933A32.891,32.891,0,0,1,14.3,8.651a.722.722,0,0,0-1.381,0,32.242,32.242,0,0,1-1.933,5.308,11.734,11.734,0,0,1-1.215,1.933,15.669,15.669,0,0,0-2.4-1.45,14.261,14.261,0,0,0-3.161-.987.695.695,0,0,0-.752.994,34.6,34.6,0,0,1,2.989,9.588.69.69,0,0,0,.69.573H20.112a.69.69,0,0,0,.69-.573,34.616,34.616,0,0,1,2.94-9.588A.692.692,0,0,0,23,13.455Zm-3.465,9.774H7.7a38.419,38.419,0,0,0-2.347-8.083,10.871,10.871,0,0,1,1.443.538,13.805,13.805,0,0,1,2.657,1.691.69.69,0,0,0,.959-.062,13.308,13.308,0,0,0,1.843-2.761,30,30,0,0,0,1.381-3.375,28.811,28.811,0,0,0,1.381,3.375,13.75,13.75,0,0,0,1.836,2.761.69.69,0,0,0,.966.062,13.26,13.26,0,0,1,2.657-1.691,10.2,10.2,0,0,1,1.443-.538,38.012,38.012,0,0,0-2.381,8.083Z" transform="translate(-0.67 -1.403)"/>
      <path id="Path_13318" data-name="Path 13318" class="cls-2" d="M34.359,12.9a.959.959,0,1,1-.959-.959A.959.959,0,0,1,34.359,12.9Z" transform="translate(-9.67 -2.58)"/>
      <path id="Path_13319" data-name="Path 13319" class="cls-2" d="M17.793,5.529a.959.959,0,1,0-.953-.959.959.959,0,0,0,.953.959Z" transform="translate(-4.838 0)"/>
      <path id="Path_13320" data-name="Path 13320" class="cls-2" d="M17.883,26.34a.766.766,0,1,0,.759.759A.766.766,0,0,0,17.883,26.34Z" transform="translate(-4.922 -7.04)"/>
      <path id="Path_13321" data-name="Path 13321" class="cls-2" d="M12.233,26.34a.766.766,0,1,0,.759.759A.766.766,0,0,0,12.233,26.34Z" transform="translate(-3.172 -7.04)"/>
      <path id="Path_13322" data-name="Path 13322" class="cls-2" d="M23.543,26.34a.766.766,0,1,0,.759.759A.766.766,0,0,0,23.543,26.34Z" transform="translate(-6.675 -7.04)"/>
    </g>
  </g>
</svg>
