<svg xmlns="http://www.w3.org/2000/svg" width="184" height="184" viewBox="0 0 184 184">
  <defs>
    <style>
      .cls-1 {
        fill: #f6f6f6;
      }

      .cls-2 {
        fill: #002f33;
      }

      .cls-3 {
        fill: #3bc0cb;
        font-size: 16px;
        font-family: Raleway-Regular, Raleway;
        text-decoration: underline;
      }
    </style>
  </defs>
  <g id="Group_12797" data-name="Group 12797" transform="translate(-466 -289)">
    <rect id="Rectangle_3108" data-name="Rectangle 3108" class="cls-1" width="184" height="184" rx="35" transform="translate(466 289)"/>
    <g id="software-upload" transform="translate(540 363)">
      <path id="Path_13496" data-name="Path 13496" class="cls-2" d="M16.5,22.479a1.5,1.5,0,1,0,3,0V11.742l4.864,4.864,2.121-2.121L18,6,9.514,14.486l2.121,2.121L16.5,11.745V22.481Z"/>
      <path id="Path_13497" data-name="Path 13497" class="cls-2" d="M6,21H9v6H27V21h3v6a3,3,0,0,1-3,3H9a3,3,0,0,1-3-3Z"/>
    </g>
    <text id="Upload_Images" data-name="Upload Images" class="cls-3" transform="translate(502 439)"><tspan x="0" y="0">Upload Images</tspan></text>
  </g>
</svg>
