<svg id="user-admin" xmlns="http://www.w3.org/2000/svg" width="13.571" height="19" viewBox="0 0 13.571 19">
  <defs>
    <style>
      .cls-1 {
        fill: #fff;
      }
    </style>
  </defs>
  <path id="Path_13310" data-name="Path 13310" class="cls-1" d="M10.375,3.607A3.393,3.393,0,1,1,6.982,7a3.393,3.393,0,0,1,3.393-3.393m0-1.357A4.75,4.75,0,1,0,15.125,7,4.75,4.75,0,0,0,10.375,2.25Z" transform="translate(-3.589 -2.25)"/>
  <path id="Path_13311" data-name="Path 13311" class="cls-1" d="M15.821,28.393H14.464V25a3.393,3.393,0,0,0-3.393-3.393H7A3.393,3.393,0,0,0,3.607,25v3.393H2.25V25A4.75,4.75,0,0,1,7,20.25h4.071A4.75,4.75,0,0,1,15.821,25Z" transform="translate(-2.25 -9.393)"/>
</svg>
