<svg xmlns="http://www.w3.org/2000/svg" width="21" height="21" viewBox="0 0 21 21">
  <g id="Group_12781" data-name="Group 12781" transform="translate(-2.25 -2.25)">
    <path id="Path_13277" data-name="Path 13277" d="M12.75,2.25a10.5,10.5,0,1,0,10.5,10.5A10.5,10.5,0,0,0,12.75,2.25Zm6,17.189v-.456A3.907,3.907,0,0,0,15,15H10.5a3.9,3.9,0,0,0-3.743,3.983c0,.008-.007.017-.007.025v.439a9,9,0,1,1,12-.007Z" fill="#002f33"/>
    <path id="Path_13278" data-name="Path 13278" d="M16.125,7.875a3.75,3.75,0,1,0,3.75,3.75A3.75,3.75,0,0,0,16.125,7.875Z" transform="translate(-3.375 -1.875)" fill="#002f33"/>
  </g>
</svg>
