<svg xmlns="http://www.w3.org/2000/svg" width="56.563" height="18.284" viewBox="0 0 56.563 18.284">
  <path id="Icon_payment-visa" data-name="Icon payment-visa" d="M12.1,20.872a1.841,1.841,0,0,0-2.071-1.492h-7.4l-.054.358c5.081,1.3,9.253,4.061,11.131,9.281l-1.6-8.147Zm2.071,10.606L13.7,29.019A11.088,11.088,0,0,0,7.734,23l3.729,14.086H16.3l7.21-17.7H18.644l-4.474,12.1Zm12.9,5.633L29.94,19.38H25.356L22.483,37.11Zm12.51-18.034c-4.53,0-7.7,2.4-7.733,5.854-.028,2.543,2.265,3.95,4,4.807,1.8.856,2.376,1.436,2.376,2.208,0,1.188-1.436,1.713-2.734,1.713a8.689,8.689,0,0,1-4.308-.912l-.608-.3L29.94,36.42a13.358,13.358,0,0,0,5.109.94c4.806.028,7.928-2.376,7.982-6.048,0-2.017-1.242-3.535-3.867-4.807-1.6-.8-2.567-1.381-2.567-2.208,0-.745.828-1.52,2.623-1.52a7.618,7.618,0,0,1,3.424.665l.415.219.634-3.839a11.394,11.394,0,0,0-4.115-.746Zm12.319.3a2.267,2.267,0,0,0-2.4,1.492L42.7,37.11h4.806c.775-2.18.968-2.652.968-2.652h5.854s.139.608.551,2.652h4.254l-3.7-17.73H51.9ZM49.77,30.815s.386-1.023,1.824-4.944c-.028.028.386-1.023.608-1.685l.33,1.52c.856,4.226,1.051,5.109,1.051,5.109Z" transform="translate(-2.571 -19.076)"/>
</svg>
