<svg id="Watches" xmlns="http://www.w3.org/2000/svg" width="183" height="184" viewBox="0 0 183 184">
  <defs>
    <style>
      .cls-1 {
        fill: #f6f6f6;
      }

      .cls-2, .cls-3 {
        fill: #002f33;
      }

      .cls-2 {
        font-size: 25px;
        font-family: Raleway-Bold, Raleway;
        font-weight: 700;
      }
    </style>
  </defs>
  <rect id="Rectangle_3107" data-name="Rectangle 3107" class="cls-1" width="183" height="184" rx="35"/>
  <text id="Watches-2" data-name="Watches" class="cls-2" transform="translate(39 54)"><tspan x="0" y="0">Watches</tspan></text>
  <g id="time" transform="translate(65 75.017)">
    <g id="Group_12744" data-name="Group 12744" transform="translate(0 0)">
      <path id="Path_13490" data-name="Path 13490" class="cls-3" d="M104.535,96a20.527,20.527,0,1,0,20.527,20.527A20.55,20.55,0,0,0,104.535,96Zm1.08,38.86v-2.128a1.08,1.08,0,0,0-2.161,0v2.128A18.392,18.392,0,0,1,86.2,117.607H88.87a1.08,1.08,0,0,0,0-2.161H86.2a18.392,18.392,0,0,1,17.253-17.253v2.128a1.08,1.08,0,0,0,2.161,0V98.193a18.392,18.392,0,0,1,17.253,17.253H120.2a1.08,1.08,0,0,0,0,2.161h2.668A18.391,18.391,0,0,1,105.615,134.86Z" transform="translate(-79.684 -83.036)"/>
      <path id="Path_13491" data-name="Path 13491" class="cls-3" d="M230.169,171.437V161.08a1.08,1.08,0,0,0-2.161,0v10.8a1.081,1.081,0,0,0,.316.764l5.4,5.4a1.08,1.08,0,1,0,1.528-1.528Z" transform="translate(-204.238 -138.393)"/>
      <path id="Path_13492" data-name="Path 13492" class="cls-3" d="M103.851,29.17h-2.537A24.9,24.9,0,0,0,91,13.079L88.707.882A1.08,1.08,0,0,0,87.646,0H66.039a1.08,1.08,0,0,0-1.061.882l-2.288,12.2a24.826,24.826,0,0,0,0,40.824l2.288,12.2a1.08,1.08,0,0,0,1.061.882H87.646a1.08,1.08,0,0,0,1.061-.882L91,53.9a24.9,24.9,0,0,0,10.319-16.091h2.537a1.08,1.08,0,0,0,1.08-1.08V30.25A1.08,1.08,0,0,0,103.851,29.17ZM74.682,2.161H79V4.321H74.682Zm-7.746,0h5.585V5.4a1.08,1.08,0,0,0,1.08,1.08h6.482a1.08,1.08,0,0,0,1.08-1.08V2.161h5.585l1.762,9.4a24.8,24.8,0,0,0-23.339,0ZM79,64.822H74.682V62.661H79Zm7.746,0H81.164V61.581a1.08,1.08,0,0,0-1.08-1.08H73.6a1.08,1.08,0,0,0-1.08,1.08v3.241H66.935l-1.762-9.4a24.8,24.8,0,0,0,23.339,0Zm-9.907-8.643A22.688,22.688,0,1,1,99.53,33.491,22.713,22.713,0,0,1,76.842,56.179Zm25.929-20.527h-1.08V31.331h1.08Z" transform="translate(-51.992 0)"/>
    </g>
  </g>
</svg>
