<svg id="time" xmlns="http://www.w3.org/2000/svg" width="15.017" height="19" viewBox="0 0 15.017 19">
  <defs>
    <style>
      .cls-1 {
        fill: #002f33;
      }
    </style>
  </defs>
  <g id="Group_12744" data-name="Group 12744" transform="translate(0 0)">
    <path id="Path_13490" data-name="Path 13490" class="cls-1" d="M89.831,96a5.823,5.823,0,1,0,5.823,5.823A5.829,5.829,0,0,0,89.831,96Zm.306,11.023v-.6a.306.306,0,0,0-.613,0v.6a5.217,5.217,0,0,1-4.894-4.894h.757a.306.306,0,1,0,0-.613H84.63a5.217,5.217,0,0,1,4.894-4.894v.6a.306.306,0,0,0,.613,0v-.6a5.217,5.217,0,0,1,4.894,4.894h-.757a.306.306,0,0,0,0,.613h.757A5.217,5.217,0,0,1,90.137,107.023Z" transform="translate(-82.782 -92.323)"/>
    <path id="Path_13491" data-name="Path 13491" class="cls-1" d="M228.621,163.244v-2.938a.306.306,0,0,0-.613,0v3.065a.306.306,0,0,0,.09.217l1.532,1.532a.306.306,0,0,0,.433-.433Z" transform="translate(-221.265 -153.871)"/>
    <path id="Path_13492" data-name="Path 13492" class="cls-1" d="M66.7,8.274h-.72A7.062,7.062,0,0,0,63.055,3.71L62.406.25a.306.306,0,0,0-.3-.25H55.976a.306.306,0,0,0-.3.25l-.649,3.46a7.042,7.042,0,0,0,0,11.58l.649,3.46a.306.306,0,0,0,.3.25h6.129a.306.306,0,0,0,.3-.25l.649-3.46a7.062,7.062,0,0,0,2.927-4.564h.72a.306.306,0,0,0,.306-.306V8.581A.306.306,0,0,0,66.7,8.274ZM58.428.613h1.226v.613H58.428Zm-2.2,0h1.584v.919a.306.306,0,0,0,.306.306H59.96a.306.306,0,0,0,.306-.306V.613h1.584l.5,2.666a7.035,7.035,0,0,0-6.62,0Zm3.423,17.774H58.428v-.613h1.226Zm2.2,0H60.267v-.919a.306.306,0,0,0-.306-.306H58.121a.306.306,0,0,0-.306.306v.919H56.231l-.5-2.666a7.035,7.035,0,0,0,6.62,0Zm-2.81-2.452A6.435,6.435,0,1,1,65.476,9.5,6.443,6.443,0,0,1,59.041,15.935ZM66.4,10.113h-.306V8.887H66.4Z" transform="translate(-51.992 0)"/>
  </g>
</svg>
