<svg xmlns="http://www.w3.org/2000/svg" width="40" height="40" viewBox="0 0 40 40">
  <defs>
    <style>
      .cls-1 {
        fill: #f6f6f6;
      }

      .cls-2, .cls-3 {
        fill: none;
        stroke: #ff7272;
        stroke-linecap: round;
      }

      .cls-3 {
        stroke-linejoin: round;
        stroke-miterlimit: 10;
      }

      .cls-4 {
        fill: #002f33;
      }
    </style>
  </defs>
  <g id="Group_12772" data-name="Group 12772" transform="translate(-4627 10327)">
    <rect id="Rectangle_3287" data-name="Rectangle 3287" class="cls-1" width="40" height="40" rx="7" transform="translate(4627 -10327)"/>
    <g id="Withdraw_icon" data-name="Withdraw icon" transform="translate(4378.186 -11109.499)">
      <g id="Arrow" transform="translate(1.467 1553.124) rotate(-90)">
        <line id="Line_497" data-name="Line 497" class="cls-2" x2="11.751" transform="translate(745.249 274)"/>
        <path id="Path_SB" data-name="Path SB" class="cls-3" d="M2.657,5.314,0,2.657,2.657,0" transform="translate(757 276.657) rotate(180)"/>
      </g>
      <path id="dollar" class="cls-4" d="M15.708,10.939H12.664a1.759,1.759,0,0,1,0-3.517h4.87V6.2H14.947V3.938H13.73V6.2H12.664a2.976,2.976,0,1,0,0,5.952h3.044a1.761,1.761,0,0,1,1.759,1.759v.135a1.761,1.761,0,0,1-1.759,1.759H10.556v1.218h3.173v2.131h1.218V17.027h.761a2.98,2.98,0,0,0,2.976-2.976v-.135A2.98,2.98,0,0,0,15.708,10.939Z" transform="translate(252.126 790.451)"/>
    </g>
  </g>
</svg>
