<svg xmlns="http://www.w3.org/2000/svg" width="13.501" height="11.425" viewBox="0 0 13.501 11.425">
  <defs>
    <style>
      .cls-1 {
        fill: #ff7272;
      }
    </style>
  </defs>
  <g id="Group_12734" data-name="Group 12734" transform="translate(-3.375 -5.625)">
    <path id="Path_13281" data-name="Path 13281" class="cls-1" d="M11.945,15.1a.456.456,0,0,0-.454.454.586.586,0,0,1-.584.584H4.868a.586.586,0,0,1-.584-.584V7.118a.586.586,0,0,1,.584-.584h6.037a.586.586,0,0,1,.584.584.454.454,0,1,0,.909,0,1.493,1.493,0,0,0-1.493-1.493H4.868A1.493,1.493,0,0,0,3.375,7.118v8.439A1.493,1.493,0,0,0,4.868,17.05h6.037A1.493,1.493,0,0,0,12.4,15.557a.456.456,0,0,0-.454-.454Z"/>
    <path id="Path_13282" data-name="Path 13282" class="cls-1" d="M17.707,10.961a.451.451,0,0,0-.321-.133.444.444,0,0,0-.321.133.452.452,0,0,0,0,.643l2.116,2.084H10.861a.454.454,0,0,0,0,.909H19.19l-2.064,2.081a.458.458,0,0,0,0,.643l0,0a.469.469,0,0,0,.318.126.438.438,0,0,0,.321-.133l2.681-2.675a.638.638,0,0,0,0-.948L17.707,10.96Z" transform="translate(-3.785 -2.801)"/>
  </g>
</svg>
