<svg xmlns="http://www.w3.org/2000/svg" width="13.155" height="11.134" viewBox="0 0 13.155 11.134">
  <defs>
    <style>
      .cls-1 {
        fill: #3bc0cb;
      }
    </style>
  </defs>
  <g id="ios-log-out" transform="translate(16.53 16.759) rotate(180)">
    <path id="Path_13281" data-name="Path 13281" class="cls-1" d="M11.726,14.861a.444.444,0,0,0-.443.443.571.571,0,0,1-.57.57H4.83a.571.571,0,0,1-.57-.57V7.08a.571.571,0,0,1,.57-.57h5.883a.571.571,0,0,1,.57.57.443.443,0,1,0,.885,0,1.455,1.455,0,0,0-1.455-1.455H4.83A1.455,1.455,0,0,0,3.375,7.08V15.3A1.455,1.455,0,0,0,4.83,16.759h5.883A1.455,1.455,0,0,0,12.168,15.3a.444.444,0,0,0-.443-.443Z" transform="translate(0 0)"/>
    <path id="Path_13282" data-name="Path 13282" class="cls-1" d="M17.521,10.958a.44.44,0,0,0-.313-.13.432.432,0,0,0-.313.13.441.441,0,0,0,0,.626l2.062,2.031H10.85a.443.443,0,1,0,0,.885h8.116l-2.012,2.028a.446.446,0,0,0,0,.626l0,0a.457.457,0,0,0,.31.123.427.427,0,0,0,.313-.13l2.613-2.606a.622.622,0,0,0,0-.924l-2.673-2.663Z" transform="translate(-3.869 -2.862)"/>
  </g>
</svg>
