<svg xmlns="http://www.w3.org/2000/svg" xmlns:xlink="http://www.w3.org/1999/xlink" width="13.5" height="13.5" viewBox="0 0 13.5 13.5">
  <defs>
    <style>
      .cls-1 {
        fill: none;
        stroke: #606060;
        stroke-linecap: round;
        stroke-linejoin: round;
      }

      .cls-2 {
        clip-path: url(#clip-path);
      }

      .cls-3 {
        fill: #3bc0cb;
      }
    </style>
    <clipPath id="clip-path">
      <path id="Path_13276" data-name="Path 13276" class="cls-1" d="M27,20.25a6.75,6.75,0,1,1-6.75-6.75A6.75,6.75,0,0,1,27,20.25Z" transform="translate(-1.288 -1.288)"/>
    </clipPath>
  </defs>
  <g id="Settings_Icon" data-name="Settings Icon" class="cls-2" transform="translate(-12.212 -12.212)">
    <g id="__TEMP__SVG__" transform="translate(12.559 12.212)">
      <path id="Path_13274" data-name="Path 13274" class="cls-3" d="M3.661,1.268A2.475,2.475,0,1,0,6.136,3.743,2.475,2.475,0,0,0,3.661,1.268Zm0,4.05A1.575,1.575,0,1,1,5.236,3.743,1.575,1.575,0,0,1,3.661,5.318Z" transform="translate(2.719 3.007)"/>
      <path id="Path_13275" data-name="Path 13275" class="cls-3" d="M12.693,8.736,11.8,8a5.43,5.43,0,0,0,0-2.259l.894-.736a.561.561,0,0,0,.13-.716L11.905,2.7a.561.561,0,0,0-.684-.246l-1.084.406a5.4,5.4,0,0,0-1.956-1.13L7.99.591a.561.561,0,0,0-.555-.47H5.6a.561.561,0,0,0-.555.47l-.19,1.141A5.4,5.4,0,0,0,2.9,2.862L1.816,2.456a.561.561,0,0,0-.684.246L.214,4.29a.561.561,0,0,0,.13.716l.894.736A5.43,5.43,0,0,0,1.237,8l-.894.736a.561.561,0,0,0-.13.716l.917,1.588a.561.561,0,0,0,.684.246L2.9,10.879a5.4,5.4,0,0,0,1.956,1.13l.19,1.141a.561.561,0,0,0,.555.47H7.435a.561.561,0,0,0,.555-.47l.19-1.141a5.4,5.4,0,0,0,1.956-1.13l1.085.406a.561.561,0,0,0,.684-.246l.917-1.589a.561.561,0,0,0-.129-.715Zm-1.424,1.606L9.916,9.836l-.2.206a4.5,4.5,0,0,1-2.042,1.18l-.281.074L7.15,12.721H5.887L5.65,11.3l-.281-.074a4.5,4.5,0,0,1-2.042-1.18l-.2-.206-1.353.507L1.137,9.249l1.114-.918-.076-.28a4.525,4.525,0,0,1,0-2.36l.076-.28L1.137,4.492,1.768,3.4l1.353.507.2-.206a4.5,4.5,0,0,1,2.042-1.18l.281-.074.238-1.424H7.15l.238,1.424.281.074A4.5,4.5,0,0,1,9.711,3.7l.2.206L11.269,3.4,11.9,4.493l-1.114.918.076.28a4.525,4.525,0,0,1,0,2.36l-.076.28,1.114.918Z" transform="translate(-0.138 -0.121)"/>
    </g>
  </g>
</svg>
