<svg id="Heart_Icon" data-name="Heart Icon" xmlns="http://www.w3.org/2000/svg" width="32" height="32" viewBox="0 0 32 32">
  <defs>
    <style>
      .cls-1 {
        fill: #f6f6f6;
      }

      .cls-2 {
        fill: none;
      }

      .cls-3, .cls-4 {
        stroke: none;
      }

      .cls-4 {
        fill: #3bc0cb;
      }
    </style>
  </defs>
  <rect id="Rectangle_3140" data-name="Rectangle 3140" class="cls-1" width="32" height="32" rx="10"/>
  <g id="heart-sharp" class="cls-2" transform="translate(2.678 2.998)">
    <path class="cls-3" d="M13.322,22.865l-.431-.287A29.6,29.6,0,0,1,6.34,17.4,11.2,11.2,0,0,1,3.375,9.889,5.4,5.4,0,0,1,8.687,4.5a6.028,6.028,0,0,1,4.635,2.306A6.028,6.028,0,0,1,17.958,4.5,5.4,5.4,0,0,1,23.27,9.888,11.187,11.187,0,0,1,20.305,17.4a29.547,29.547,0,0,1-6.552,5.182Z"/>
    <path class="cls-4" d="M 13.32248020172119 20.46498870849609 C 13.37799739837646 20.42854118347168 13.43399620056152 20.39180183410645 13.49061679840088 20.35465240478516 C 15.27617645263672 19.18309211730957 17.29997634887695 17.85522270202637 18.77780723571777 16.10477256774902 C 20.49993705749512 14.06812286376953 21.29184722900391 12.09892272949219 21.27001571655273 9.907822608947754 C 21.2510871887207 8.028742790222168 19.76520729064941 6.500002861022949 17.9577465057373 6.500002861022949 C 16.48783683776855 6.500002861022949 15.4615364074707 7.362163066864014 14.85940647125244 8.085423469543457 L 13.32234668731689 9.931702613830566 L 11.78528690338135 8.085423469543457 C 11.18315696716309 7.362163066864014 10.15685653686523 6.500002861022949 8.686946868896484 6.500002861022949 C 6.879486560821533 6.500002861022949 5.393606662750244 8.029353141784668 5.374686717987061 9.907942771911621 C 5.353956699371338 12.09990310668945 6.14600658416748 14.06958293914795 7.867486476898193 16.10684394836426 C 9.342617034912109 17.85304260253906 11.36417675018311 19.17976379394531 13.14775657653809 20.35029220581055 C 13.206618309021 20.38892364501953 13.26480865478516 20.42711448669434 13.32248020172119 20.46498870849609 M 13.32234668731689 22.86474227905273 L 12.89179706573486 22.57771301269531 C 10.84582710266113 21.21123313903809 8.257076263427734 19.66724395751953 6.339666843414307 17.39749336242676 C 4.318856716156006 15.0059928894043 3.34960675239563 12.55056285858154 3.374776601791382 9.889033317565918 C 3.404706716537476 6.917343139648438 5.788036823272705 4.500002861022949 8.686946868896484 4.500002861022949 C 10.98798656463623 4.500002861022949 12.51769638061523 5.839262962341309 13.32234668731689 6.805792808532715 C 14.12699699401855 5.839262962341309 15.65670680999756 4.500002861022949 17.9577465057373 4.500002861022949 C 20.85665702819824 4.500002861022949 23.23998641967773 6.917343139648438 23.26991653442383 9.887673377990723 C 23.29644584655762 12.55056285858154 22.32719612121582 15.0046329498291 20.30502700805664 17.39613342285156 C 18.38761711120605 19.66724395751953 15.79886627197266 21.21192359924316 13.75289630889893 22.57771301269531 L 13.32234668731689 22.86474227905273 Z"/>
  </g>
</svg>
