<svg xmlns="http://www.w3.org/2000/svg" width="25.148" height="23.578" viewBox="0 0 25.148 23.578">
  <defs>
    <style>
      .cls-1 {
        fill: none;
      }

      .cls-2, .cls-3 {
        stroke: none;
      }

      .cls-3 {
        fill: #002f33;
      }
    </style>
  </defs>
  <g id="Path_13305" data-name="Path 13305" class="cls-1" transform="translate(-0.003 -1.123)">
    <path class="cls-2" d="M5.678,24.611a.834.834,0,0,1-1.173-.93l1.3-7.435L.273,10.971A.874.874,0,0,1,.718,9.479l7.7-1.094,3.433-6.8a.807.807,0,0,1,1.457,0l3.433,6.8,7.7,1.094a.874.874,0,0,1,.445,1.493l-5.537,5.275,1.3,7.435a.834.834,0,0,1-1.173.93l-6.9-3.546-6.9,3.546Z"/>
    <path class="cls-3" d="M 18.9448299407959 22.65239906311035 L 17.86651420593262 16.50537872314453 L 17.72771453857422 15.71415901184082 L 18.30936431884766 15.16009902954102 L 22.91086769104004 10.77686786651611 L 16.52729415893555 9.869729042053223 L 15.75205421447754 9.75955867767334 L 15.3992338180542 9.060528755187988 L 12.57703685760498 3.468963861465454 L 9.754834175109863 9.060528755187988 L 9.402013778686523 9.75955867767334 L 8.626773834228516 9.869729042053223 L 2.243099689483643 10.77688121795654 L 6.84407377243042 15.16017913818359 L 7.425643920898438 15.71422863006592 L 7.286853790283203 16.5053882598877 L 6.208718776702881 22.65139579772949 L 11.88918399810791 19.73148918151855 L 12.57483386993408 19.37904930114746 L 13.26051425933838 19.73139953613281 L 18.9448299407959 22.65239906311035 M 19.83825302124023 24.70117378234863 C 19.71869277954102 24.70117568969727 19.59540367126465 24.67308807373047 19.47528457641602 24.6114387512207 L 12.5749340057373 21.06555938720703 L 5.676683902740479 24.6114387512207 L 5.678083896636963 24.6114387512207 C 5.558002471923828 24.67306900024414 5.43464469909668 24.70117378234863 5.315120697021484 24.70117378234863 C 4.830422401428223 24.70117378234863 4.407145023345947 24.23964881896973 4.505204200744629 23.68095970153809 L 5.809413909912109 16.24621963500977 L 0.2726539969444275 10.97140884399414 C -0.2442860007286072 10.47752857208252 0.02466399595141411 9.575689315795898 0.7176340222358704 9.478589057922363 L 8.41573429107666 8.384649276733398 L 11.84844398498535 1.583498954772949 C 12.003173828125 1.276834011077881 12.29010391235352 1.123501420021057 12.57703495025635 1.123501420021057 C 12.8639669418335 1.123501420021057 13.15089893341064 1.276834011077881 13.30563354492188 1.583498954772949 L 16.73833465576172 8.384649276733398 L 24.43643379211426 9.478589057922363 C 25.12940406799316 9.576389312744141 25.39835357666016 10.47822856903076 24.88142395019531 10.97140884399414 L 19.34395408630371 16.24620819091797 L 20.64816474914551 23.68095970153809 C 20.74622344970703 24.2396068572998 20.32290840148926 24.70116996765137 19.83825302124023 24.70117378234863 Z"/>
  </g>
</svg>
