<svg xmlns="http://www.w3.org/2000/svg" width="13.688" height="13.688" viewBox="0 0 13.688 13.688">
  <defs>
    <style>
      .cls-1 {
        fill: #3bc0cb;
        fill-rule: evenodd;
      }
    </style>
  </defs>
  <g id="profile" transform="translate(-1.5 -1.5)">
    <path id="Path_13306" data-name="Path 13306" class="cls-1" d="M16.977,9.989A2.489,2.489,0,1,1,14.489,7.5,2.489,2.489,0,0,1,16.977,9.989Zm-1.244,0a1.244,1.244,0,1,1-1.244-1.244A1.244,1.244,0,0,1,15.733,9.989Z" transform="translate(-6.145 -3.511)"/>
    <path id="Path_13307" data-name="Path 13307" class="cls-1" d="M8.344,1.5a6.844,6.844,0,1,0,6.844,6.844A6.844,6.844,0,0,0,8.344,1.5Zm-5.6,6.844a5.577,5.577,0,0,0,1.187,3.448,5.6,5.6,0,0,1,8.865-.052,5.6,5.6,0,1,0-10.052-3.4Zm5.6,5.6a5.576,5.576,0,0,1-3.529-1.252,4.357,4.357,0,0,1,7.109-.042A5.577,5.577,0,0,1,8.344,13.943Z"/>
  </g>
</svg>
