<svg xmlns="http://www.w3.org/2000/svg" width="13.044" height="14.55" viewBox="0 0 13.044 14.55">
  <defs>
    <style>
      .cls-1 {
        fill: #3bc0cb;
        fill-rule: evenodd;
      }
    </style>
  </defs>
  <g id="shield_Icon" data-name="shield Icon" transform="translate(-2.872 -1.125)">
    <path id="Path_13301" data-name="Path 13301" class="cls-1" d="M6.914,2.571q-1.331.358-2.643.778a.441.441,0,0,0-.306.355,10.776,10.776,0,0,0,2.1,8.355,9.884,9.884,0,0,0,2.131,2.03,5.823,5.823,0,0,0,.831.485,2.1,2.1,0,0,0,.273.106.709.709,0,0,0,.094.024.557.557,0,0,0,.094-.022,2.281,2.281,0,0,0,.273-.108,5.8,5.8,0,0,0,.831-.485,9.891,9.891,0,0,0,2.131-2.03,10.773,10.773,0,0,0,2.1-8.355.441.441,0,0,0-.306-.355c-.607-.194-1.631-.51-2.643-.778A12.466,12.466,0,0,0,9.394,2.1,12.451,12.451,0,0,0,6.914,2.571Zm-.248-.937a12.984,12.984,0,0,1,2.729-.51,13.016,13.016,0,0,1,2.729.509q1.354.363,2.689.791a1.411,1.411,0,0,1,.973,1.148,11.751,11.751,0,0,1-2.3,9.084,10.855,10.855,0,0,1-2.346,2.231,6.734,6.734,0,0,1-.977.569,2.015,2.015,0,0,1-.772.218,2.015,2.015,0,0,1-.772-.218,6.7,6.7,0,0,1-.977-.569A10.856,10.856,0,0,1,5.3,12.657,11.746,11.746,0,0,1,3,3.573a1.411,1.411,0,0,1,.973-1.148Q5.311,2,6.665,1.634Z" transform="translate(0)"/>
    <path id="Path_13302" data-name="Path 13302" class="cls-1" d="M17.567,13.64a.485.485,0,0,1,0,.687l-2.91,2.91a.485.485,0,0,1-.687,0l-1.455-1.455A.486.486,0,0,1,13.2,15.1l1.112,1.112,2.567-2.568a.485.485,0,0,1,.687,0Z" transform="translate(-5.405 -7.038)"/>
  </g>
</svg>
