<svg xmlns="http://www.w3.org/2000/svg" width="25.148" height="23.578" viewBox="0 0 25.148 23.578">
  <defs>
    <style>
      .cls-1 {
        fill: #002f33;
      }
    </style>
  </defs>
  <g id="star-fill_Icon" data-name="star-fill Icon" transform="translate(-0.003 -1.124)">
    <path id="Path_13305" data-name="Path 13305" class="cls-1" d="M5.678,24.611a.834.834,0,0,1-1.173-.93l1.3-7.435L.273,10.971A.874.874,0,0,1,.718,9.479l7.7-1.094,3.433-6.8a.807.807,0,0,1,1.457,0l3.433,6.8,7.7,1.094a.874.874,0,0,1,.445,1.493l-5.537,5.275,1.3,7.435a.834.834,0,0,1-1.173.93l-6.9-3.546-6.9,3.546Z" transform="translate(0)"/>
  </g>
</svg>
