<svg xmlns="http://www.w3.org/2000/svg" width="15.208" height="15.208" viewBox="0 0 15.208 15.208">
  <defs>
    <style>
      .cls-1 {
        fill: #606060;
      }

      .cls-2 {
        fill: #e5c100;
      }
    </style>
  </defs>
  <g id="Group_12664" data-name="Group 12664" transform="translate(0 0)">
    <path id="Path_13270" data-name="Path 13270" class="cls-1" d="M7.6,15.208a7.605,7.605,0,0,0,7.3-9.724.634.634,0,0,0-1.216.356,6.329,6.329,0,1,1-2.554-3.5.634.634,0,0,0,.709-1.051A7.605,7.605,0,1,0,7.6,15.208Zm0,0" transform="translate(0)"/>
    <path id="Path_13271" data-name="Path 13271" class="cls-2" d="M121.694,32.189l-6.522,6.522-2.087-2.086a.634.634,0,0,0-.9.9l2.535,2.535a.633.633,0,0,0,.9,0l6.97-6.97a.634.634,0,1,0-.9-.9Zm0,0" transform="translate(-107.568 -30.736)"/>
  </g>
</svg>
